<?xml version="1.0" encoding="iso-8859-1"?>
<!-- Generator: Adobe Illustrator 19.0.0, SVG Export Plug-In . SVG Version: 6.00 Build 0)  -->
<svg version="1.1" id="Capa_1" xmlns="http://www.w3.org/2000/svg" xmlns:xlink="http://www.w3.org/1999/xlink" x="0px" y="0px"
	 viewBox="0 0 512.06 512.06" style="enable-background:new 0 0 512.06 512.06;" xml:space="preserve">
<path style="fill:#4CAF50;" d="M416.054,362.707c-11.275-0.08-22.216,3.827-30.891,11.029c-9.35,7.472-21.17,11.151-33.109,10.304
	c-39.552,0-84.864-62.165-103.808-93.867c49.963-45.419,124.885-116.992,134.72-145.899c4.096-3.904,8.533-7.552,13.184-11.307
	c24.167-14.873,39.559-40.601,41.237-68.928c0-50.517-26.816-64-42.667-64c-19.925,0-32,22.144-38.016,37.547
	C305.621,12.063,249.153-0.814,192.054,0.04c-40.917,0-52.779,41.685-53.333,63.595c-1.668,19.896,3.265,39.787,14.037,56.597
	c4.639,4.99,11.149,7.82,17.963,7.808c12.56-0.532,24.616-5.086,34.389-12.992c5.305-4.665,11.921-7.578,18.944-8.341
	c7.816,0.883,15.435,3.045,22.549,6.4c15.78,6.544,32.323,11.067,49.237,13.461l-94.571,94.507
	c-12.974-5.668-27.07-8.302-41.216-7.701c-49.426,4.259-86.899,46.415-85.333,96c0,22.336,0,74.667,42.667,74.667
	c20.949-2.681,39.709-14.306,51.435-31.872c17.091,38.392,36.102,75.901,56.96,112.384c21.653,30.427,56.934,48.199,94.272,47.488
	c32.32,0,117.333-29.525,117.333-96C437.387,396.093,437.387,362.707,416.054,362.707z"/>
<path d="M320.054,512.04c-37.342,0.706-72.623-17.075-94.272-47.509c-20.858-36.483-39.869-73.992-56.96-112.384
	c-11.721,17.574-30.482,29.207-51.435,31.893c-42.667,0-42.667-52.331-42.667-74.667c-1.566-49.585,35.907-91.741,85.333-96
	c14.146-0.601,28.242,2.033,41.216,7.701l94.571-94.571c-16.911-2.374-33.455-6.875-49.237-13.397
	c-7.115-3.355-14.733-5.517-22.549-6.4c-7.023,0.764-13.639,3.677-18.944,8.341c-9.774,7.906-21.83,12.46-34.389,12.992
	c-6.81,0.017-13.32-2.805-17.963-7.787c-10.776-16.816-15.71-36.716-14.037-56.619c0.555-21.909,12.416-63.595,53.333-63.595
	c57.099-0.854,113.567,12.023,164.651,37.547c6.016-15.403,18.091-37.547,38.016-37.547c15.851,0,42.667,13.483,42.667,64
	c-1.685,28.32-17.076,54.038-41.237,68.907c-4.565,3.755-9.088,7.424-13.184,11.307c-9.835,28.885-84.779,100.48-134.72,145.899
	c18.965,31.701,64.256,93.867,103.808,93.867c11.939,0.847,23.759-2.832,33.109-10.304c8.678-7.195,19.618-11.094,30.891-11.008
	c21.333,0,21.333,33.387,21.333,53.333C437.387,482.514,352.374,512.04,320.054,512.04z M170.721,320.04h0.533
	c3.994,0.195,7.544,2.608,9.195,6.251c0.448,0.96,43.883,96.939,63.211,126.571c17.67,24.436,46.249,38.593,76.395,37.845
	c22.357,0,96-23.275,96-74.667c0.67-10.75-0.294-21.539-2.859-32c-5.818,0.663-11.292,3.098-15.68,6.976
	c-12.915,10.133-29.069,15.235-45.461,14.357c-64.235,0-124.16-107.605-126.677-112.192c-2.399-4.321-1.517-9.724,2.133-13.056
	c62.891-56.811,132.459-127.211,135.211-141.888c-0.009-2.684,1.114-5.248,3.093-7.061c5.099-5.099,10.901-9.877,16.789-14.699
	c17.963-14.699,33.451-27.413,33.451-52.437c0-29.312-11.072-42.667-21.333-42.667c-7.723,0-17.835,20.224-21.696,34.731
	c-0.884,3.322-3.314,6.014-6.528,7.232c-3.211,1.253-6.833,0.846-9.685-1.088c-50.277-28.11-107.171-42.225-164.757-40.875
	c-30.592,0-32,41.195-32,42.944c-1.305,14.195,1.502,28.466,8.085,41.109c0.607,0.815,1.566,1.29,2.581,1.28
	c8.257-0.649,16.094-3.907,22.379-9.301c8.764-7.221,19.614-11.439,30.955-12.032c10.452,0.722,20.683,3.354,30.187,7.765
	c20.798,8.916,43.185,13.531,65.813,13.568c5.891-0.011,10.675,4.757,10.686,10.648c0.005,2.84-1.123,5.565-3.134,7.571
	L210.273,242.259c-2.114,1.923-4.845,3.027-7.701,3.115c-2.883-0.051-5.623-1.267-7.595-3.371l0,0
	c-10.609-5.977-22.808-8.526-34.923-7.296c-37.525,4.42-65.371,36.907-64,74.667c0,46.933,10.24,53.333,21.333,53.333
	c18.261,0,38.4-27.733,44.096-37.355C163.394,322.06,166.914,320.036,170.721,320.04z"/>
<g>
</g>
<g>
</g>
<g>
</g>
<g>
</g>
<g>
</g>
<g>
</g>
<g>
</g>
<g>
</g>
<g>
</g>
<g>
</g>
<g>
</g>
<g>
</g>
<g>
</g>
<g>
</g>
<g>
</g>
</svg>
