<?xml version="1.0" encoding="iso-8859-1"?>
<!-- Generator: Adobe Illustrator 19.0.0, SVG Export Plug-In . SVG Version: 6.00 Build 0)  -->
<svg version="1.1" id="Capa_1" xmlns="http://www.w3.org/2000/svg" xmlns:xlink="http://www.w3.org/1999/xlink" x="0px" y="0px"
	 viewBox="0 0 512.017 512.017" style="enable-background:new 0 0 512.017 512.017;" xml:space="preserve">
<g>
	<path style="fill:#6A1B9A;" d="M330.682,32.202h-53.333c-3.88-0.008-7.458,2.092-9.344,5.483l-97.323,175.211L73.338,37.685
		c-1.882-3.384-5.45-5.483-9.323-5.483H10.682C4.791,32.194,0.008,36.962,0,42.854c-0.003,1.844,0.473,3.657,1.38,5.263
		l137.131,242.603l-10.496,178.197c-0.342,5.881,4.149,10.926,10.03,11.267c0.212,0.012,0.424,0.018,0.637,0.018h64
		c5.891,0.01,10.675-4.758,10.685-10.649c0-0.212-0.006-0.425-0.018-0.637l-10.475-178.197L339.983,48.117
		c2.898-5.129,1.09-11.636-4.038-14.534C334.339,32.675,332.526,32.199,330.682,32.202z"/>
	<path style="fill:#6A1B9A;" d="M416.015,416.202c-17.673,0-32,14.327-32,32s14.327,32,32,32s32-14.327,32-32
		S433.688,416.202,416.015,416.202z M416.015,458.869c-5.891,0-10.667-4.776-10.667-10.667c0-5.891,4.776-10.667,10.667-10.667
		c5.891,0,10.667,4.776,10.667,10.667C426.682,454.093,421.906,458.869,416.015,458.869z"/>
	<path style="fill:#6A1B9A;" d="M435.834,373.535c0.511,0.036,1.025,0.036,1.536,0c5.007-0.016,9.328-3.513,10.389-8.405
		c64.256-296.661,64.256-299.477,64.256-300.928c0.212-17.673-13.943-32.172-31.616-32.384
		c-17.673-0.212-32.172,13.943-32.384,31.616l-21.333,298.667C426.22,367.735,430.235,372.751,435.834,373.535z"/>
</g>
<path d="M202.682,480.202h-64c-5.891,0.01-10.675-4.758-10.685-10.649c0-0.212,0.006-0.425,0.018-0.637l10.475-178.197L1.402,48.117
	c-2.898-5.129-1.09-11.636,4.038-14.534c1.599-0.904,3.405-1.379,5.242-1.38h53.333c3.872,0,7.441,2.098,9.323,5.483l97.344,175.232
	l97.344-175.232c1.882-3.384,5.45-5.483,9.323-5.483h53.333c5.891,0.004,10.664,4.782,10.66,10.673
	c-0.001,1.837-0.477,3.642-1.38,5.242L202.852,290.719l10.496,178.197c0.342,5.881-4.149,10.926-10.03,11.267
	C203.106,480.196,202.894,480.202,202.682,480.202z M149.988,458.869h41.387l-10.027-170.048c-0.118-2.046,0.356-4.083,1.365-5.867
	L312.399,53.535H283.62L180.004,240.053c-3.342,5.149-10.226,6.613-15.374,3.271c-1.308-0.849-2.422-1.963-3.271-3.271
	L57.743,53.535H28.964l129.664,229.419c1.009,1.784,1.483,3.821,1.365,5.867L149.988,458.869z"/>
<path d="M416.015,480.202c-17.673,0-32-14.327-32-32s14.327-32,32-32s32,14.327,32,32S433.688,480.202,416.015,480.202z
	 M416.015,437.535c-5.891,0-10.667,4.776-10.667,10.667c0,5.891,4.776,10.667,10.667,10.667c5.891,0,10.667-4.776,10.667-10.667
	C426.682,442.311,421.906,437.535,416.015,437.535z"/>
<path d="M437.348,373.535c-0.504,0.03-1.01,0.03-1.515,0c-5.537-0.792-9.523-5.727-9.131-11.307l21.333-298.667
	c0.598-17.663,15.401-31.497,33.064-30.899c17.071,0.578,30.679,14.461,30.915,31.539c0,1.451,0,4.267-64.235,300.907
	C446.724,370.025,442.377,373.537,437.348,373.535z M480.015,53.535c-5.891,0-10.667,4.776-10.667,10.667l-10.667,149.333
	c16.299-75.669,30.379-141.44,32-149.952C490.354,57.935,485.673,53.526,480.015,53.535z"/>
<g>
</g>
<g>
</g>
<g>
</g>
<g>
</g>
<g>
</g>
<g>
</g>
<g>
</g>
<g>
</g>
<g>
</g>
<g>
</g>
<g>
</g>
<g>
</g>
<g>
</g>
<g>
</g>
<g>
</g>
</svg>
