<?xml version="1.0" encoding="iso-8859-1"?>
<!-- Generator: Adobe Illustrator 19.0.0, SVG Export Plug-In . SVG Version: 6.00 Build 0)  -->
<svg version="1.1" id="Capa_1" xmlns="http://www.w3.org/2000/svg" xmlns:xlink="http://www.w3.org/1999/xlink" x="0px" y="0px"
	 viewBox="0 0 512 512" style="enable-background:new 0 0 512 512;" xml:space="preserve">
<path style="fill:#CDDC39;" d="M499.907,5.312c-1.911-3.292-5.431-5.316-9.237-5.312H384.003c-3.835-0.006-7.378,2.046-9.28,5.376
	L204.056,304.043c-1.832,3.251-1.832,7.224,0,10.475l106.667,192c1.875,3.371,5.423,5.467,9.28,5.483h106.667
	c5.891,0,10.667-4.775,10.667-10.666c0-1.814-0.463-3.599-1.344-5.184L332.248,309.334L499.949,15.958
	C501.833,12.655,501.817,8.599,499.907,5.312z"/>
<path style="fill:#4CAF50;" d="M222.488,197.184l-64-106.667c-1.927-3.217-5.402-5.185-9.152-5.184H42.669
	C36.778,85.332,32.001,90.107,32,95.998c0,1.932,0.524,3.828,1.517,5.485l60.8,101.312L12.056,346.71
	c-2.922,5.115-1.144,11.631,3.971,14.553c1.617,0.923,3.447,1.408,5.309,1.405h106.667c3.835,0.006,7.378-2.046,9.28-5.376
	l85.333-149.333C224.523,204.607,224.474,200.488,222.488,197.184z"/>
<path d="M426.669,512H320.003c-3.872,0-7.441-2.098-9.323-5.483l-106.667-192c-1.832-3.251-1.832-7.224,0-10.475L374.68,5.376
	c1.91-3.343,5.473-5.398,9.323-5.376h106.667c5.891,0.002,10.665,4.779,10.663,10.67c-0.001,1.855-0.485,3.677-1.405,5.287
	l-167.68,293.376l103.744,186.731c2.91,5.122,1.117,11.633-4.005,14.544C430.367,511.529,428.533,512.009,426.669,512z
	 M326.275,490.667h82.261L310.68,314.518c-1.832-3.251-1.832-7.224,0-10.475l161.6-282.709h-82.091l-164.608,288L326.275,490.667z"
	/>
<path d="M128.003,362.667H21.336c-5.891-0.002-10.665-4.779-10.663-10.67c0.001-1.855,0.485-3.677,1.405-5.287l82.219-143.915
	L33.517,101.483c-3.028-5.053-1.386-11.604,3.667-14.632c1.657-0.993,3.553-1.517,5.485-1.517h106.667
	c3.75-0.001,7.225,1.967,9.152,5.184l64,106.667c1.939,3.281,1.979,7.347,0.107,10.667l-85.333,149.333
	C135.39,360.549,131.852,362.644,128.003,362.667z M39.725,341.334h82.091l79.147-138.539l-57.664-96.128H61.506l54.315,90.517
	c1.939,3.281,1.979,7.347,0.107,10.667L39.725,341.334z"/>
<g>
</g>
<g>
</g>
<g>
</g>
<g>
</g>
<g>
</g>
<g>
</g>
<g>
</g>
<g>
</g>
<g>
</g>
<g>
</g>
<g>
</g>
<g>
</g>
<g>
</g>
<g>
</g>
<g>
</g>
</svg>
