<?xml version="1.0" encoding="iso-8859-1"?>
<!-- Generator: Adobe Illustrator 19.0.0, SVG Export Plug-In . SVG Version: 6.00 Build 0)  -->
<svg version="1.1" id="Capa_1" xmlns="http://www.w3.org/2000/svg" xmlns:xlink="http://www.w3.org/1999/xlink" x="0px" y="0px"
	 viewBox="0 0 513.732 513.732" style="enable-background:new 0 0 513.732 513.732;" xml:space="preserve">
<circle style="fill:#BDBDBD;" cx="257.732" cy="256.157" r="245.333"/>
<path style="fill:#424242;" d="M449.966,87.624c-1.89-2.366-3.928-4.611-6.101-6.72C346.684-22.403,184.156-27.369,80.849,69.812
	S-27.423,329.521,69.758,432.828s259.709,108.273,363.016,11.091C533.508,349.158,541.109,191.644,449.966,87.624z M257.732,21.49
	c49.097,0.005,96.939,15.512,136.704,44.309c-14.464,3.904-30.037,16.256-30.037,51.691c3.52,19.983,11.617,38.88,23.659,55.211
	c16.939,28.779,38.016,64.597,30.123,91.072c-0.296,0.99-0.447,2.017-0.448,3.051c-11.989,37.76-27.051,85.077-39.509,124.181
	l-76.48-238.933c4.336-0.709,8.614-1.736,12.8-3.072c5.514-2.074,8.303-8.225,6.229-13.739c-1.963-5.22-7.616-8.047-12.971-6.485
	c-18.411,4.102-37.288,5.717-56.128,4.8h-9.088c-18.84,0.916-37.717-0.698-56.128-4.8c-5.655-1.649-11.577,1.598-13.227,7.253
	c-1.562,5.354,1.265,11.007,6.485,12.971c8.336,2.479,16.922,4.024,25.6,4.608l40.725,114.752l-40.683,115.797l-74.304-232.149
	c4.336-0.702,8.614-1.722,12.8-3.051c5.514-2.074,8.303-8.225,6.229-13.739c-1.963-5.22-7.617-8.047-12.971-6.485
	c-18.418,4.149-37.316,5.764-56.171,4.8h-4.544c-5.832,0.04-11.655-0.481-17.387-1.557C101.773,63.349,176.873,21.595,257.732,21.49
	z M23.065,256.157c0.022-29.86,5.78-59.438,16.96-87.125l103.616,291.925C69.296,419.594,23.161,341.233,23.065,256.157z
	 M193.732,481.757l63.488-181.333l64.512,181.333c-41.751,12.1-86.079,12.1-127.829,0H193.732z M379.758,456.157
	c13.845-43.413,51.456-161.429,69.376-218.112c9.624-28.328,15.575-57.774,17.707-87.616
	c55.531,108.993,17.531,242.368-87.104,305.728H379.758z"/>
<path d="M257.732,512.157c-141.385,0-256-114.615-256-256s114.615-256,256-256s256,114.615,256,256
	C513.579,397.479,399.053,512.004,257.732,512.157z M257.732,21.49c-129.603,0-234.667,105.064-234.667,234.667
	s105.064,234.667,234.667,234.667S492.398,385.76,492.398,256.157C492.257,126.613,387.276,21.631,257.732,21.49z"/>
<path d="M257.262,154.845h-14.613c-21.159,1.128-42.369-0.849-62.955-5.867c-5.591-1.862-8.614-7.903-6.752-13.493
	s7.903-8.614,13.493-6.752c18.393,4.215,37.286,5.831,56.128,4.8h8.981c18.842,1.036,37.736-0.579,56.128-4.8
	c5.591-1.862,11.632,1.161,13.493,6.752s-1.161,11.632-6.752,13.493C295.744,153.665,276.496,155.641,257.262,154.845z"/>
<path d="M332.398,490.824c-4.515-0.003-8.54-2.848-10.048-7.104L205.017,153.053c-2.15-5.485,0.553-11.674,6.038-13.824
	c5.485-2.15,11.674,0.553,13.824,6.038c0.085,0.218,0.163,0.438,0.234,0.661l117.333,330.667c1.968,5.553-0.939,11.649-6.491,13.617
	C334.813,490.616,333.61,490.823,332.398,490.824z"/>
<path d="M375.065,426.824c-4.639-0.003-8.744-3.004-10.155-7.424l-85.333-266.667c-2.109-5.501,0.641-11.669,6.141-13.778
	c5.501-2.109,11.669,0.641,13.778,6.141c0.155,0.404,0.285,0.817,0.39,1.237L385.22,413c1.799,5.61-1.29,11.616-6.899,13.415
	c-0.004,0.001-0.008,0.003-0.013,0.004C377.253,426.713,376.16,426.85,375.065,426.824z"/>
<path d="M86.574,154.845H76.398c-12.645,0.623-25.268-1.616-36.928-6.549c-5.225-2.728-7.25-9.175-4.523-14.4
	c2.728-5.225,9.175-7.25,14.4-4.523l0,0c8.655,3.15,17.85,4.55,27.051,4.117h4.437c18.856,1.037,37.764-0.579,56.171-4.8
	c5.591-1.862,11.632,1.161,13.493,6.752c1.862,5.591-1.161,11.632-6.752,13.493C125.073,153.641,105.817,155.631,86.574,154.845z"/>
<path d="M161.732,490.824c-4.515-0.003-8.54-2.848-10.048-7.104L34.35,153.053c-2.15-5.485,0.553-11.674,6.038-13.824
	s11.674,0.553,13.824,6.038c0.085,0.218,0.163,0.438,0.234,0.661L171.78,476.594c1.968,5.553-0.939,11.649-6.491,13.617
	C164.146,490.616,162.943,490.823,161.732,490.824z"/>
<path d="M204.398,426.824c-4.639-0.003-8.744-3.004-10.155-7.424L108.91,152.733c-2.109-5.501,0.641-11.669,6.141-13.778
	c5.501-2.109,11.669,0.641,13.778,6.141c0.155,0.404,0.285,0.817,0.39,1.237L214.553,413c1.799,5.61-1.29,11.616-6.899,13.415
	c-0.004,0.001-0.008,0.003-0.013,0.004C206.586,426.713,205.493,426.85,204.398,426.824z"/>
<path d="M374.574,472.733l-20.331-6.4c0,0,38.4-120.661,63.509-199.424c0.001-1.033,0.152-2.061,0.448-3.051
	c7.893-26.475-13.184-62.293-30.123-91.093c-12.057-16.348-20.163-35.268-23.68-55.275c0-46.4,26.731-53.333,42.667-53.333
	c23.29,1.196,43.702,15.968,52.117,37.717c13.525,25.813,10.069,72.896-9.941,136.171
	C427.012,308.274,374.574,472.733,374.574,472.733z M407.065,85.49c-7.467,0-21.333,0-21.333,32
	c4.13,15.941,11.152,30.989,20.715,44.395c10.633,16.962,19.79,34.805,27.371,53.333c19.051-67.563,11.093-94.656,6.4-103.445
	C427.95,88.221,415.406,85.49,407.065,85.49z"/>
<path d="M183.065,490.824c-1.199,0.005-2.39-0.197-3.52-0.597c-5.561-1.944-8.493-8.028-6.549-13.589c0,0,0,0,0,0l74.667-213.333
	c1.944-5.561,8.028-8.493,13.589-6.549c5.561,1.944,8.493,8.028,6.549,13.589l-74.667,213.333
	C191.638,487.957,187.599,490.824,183.065,490.824z"/>
<g>
</g>
<g>
</g>
<g>
</g>
<g>
</g>
<g>
</g>
<g>
</g>
<g>
</g>
<g>
</g>
<g>
</g>
<g>
</g>
<g>
</g>
<g>
</g>
<g>
</g>
<g>
</g>
<g>
</g>
</svg>
