<?xml version="1.0" encoding="iso-8859-1"?>
<!-- Generator: Adobe Illustrator 19.0.0, SVG Export Plug-In . SVG Version: 6.00 Build 0)  -->
<svg version="1.1" id="Capa_1" xmlns="http://www.w3.org/2000/svg" xmlns:xlink="http://www.w3.org/1999/xlink" x="0px" y="0px"
	 viewBox="0 0 512 512" style="enable-background:new 0 0 512 512;" xml:space="preserve">
<path style="fill:#4CAF50;" d="M365.397,156.629C341.568,88.448,269.739,42.667,186.667,42.667C83.733,42.667,0,114.432,0,202.667
	c0.866,48.885,25.414,94.306,65.835,121.813l-22.037,44.075c-2.685,5.244-0.611,11.671,4.633,14.356
	c3.26,1.669,7.149,1.549,10.3-0.319l56.448-32.277c15.314,5.409,31.197,9.045,47.339,10.837c5.852,0.674,11.143-3.523,11.818-9.375
	c0.141-1.223,0.069-2.461-0.212-3.659c-2.225-9.209-3.384-18.643-3.456-28.117c0-82.325,81.344-149.333,181.333-149.333l3.136,0.149
	c3.467-0.034,6.724-1.663,8.832-4.416C366.014,163.573,366.548,159.924,365.397,156.629z"/>
<g>
	<path style="fill:#FAFAFA;" d="M117.333,106.667c-17.673,0-32,14.327-32,32s14.327,32,32,32s32-14.327,32-32
		S135.006,106.667,117.333,106.667z"/>
	<path style="fill:#FAFAFA;" d="M245.333,106.667c-17.673,0-32,14.327-32,32s14.327,32,32,32s32-14.327,32-32
		S263.006,106.667,245.333,106.667z"/>
</g>
<path style="fill:#4CAF50;" d="M512,320c0-70.592-71.765-128-160-128s-160,57.408-160,128s71.765,128,160,128
	c16.552-0.006,33.038-2.099,49.067-6.229l52.885,26.432c5.268,2.637,11.676,0.505,14.313-4.763c1.366-2.728,1.498-5.91,0.364-8.741
	l-14.485-36.267C488.763,397.446,510.505,360.455,512,320z"/>
<g>
	<path style="fill:#FAFAFA;" d="M298.667,256c-11.782,0-21.333,9.551-21.333,21.333c0,11.782,9.551,21.333,21.333,21.333
		c11.782,0,21.333-9.551,21.333-21.333C320,265.551,310.449,256,298.667,256z"/>
	<path style="fill:#FAFAFA;" d="M405.333,256C393.551,256,384,265.551,384,277.333c0,11.782,9.551,21.333,21.333,21.333
		s21.333-9.551,21.333-21.333C426.667,265.551,417.115,256,405.333,256z"/>
</g>
<path d="M117.333,170.667c-17.673,0-32-14.327-32-32s14.327-32,32-32s32,14.327,32,32S135.006,170.667,117.333,170.667z
	 M117.333,128c-5.891,0-10.667,4.776-10.667,10.667s4.776,10.667,10.667,10.667S128,144.558,128,138.667S123.224,128,117.333,128z"
	/>
<path d="M245.333,170.667c-17.673,0-32-14.327-32-32s14.327-32,32-32s32,14.327,32,32S263.006,170.667,245.333,170.667z
	 M245.333,128c-5.891,0-10.667,4.776-10.667,10.667s4.776,10.667,10.667,10.667c5.891,0,10.667-4.776,10.667-10.667
	S251.224,128,245.333,128z"/>
<path d="M458.667,469.333c-1.659,0-3.295-0.387-4.779-1.131l-52.821-26.432c-16.029,4.131-32.514,6.224-49.067,6.229
	c-88.235,0-160-57.408-160-128s71.765-128,160-128s160,57.408,160,128c-1.494,40.483-23.264,77.496-57.92,98.475l14.485,36.267
	c2.168,5.478-0.515,11.676-5.993,13.843C461.329,469.077,460.004,469.331,458.667,469.333z M402.155,419.755
	c1.659,0,3.295,0.387,4.779,1.131l31.424,15.701l-7.424-18.453c-1.957-4.902-0.034-10.498,4.523-13.163
	c32.415-16.256,53.526-48.747,55.211-84.971c0-58.816-62.208-106.667-138.667-106.667S213.333,261.184,213.333,320
	S275.541,426.667,352,426.667c15.982-0.006,31.889-2.203,47.275-6.528C400.212,419.877,401.181,419.747,402.155,419.755z"/>
<path d="M53.333,384c-5.891,0-10.667-4.776-10.666-10.667c0-1.659,0.387-3.295,1.13-4.778l22.037-44.075
	C25.414,296.972,0.866,251.551,0,202.667c0-88.235,83.733-160,186.667-160c83.072,0,154.901,45.781,178.731,113.963
	c1.157,3.291,0.631,6.94-1.408,9.771c-1.99,2.891-5.325,4.558-8.832,4.416l-2.795-9.621L352,161.322v9.344
	c-99.989,0-181.333,67.008-181.333,149.333c0.03,9.469,1.146,18.903,3.328,28.117c1.347,5.735-2.211,11.476-7.946,12.822
	c-1.198,0.281-2.436,0.353-3.659,0.212c-16.142-1.792-32.025-5.428-47.339-10.837l-56.427,32.299
	C57.011,383.527,55.187,384.005,53.333,384z M186.667,64C95.509,64,21.333,126.208,21.333,202.667
	c1.187,45.01,25.339,86.277,64,109.355c4.546,2.963,6.144,8.866,3.712,13.717l-10.432,20.864l30.187-17.259
	c2.795-1.559,6.135-1.809,9.131-0.683c10.542,4.043,21.432,7.114,32.533,9.173c-0.759-5.915-1.136-11.872-1.131-17.835
	c0-90.539,84.139-164.843,190.016-170.325C308.325,94.968,249.525,61.974,186.667,64z"/>
<path d="M298.667,298.667c-11.782,0-21.333-9.551-21.333-21.333c0-11.782,9.551-21.333,21.333-21.333
	c11.782,0,21.333,9.551,21.333,21.333C320,289.115,310.449,298.667,298.667,298.667z"/>
<path d="M405.333,298.667c-11.782,0-21.333-9.551-21.333-21.333c0-11.782,9.551-21.333,21.333-21.333s21.333,9.551,21.333,21.333
	C426.667,289.115,417.115,298.667,405.333,298.667z"/>
<g>
</g>
<g>
</g>
<g>
</g>
<g>
</g>
<g>
</g>
<g>
</g>
<g>
</g>
<g>
</g>
<g>
</g>
<g>
</g>
<g>
</g>
<g>
</g>
<g>
</g>
<g>
</g>
<g>
</g>
</svg>
