<?xml version="1.0" encoding="iso-8859-1"?>
<!-- Generator: Adobe Illustrator 19.0.0, SVG Export Plug-In . SVG Version: 6.00 Build 0)  -->
<svg version="1.1" id="Capa_1" xmlns="http://www.w3.org/2000/svg" xmlns:xlink="http://www.w3.org/1999/xlink" x="0px" y="0px"
	 viewBox="0 0 490.667 490.667" style="enable-background:new 0 0 490.667 490.667;" xml:space="preserve">
<path style="fill:#FFC107;" d="M480,53.333h-85.333C388.776,53.333,384,58.109,384,64v266.667h-85.333V64
	c0-5.891-4.776-10.667-10.667-10.667h-85.333C196.776,53.333,192,58.109,192,64v266.667h-53.333c-17.673,0-32-14.327-32-32l0,0V64
	c0-5.891-4.776-10.667-10.667-10.667H10.667C4.776,53.333,0,58.109,0,64v234.667c0.094,76.544,62.122,138.573,138.667,138.667H480
	c5.891,0,10.667-4.776,10.667-10.667V64C490.667,58.109,485.891,53.333,480,53.333z"/>
<path d="M480,437.333H138.667C62.122,437.239,0.094,375.211,0,298.667V64c0-5.891,4.776-10.667,10.667-10.667H96
	c5.891,0,10.667,4.776,10.667,10.667v234.667c0,17.673,14.327,32,32,32l0,0H192V64c0-5.891,4.776-10.667,10.667-10.667H288
	c5.891,0,10.667,4.776,10.667,10.667v266.667H384V64c0-5.891,4.776-10.667,10.667-10.667H480c5.891,0,10.667,4.776,10.667,10.667
	v362.667C490.667,432.558,485.891,437.333,480,437.333z M21.333,74.667v224C21.416,363.434,73.899,415.918,138.667,416h330.667
	V74.667h-64v266.667c0,5.891-4.776,10.667-10.667,10.667H288c-5.891,0-10.667-4.776-10.667-10.667V74.667h-64v266.667
	c0,5.891-4.776,10.667-10.667,10.667h-64c-29.455,0-53.333-23.878-53.333-53.333v-224H21.333z"/>
<g>
</g>
<g>
</g>
<g>
</g>
<g>
</g>
<g>
</g>
<g>
</g>
<g>
</g>
<g>
</g>
<g>
</g>
<g>
</g>
<g>
</g>
<g>
</g>
<g>
</g>
<g>
</g>
<g>
</g>
</svg>
