<?xml version="1.0" encoding="iso-8859-1"?>
<!-- Generator: Adobe Illustrator 19.0.0, SVG Export Plug-In . SVG Version: 6.00 Build 0)  -->
<svg version="1.1" id="Capa_1" xmlns="http://www.w3.org/2000/svg" xmlns:xlink="http://www.w3.org/1999/xlink" x="0px" y="0px"
	 viewBox="0 0 512.198 512.198" style="enable-background:new 0 0 512.198 512.198;" xml:space="preserve">
<path style="fill:#26A69A;" d="M475.448,236.742c-2.88-2.045-6.604-2.479-9.877-1.152c-45.035,17.387-80.683,5.312-115.755-39.317
	c-18.434-27.846-22.641-62.759-11.349-94.187c3.807-10.083,13.522-16.702,24.299-16.555c9.854-0.388,19.228,4.267,24.875,12.352
	c12.913,24.802,15.646,53.663,7.616,80.448c-1.146,3.657-0.242,7.647,2.368,10.453c16.461,15.771,38.344,24.629,61.141,24.747
	c5.062-0.009,9.42-3.574,10.432-8.533c17.067-80.405,12.032-138.219-15.189-171.84c-20.4-22.737-50.089-34.882-80.576-32.96
	c-30.037,0-128,10.005-128,138.667c-1.119,67.327,34.029,130.062,92.032,164.267c-38.165,66.795-79.445,122.517-92.032,123.733
	c-28.779,0-128-238.613-128-330.667c0-5.891-4.776-10.667-10.667-10.667h-64c-5.891,0-10.667,4.776-10.667,10.667
	c0,55.787,80.789,416,213.333,416c64.171,0,147.755-155.371,166.592-192c21.106,0.14,42.042-3.771,61.675-11.52
	c3.9-1.702,6.415-5.559,6.4-9.813v-53.333C480.093,242.014,478.353,238.726,475.448,236.742z"/>
<path d="M245.432,512.198c-132.544,0-213.333-360.213-213.333-416c0-5.891,4.776-10.667,10.667-10.667h64
	c5.891,0,10.667,4.776,10.667,10.667c0,92.053,99.2,330.667,128,330.667c12.587-1.216,53.867-56.939,92.011-123.733
	c-57.994-34.21-93.134-96.944-92.011-164.267c0-128.661,97.984-138.667,128-138.667c30.504-1.888,60.192,10.295,80.576,33.067
	c27.2,33.621,32.341,91.435,15.189,171.84c-1.012,4.959-5.37,8.524-10.432,8.533c-22.791-0.125-44.67-8.973-61.141-24.725
	c-2.602-2.81-3.498-6.8-2.347-10.453c8.02-26.786,5.289-55.643-7.616-80.448c-5.618-8.144-15.009-12.851-24.896-12.48
	c-10.785-0.156-20.51,6.464-24.32,16.555c-11.295,31.43-7.08,66.348,11.371,94.187c35.051,44.651,70.805,56.747,115.755,39.317
	c3.275-1.311,6.991-0.878,9.877,1.152c2.905,1.984,4.644,5.272,4.651,8.789v53.333c0.015,4.255-2.5,8.111-6.4,9.813
	c-19.632,7.748-40.569,11.659-61.675,11.52C393.187,356.827,309.603,512.198,245.432,512.198z M54.008,106.865
	c7.595,81.92,89.024,384,191.424,384c41.813,0,114.475-114.155,150.464-186.112c1.808-3.609,5.499-5.888,9.536-5.888
	c18.059,0.498,36.076-1.974,53.333-7.317v-31.275c-47.488,13.035-88.725-3.776-125.739-50.837
	c-23.746-34.174-28.913-77.928-13.781-116.693c7.419-17.423,24.583-28.681,43.52-28.544c16.646-0.386,32.402,7.5,42.069,21.056
	c16.203,28.101,20.723,61.442,12.587,92.843c9.632,7.173,20.916,11.803,32.811,13.461c13.525-68.949,9.237-117.675-12.8-144.875
	c-16.285-17.846-39.922-27.136-64-25.152c-39.829,0-106.667,15.253-106.667,117.333c-1.869,63.234,33.074,121.823,89.6,150.229
	c5.392,2.372,7.84,8.667,5.468,14.059c-0.131,0.298-0.276,0.59-0.433,0.874c-24.235,43.371-83.84,144.171-115.968,144.171
	c-53.547,0-141.44-253.867-148.843-341.333H54.008z"/>
<g>
</g>
<g>
</g>
<g>
</g>
<g>
</g>
<g>
</g>
<g>
</g>
<g>
</g>
<g>
</g>
<g>
</g>
<g>
</g>
<g>
</g>
<g>
</g>
<g>
</g>
<g>
</g>
<g>
</g>
</svg>
