<?xml version="1.0" encoding="iso-8859-1"?>
<!-- Generator: Adobe Illustrator 19.0.0, SVG Export Plug-In . SVG Version: 6.00 Build 0)  -->
<svg version="1.1" id="Capa_1" xmlns="http://www.w3.org/2000/svg" xmlns:xlink="http://www.w3.org/1999/xlink" x="0px" y="0px"
	 viewBox="0 0 512.008 512.008" style="enable-background:new 0 0 512.008 512.008;" xml:space="preserve">
<path style="fill:#2196F3;" d="M405.341,21.337c-78.933,0-128,23.189-128,138.667c0,5.891,4.776,10.667,10.667,10.667h32
	c19.2,0,20.608,9.109,21.333,13.483c5.056,35.157-50.88,110.528-64,114.517c-14.741,0-27.456-73.024-35.029-116.651
	c-14.357-82.624-27.925-160.683-71.637-160.683c-29.632,0-91.733,40.341-168.832,154.005c-3.309,4.874-2.04,11.508,2.834,14.816
	c0.39,0.265,0.797,0.503,1.219,0.714l42.667,21.333c4.107,2.05,9.065,1.242,12.309-2.005l27.349-27.328
	c10.859,77.099,51.307,307.797,146.453,307.797c108.8,0,277.333-233.856,277.333-352C512.008,66.287,471.133,21.337,405.341,21.337z
	"/>
<path d="M234.674,490.671c-95.147,0-135.573-230.677-146.453-307.797l-27.328,27.349c-3.244,3.247-8.202,4.055-12.309,2.005
	L5.917,190.895c-5.272-2.63-7.413-9.035-4.784-14.306c0.215-0.431,0.459-0.847,0.731-1.246
	C78.941,61.679,141.021,21.337,170.674,21.337c43.712,0,57.28,78.059,71.637,160.683c7.595,43.627,20.288,116.651,35.029,116.651
	c13.013-3.989,68.949-79.381,64-114.517c-0.725-4.373-2.133-13.483-21.333-13.483h-32c-5.891,0-10.667-4.776-10.667-10.667
	c0-115.477,49.067-138.667,128-138.667c65.792,0,106.667,44.949,106.667,117.333C512.008,256.815,343.474,490.671,234.674,490.671z
	 M96.008,149.337c5.44-0.037,10.036,4.026,10.667,9.429c10.027,86.379,52.693,310.571,128,310.571c83.712,0,256-204.245,256-330.667
	c0-28.864-8.32-96-85.333-96c-58.389,0-103.531,8.064-106.496,106.667h21.163c11.822-0.781,23.468,3.181,32.363,11.008
	c7.242,7.549,11.041,17.756,10.496,28.203c0,46.571-59.925,131.456-85.525,131.456c-32.704,0-43.008-59.264-56.043-134.4
	c-10.496-60.267-24.853-142.933-50.624-142.933c-20.608,0-75.413,36.075-144.256,134.613L51.208,189.7l37.248-37.248
	C90.46,150.453,93.177,149.332,96.008,149.337z"/>
<g>
</g>
<g>
</g>
<g>
</g>
<g>
</g>
<g>
</g>
<g>
</g>
<g>
</g>
<g>
</g>
<g>
</g>
<g>
</g>
<g>
</g>
<g>
</g>
<g>
</g>
<g>
</g>
<g>
</g>
</svg>
