<?xml version="1.0" encoding="iso-8859-1"?>
<!-- Generator: Adobe Illustrator 19.0.0, SVG Export Plug-In . SVG Version: 6.00 Build 0)  -->
<svg version="1.1" id="Capa_1" xmlns="http://www.w3.org/2000/svg" xmlns:xlink="http://www.w3.org/1999/xlink" x="0px" y="0px"
	 viewBox="0 0 512.018 512.018" style="enable-background:new 0 0 512.018 512.018;" xml:space="preserve">
<path style="fill:#03A9F4;" d="M379.734,341.351h-166.4v-85.333h166.4c46.345,0.596,85.328-34.603,89.451-80.768
	c2.521-47.061-33.585-87.255-80.646-89.776c-1.511-0.081-3.025-0.122-4.538-0.122H213.334
	c-1.473-44.756-36.156-81.353-80.768-85.227C85.505-2.397,45.311,33.709,42.789,80.77c-0.082,1.526-0.122,3.053-0.122,4.581v266.667
	c0.094,88.327,71.673,159.906,160,160h181.333c47.128,0.009,85.34-38.189,85.349-85.318c0-1.528-0.04-3.055-0.122-4.581
	C465.104,375.938,426.095,340.732,379.734,341.351z"/>
<path d="M384.001,512.018H202.667c-88.327-0.094-159.906-71.673-160-160V85.351C42.67,38.223,80.878,0.02,128.006,0.024
	c1.521,0,3.041,0.041,4.56,0.122c44.6,3.882,79.275,40.462,80.768,85.205h170.667c47.128-0.009,85.341,38.188,85.35,85.317
	c0,1.535-0.041,3.07-0.123,4.603c-4.134,46.173-43.14,81.366-89.493,80.747h-166.4v85.333h166.4
	c46.337-0.597,85.318,34.59,89.451,80.747c2.533,47.06-33.563,87.264-80.623,89.797
	C387.042,511.976,385.522,512.017,384.001,512.018z M128.001,21.351c-35.346,0-64,28.654-64,64v266.667
	c0.094,76.545,62.122,138.573,138.667,138.667h181.333c35.346,0.052,64.042-28.56,64.093-63.907
	c0.002-1.184-0.029-2.367-0.093-3.549c-3.417-34.93-33.178-61.325-68.267-60.544H202.667c-5.891,0-10.667-4.776-10.667-10.667
	V245.351c0-5.891,4.776-10.667,10.667-10.667h177.067c35.089,0.781,64.849-25.614,68.267-60.544
	c1.909-35.295-25.156-65.454-60.451-67.363c-1.182-0.064-2.366-0.095-3.549-0.093H202.667c-5.891,0-10.667-4.776-10.667-10.667v-6.4
	c0.77-35.085-25.619-64.839-60.544-68.267C130.305,21.351,129.131,21.351,128.001,21.351z"/>
<g>
</g>
<g>
</g>
<g>
</g>
<g>
</g>
<g>
</g>
<g>
</g>
<g>
</g>
<g>
</g>
<g>
</g>
<g>
</g>
<g>
</g>
<g>
</g>
<g>
</g>
<g>
</g>
<g>
</g>
</svg>
