<?xml version="1.0" encoding="iso-8859-1"?>
<!-- Generator: Adobe Illustrator 19.0.0, SVG Export Plug-In . SVG Version: 6.00 Build 0)  -->
<svg version="1.1" id="Capa_1" xmlns="http://www.w3.org/2000/svg" xmlns:xlink="http://www.w3.org/1999/xlink" x="0px" y="0px"
	 viewBox="0 0 512 512" style="enable-background:new 0 0 512 512;" xml:space="preserve">
<path style="fill:#0D47A1;" d="M309.333,0H202.667C90.791,0.129,0.129,90.791,0,202.667v106.667
	C0.129,421.209,90.791,511.871,202.667,512h256C488.122,512,512,488.122,512,458.667v-256C511.871,90.791,421.209,0.129,309.333,0z"
	/>
<g>
	<circle style="fill:#FAFAFA;" cx="202.667" cy="181.333" r="32"/>
	<path style="fill:#FAFAFA;" d="M216.981,270.037c-15.809-7.9-35.029-1.489-42.929,14.32c-0.07,0.14-0.139,0.28-0.207,0.421
		l-42.453,95.552c-7.918,15.8-1.528,35.027,14.273,42.945c4.411,2.21,9.273,3.371,14.207,3.391
		c12.307-0.046,23.525-7.064,28.949-18.112l42.453-95.552c7.908-15.805,1.506-35.028-14.299-42.936
		c-0.005-0.003-0.01-0.005-0.015-0.008L216.981,270.037z"/>
	<path style="fill:#FAFAFA;" d="M337.664,122.837c-8.649-14.479-26.852-20.064-42.133-12.928
		c-8.359,4.269-14.549,11.843-17.067,20.885c-2.246,7.843-0.994,16.274,3.435,23.125C304.006,183.654,317.218,219.053,320,256
		c-2.796,36.961-16.031,72.368-38.165,102.101c-4.428,6.852-5.681,15.282-3.435,23.125c2.518,9.042,8.707,16.617,17.067,20.885
		c4.219,2.139,8.881,3.257,13.611,3.264c11.591-0.401,22.248-6.46,28.523-16.213C364.489,349.619,380.493,303.691,384,256
		C380.512,208.315,364.531,162.388,337.664,122.837z"/>
</g>
<path d="M458.667,512h-256C90.791,511.871,0.129,421.209,0,309.333V202.667C0.129,90.791,90.791,0.129,202.667,0h106.667
	C421.209,0.129,511.871,90.791,512,202.667v256C512,488.122,488.122,512,458.667,512z M202.667,21.333
	C102.568,21.451,21.451,102.568,21.333,202.667v106.667c0.118,100.099,81.234,181.216,181.333,181.333h256c17.673,0,32-14.327,32-32
	v-256c-0.118-100.099-81.234-181.216-181.333-181.333H202.667z"/>
<path d="M202.667,213.333c-17.673,0-32-14.327-32-32s14.327-32,32-32s32,14.327,32,32S220.34,213.333,202.667,213.333z
	 M202.667,170.667c-5.891,0-10.667,4.776-10.667,10.667c0,5.891,4.776,10.667,10.667,10.667s10.667-4.776,10.667-10.667
	C213.333,175.442,208.558,170.667,202.667,170.667z"/>
<path d="M159.872,426.667c-17.673-0.071-31.942-14.456-31.871-32.129c0.02-4.918,1.173-9.765,3.369-14.165l42.453-95.552
	c7.507-16,26.562-22.885,42.562-15.378s22.885,26.562,15.378,42.562c-0.157,0.335-0.32,0.668-0.489,0.997l-42.432,95.531
	C183.421,419.596,172.192,426.625,159.872,426.667z M202.667,288c-4.037,0-7.728,2.279-9.536,5.888l-42.453,95.552
	c-1.405,2.621-1.69,5.699-0.789,8.533c0.896,2.684,2.823,4.902,5.355,6.165c2.526,1.29,5.467,1.497,8.149,0.576
	c2.684-0.896,4.902-2.823,6.165-5.355l42.453-95.552c1.405-2.621,1.69-5.699,0.789-8.533
	C211.34,290.922,207.258,287.991,202.667,288z"/>
<path d="M309.141,405.333c-4.73-0.007-9.392-1.125-13.611-3.264c-8.359-4.269-14.549-11.843-17.067-20.885
	c-2.246-7.843-0.994-16.274,3.435-23.125C304.002,328.331,317.214,292.94,320,256c-2.796-36.961-16.031-72.368-38.165-102.101
	c-4.428-6.852-5.681-15.282-3.435-23.125c2.518-9.042,8.707-16.617,17.067-20.885c15.281-7.136,33.484-1.551,42.133,12.928l0,0
	c26.893,39.55,42.896,85.485,46.4,133.184c-3.488,47.685-19.469,93.612-46.336,133.163
	C331.38,398.9,320.724,404.941,309.141,405.333z M309.141,128c-1.38,0.001-2.74,0.33-3.968,0.96
	c-2.959,1.52-5.165,4.189-6.101,7.381c-0.613,1.969-0.349,4.107,0.725,5.867c24.426,33.187,38.84,72.674,41.536,113.792
	c-2.725,41.12-17.168,80.599-41.621,113.771c-1.074,1.76-1.339,3.898-0.725,5.867c0.936,3.193,3.142,5.861,6.101,7.381
	c5.867,2.944,11.84-1.451,15.125-6.144c24.575-35.837,39.223-77.542,42.453-120.875c-3.231-43.333-17.878-85.038-42.453-120.875l0,0
	c-2.41-3.989-6.545-6.625-11.179-7.125H309.141z"/>
<g>
</g>
<g>
</g>
<g>
</g>
<g>
</g>
<g>
</g>
<g>
</g>
<g>
</g>
<g>
</g>
<g>
</g>
<g>
</g>
<g>
</g>
<g>
</g>
<g>
</g>
<g>
</g>
<g>
</g>
</svg>
