<?xml version="1.0" encoding="iso-8859-1"?>
<!-- Generator: Adobe Illustrator 19.0.0, SVG Export Plug-In . SVG Version: 6.00 Build 0)  -->
<svg version="1.1" id="Capa_1" xmlns="http://www.w3.org/2000/svg" xmlns:xlink="http://www.w3.org/1999/xlink" x="0px" y="0px"
	 viewBox="0 0 512.282 512.282" style="enable-background:new 0 0 512.282 512.282;" xml:space="preserve">
<path style="fill:#FFC107;" d="M245.475,256.141c-41.877,0-74.667,23.467-74.667,53.333c0,29.867,32.789,53.333,74.667,53.333
	s74.667-23.467,74.667-53.333C320.141,279.608,287.352,256.141,245.475,256.141z"/>
<g>
	<path style="fill:#2196F3;" d="M480.141,277.475c-13.512,0.056-25.533,8.594-30.037,21.333h-97.963
		c-5.891,0-10.667,4.776-10.667,10.667c0,5.891,4.776,10.667,10.667,10.667h97.963c5.891,16.662,24.174,25.394,40.837,19.503
		c16.662-5.891,25.394-24.174,19.503-40.837C505.907,285.976,493.751,277.418,480.141,277.475z"/>
	<path style="fill:#2196F3;" d="M138.808,320.141c5.891,0,10.667-4.776,10.667-10.667c0-5.891-4.776-10.667-10.667-10.667H62.179
		c-5.891-16.662-24.174-25.394-40.837-19.503C4.68,285.196-4.052,303.479,1.839,320.141c5.891,16.662,24.174,25.394,40.837,19.503
		c9.113-3.222,16.281-10.39,19.503-19.503H138.808z"/>
	<path style="fill:#2196F3;" d="M245.475,85.475c-29.455,0.028-53.311,23.929-53.282,53.384
		c0.024,25.305,17.827,47.109,42.616,52.194v33.088c0,5.891,4.776,10.667,10.667,10.667c5.891,0,10.667-4.776,10.667-10.667v-33.088
		c28.854-5.919,47.447-34.109,41.528-62.963C292.584,103.302,270.78,85.499,245.475,85.475z"/>
	<path style="fill:#2196F3;" d="M155.363,353.272l-21.333,10.667c-4.862,2.517-7.028,8.307-5.013,13.397
		c-3.375-2.411-7.395-3.756-11.541-3.861c-11.782,0-21.333,9.551-21.333,21.333c0,11.782,9.551,21.333,21.333,21.333
		s21.333-9.551,21.333-21.333c-0.105-4.252-1.512-8.37-4.032-11.797c2.741,1.519,6.07,1.519,8.811,0l21.333-10.667
		c5.272-2.633,7.412-9.042,4.779-14.315c-2.633-5.272-9.042-7.412-14.315-4.779L155.363,353.272z"/>
	<path style="fill:#2196F3;" d="M330.808,266.808c2,0.007,3.961-0.555,5.653-1.621l85.333-53.333
		c0.663-0.488,1.265-1.053,1.792-1.685c4.316,2.147,9.067,3.278,13.888,3.307c17.673,0,32-14.327,32-32s-14.327-32-32-32
		s-32,14.327-32,32c0.021,4.674,1.078,9.286,3.093,13.504l-83.413,52.117c-4.996,3.122-6.514,9.703-3.392,14.699
		C323.712,264.913,327.13,266.808,330.808,266.808L330.808,266.808z"/>
	<path style="fill:#2196F3;" d="M341.475,373.475c0.005-2.831-1.115-5.548-3.115-7.552l-10.667-10.667
		c-4.237-4.093-10.99-3.975-15.083,0.262c-3.993,4.134-3.993,10.687,0,14.821l10.667,10.667c1.996,2.002,4.704,3.13,7.531,3.136
		c0,5.891,4.776,10.667,10.667,10.667c5.891,0,10.667-4.776,10.667-10.667C352.141,378.25,347.366,373.475,341.475,373.475z"/>
	<path style="fill:#2196F3;" d="M105.891,196.643c0.475-1.461,0.782-2.971,0.917-4.501c0-11.782-9.551-21.333-21.333-21.333
		s-21.333,9.551-21.333,21.333c0,11.782,9.551,21.333,21.333,21.333c1.921-0.112,3.817-0.493,5.632-1.131l73.493,52.501
		c4.795,3.429,11.462,2.321,14.891-2.475c3.429-4.795,2.321-11.462-2.475-14.891L105.891,196.643z"/>
</g>
<path d="M32.141,341.475c-17.673,0-32-14.327-32-32c0-17.673,14.327-32,32-32s32,14.327,32,32
	C64.141,327.148,49.814,341.475,32.141,341.475L32.141,341.475z M32.141,298.808c-5.891,0-10.667,4.776-10.667,10.667
	c0,5.891,4.776,10.667,10.667,10.667s10.667-4.776,10.667-10.667C42.808,303.584,38.032,298.808,32.141,298.808z"/>
<path d="M117.475,426.808c-17.673,0-32-14.327-32-32s14.327-32,32-32s32,14.327,32,32S135.148,426.808,117.475,426.808z
	 M117.475,384.141c-5.891,0-10.667,4.776-10.667,10.667c0,5.891,4.776,10.667,10.667,10.667c5.891,0,10.667-4.776,10.667-10.667
	C128.141,388.917,123.366,384.141,117.475,384.141z"/>
<path d="M437.475,213.475c-17.673,0-32-14.327-32-32s14.327-32,32-32s32,14.327,32,32S455.148,213.475,437.475,213.475z
	 M437.475,170.808c-5.891,0-10.667,4.776-10.667,10.667c0,5.891,4.776,10.667,10.667,10.667c5.891,0,10.667-4.776,10.667-10.667
	C448.141,175.584,443.366,170.808,437.475,170.808z"/>
<path d="M480.141,341.475c-17.673,0-32-14.327-32-32c0-17.673,14.327-32,32-32s32,14.327,32,32
	C512.141,327.148,497.814,341.475,480.141,341.475L480.141,341.475z M480.141,298.808c-5.891,0-10.667,4.776-10.667,10.667
	c0,5.891,4.776,10.667,10.667,10.667c5.891,0,10.667-4.776,10.667-10.667C490.808,303.584,486.032,298.808,480.141,298.808z"/>
<path d="M138.808,320.141H53.475c-5.891,0-10.667-4.776-10.667-10.667c0-5.891,4.776-10.667,10.667-10.667h85.333
	c5.891,0,10.667,4.776,10.667,10.667C149.475,315.366,144.699,320.141,138.808,320.141z"/>
<path d="M458.808,320.141H352.141c-5.891,0-10.667-4.776-10.667-10.667c0-5.891,4.776-10.667,10.667-10.667h106.667
	c5.891,0,10.667,4.776,10.667,10.667C469.475,315.366,464.699,320.141,458.808,320.141z"/>
<path d="M245.475,362.808c-41.877,0-74.667-23.467-74.667-53.333c0-29.867,32.789-53.333,74.667-53.333s74.667,23.467,74.667,53.333
	C320.141,339.341,287.352,362.808,245.475,362.808z M245.475,277.475c-28.907,0-53.333,14.656-53.333,32s24.427,32,53.333,32
	s53.333-14.656,53.333-32S274.381,277.475,245.475,277.475z"/>
<path d="M245.475,192.141c-29.455,0-53.333-23.878-53.333-53.333s23.878-53.333,53.333-53.333s53.333,23.878,53.333,53.333
	S274.93,192.141,245.475,192.141z M245.475,106.808c-17.673,0-32,14.327-32,32s14.327,32,32,32s32-14.327,32-32
	S263.148,106.808,245.475,106.808z"/>
<path d="M245.475,234.808c-5.891,0-10.667-4.776-10.667-10.667v-42.667c0-5.891,4.776-10.667,10.667-10.667
	c5.891,0,10.667,4.776,10.667,10.667v42.667C256.141,230.032,251.366,234.808,245.475,234.808z"/>
<path d="M138.808,384.141c-5.891,0-10.666-4.776-10.666-10.667c0-4.036,2.279-7.727,5.887-9.535l21.333-10.667
	c5.272-2.633,11.681-0.494,14.315,4.779c2.633,5.272,0.494,11.681-4.779,14.315l-21.333,10.667
	C142.087,383.765,140.458,384.144,138.808,384.141z"/>
<path d="M330.808,266.808c-5.891,0-10.667-4.776-10.667-10.667c0-3.678,1.895-7.096,5.013-9.045l85.333-53.333
	c5.097-2.954,11.623-1.217,14.577,3.88c2.819,4.864,1.379,11.081-3.292,14.21l-85.333,53.333
	C334.754,266.249,332.801,266.811,330.808,266.808z"/>
<path d="M341.475,405.475c-11.782,0-21.333-9.551-21.333-21.333s9.551-21.333,21.333-21.333s21.333,9.551,21.333,21.333
	S353.257,405.475,341.475,405.475z"/>
<path d="M330.808,384.141c-2.831,0.005-5.548-1.115-7.552-3.115l-10.667-10.667c-4.093-4.237-3.975-10.99,0.262-15.083
	c4.134-3.993,10.687-3.993,14.821,0l10.667,10.667c4.159,4.172,4.149,10.926-0.024,15.085
	C336.321,383.016,333.623,384.135,330.808,384.141z"/>
<path d="M85.475,213.475c-11.782,0-21.333-9.551-21.333-21.333c0-11.782,9.551-21.333,21.333-21.333s21.333,9.551,21.333,21.333
	C106.808,203.923,97.257,213.475,85.475,213.475z"/>
<path d="M170.808,266.808c-2.226,0.003-4.396-0.691-6.208-1.984l-74.667-53.333c-4.795-3.429-5.903-10.095-2.475-14.891
	c3.429-4.795,10.095-5.903,14.891-2.475l0,0l74.667,53.333c4.795,3.422,5.909,10.083,2.487,14.879
	C177.498,265.146,174.259,266.812,170.808,266.808z"/>
<g>
</g>
<g>
</g>
<g>
</g>
<g>
</g>
<g>
</g>
<g>
</g>
<g>
</g>
<g>
</g>
<g>
</g>
<g>
</g>
<g>
</g>
<g>
</g>
<g>
</g>
<g>
</g>
<g>
</g>
</svg>
