<?xml version="1.0" encoding="iso-8859-1"?>
<!-- Generator: Adobe Illustrator 19.0.0, SVG Export Plug-In . SVG Version: 6.00 Build 0)  -->
<svg version="1.1" id="Capa_1" xmlns="http://www.w3.org/2000/svg" xmlns:xlink="http://www.w3.org/1999/xlink" x="0px" y="0px"
	 viewBox="0 0 511.986 511.986" style="enable-background:new 0 0 511.986 511.986;" xml:space="preserve">
<path style="fill:#4CAF50;" d="M465.06,109.725l-37.973-21.333c-17.067,3.392-35.221,28.117-47.573,45.269
	c-3.115,4.267-5.973,8.277-8.533,11.541c-16.657,19.114-27.012,42.902-29.653,68.117c6.902,28.431,21.579,54.38,42.389,74.944
	c14.558,14.59,14.558,38.21,0,52.8c-14.756,14.149-38.044,14.149-52.8,0c-11.705-11.73-14.156-29.824-5.995-44.245
	c-6.677-14.187-12.8-19.477-15.616-19.477c-13.058,21.507-23.357,44.572-30.656,68.651c-2.389,6.571-4.608,12.608-6.592,17.685
	c3.452,6.213,5.266,13.202,5.269,20.309c0.15,23.564-18.83,42.788-42.393,42.938c-23.564,0.15-42.788-18.83-42.938-42.393
	c-0.085-13.336,6.071-25.945,16.638-34.081c11.762-26.166,21.518-53.188,29.184-80.832c-14.933,9.515-34.133,21.589-48.619,30.421
	c-4.753,11.985-16.312,19.88-29.205,19.947c-17.673,0-32-14.327-32-32s14.327-32,32-32c12.8,0,33.024-16.576,49.579-32.341
	c-8.427,0.512-17.323,0.533-26.304,0.491c-5.903,6.665-14.371,10.492-23.275,10.517c-17.673,0-32-14.327-32-32s14.327-32,32-32
	c46.072,9.216,93.172-10.129,119.467-49.067c21.83-26.974,35.322-59.727,38.827-94.251L281.294,6.599
	c-15.727-8.771-34.875-8.771-50.603,0L46.926,109.746c-15.694,8.682-25.482,25.158-25.6,43.093v206.293
	c0.124,17.939,9.909,34.419,25.6,43.115l183.829,103.125c15.73,8.763,34.873,8.763,50.603,0L465.06,402.226
	c15.694-8.682,25.482-25.158,25.6-43.093V152.839C490.536,134.9,480.751,118.421,465.06,109.725z"/>
<path d="M255.993,511.986c-8.867,0.014-17.588-2.257-25.323-6.592L46.926,402.247c-15.694-8.693-25.481-25.174-25.6-43.115V152.839
	c0.118-17.935,9.906-34.411,25.6-43.093L230.67,6.578c15.735-8.771,34.889-8.771,50.624,0l39.253,21.995
	c1.489,0.829,2.761,1.999,3.712,3.413c14.315,21.483,3.712,60.736-27.733,102.4c-30.831,44.727-85.043,67.194-138.475,57.387
	c-5.147,1.056-8.812,5.627-8.725,10.88c0,5.891,4.776,10.667,10.667,10.667c3.698-0.127,7.058-2.184,8.853-5.419
	c2.093-3.136,5.556-5.086,9.323-5.248c14.187,0.192,51.2,0.832,59.627-7.616c4.092-4.237,10.845-4.355,15.083-0.262
	c4.237,4.092,4.355,10.845,0.262,15.083c-0.086,0.089-0.173,0.176-0.262,0.262l-7.253,7.488
	c-27.733,28.928-59.499,59.712-85.632,59.712c-5.891,0-10.667,4.776-10.667,10.667s4.776,10.667,10.667,10.667
	c4.844-0.094,8.982-3.516,9.984-8.256c0.679-2.803,2.465-5.212,4.949-6.677c27.264-16.427,75.371-47.445,75.371-47.445
	c4.951-3.192,11.553-1.767,14.745,3.184c1.646,2.552,2.125,5.685,1.319,8.613c-10.325,39.368-23.816,77.836-40.341,115.029
	c-0.8,1.33-1.877,2.472-3.157,3.349c-9.816,6.516-12.491,19.756-5.975,29.572c6.516,9.816,19.756,12.491,29.572,5.975
	c6.025-4,9.614-10.78,9.533-18.011c0.035-4.621-1.466-9.124-4.267-12.8c-2.297-3.02-2.817-7.033-1.365-10.539
	c2.347-5.675,5.163-13.419,8.341-22.08c18.624-51.349,31.424-82.581,50.624-82.581c14.528,0,27.157,12.8,37.611,37.781
	c1.515,3.647,0.892,7.833-1.621,10.88c-5.316,6.224-5.011,15.474,0.704,21.333c6.332,6.049,16.302,6.049,22.635,0
	c6.25-6.246,6.254-16.377,0.007-22.627c-0.002-0.002-0.005-0.005-0.007-0.007c-19.883-19.883-48.661-63.381-48.661-90.027
	c2.521-30.026,14.519-58.474,34.261-81.237l3.541-4.587c14.933-19.413,33.365-43.648,67.2-39.381
	c1.379,0.171,2.711,0.605,3.925,1.28l36.267,20.309l0,0c15.658,8.723,25.395,25.212,25.472,43.136v206.293
	c-0.11,17.943-9.899,34.429-25.6,43.115L281.23,505.415C273.516,509.721,264.828,511.983,255.993,511.986z M255.993,21.319
	c-5.227-0.016-10.37,1.314-14.933,3.861L57.316,128.349c-8.951,4.917-14.553,14.279-14.656,24.491v206.293
	c0.104,10.217,5.705,19.585,14.656,24.512L241.06,486.77c9.236,5.151,20.481,5.151,29.717,0l183.829-103.168
	c8.969-4.896,14.597-14.252,14.72-24.469V152.839c-0.103-10.212-5.705-19.574-14.656-24.491l-34.24-19.2
	c-20.587-1.451-32.704,14.507-45.739,31.403l-3.648,4.715c-16.655,19.097-27.03,42.857-29.717,68.053
	c6.902,28.431,21.579,54.38,42.389,74.944c14.58,14.562,14.595,38.187,0.033,52.767c-0.011,0.011-0.022,0.022-0.033,0.033
	c-14.594,14.546-38.206,14.546-52.8,0c-11.698-11.735-14.14-29.828-5.973-44.245c-6.677-14.187-12.8-19.477-15.616-19.477
	c-13.05,21.511-23.349,44.575-30.656,68.651c-2.389,6.571-4.608,12.608-6.592,17.685c3.454,6.211,5.26,13.203,5.248,20.309
	c0.15,23.564-18.83,42.788-42.393,42.938c-23.564,0.15-42.788-18.83-42.938-42.393c-0.085-13.336,6.071-25.945,16.638-34.081
	c11.762-26.166,21.518-53.188,29.184-80.832c-14.933,9.515-34.133,21.589-48.597,30.421c-4.766,11.985-16.329,19.877-29.227,19.947
	c-17.673,0-32-14.327-32-32s14.327-32,32-32c12.8,0,33.045-16.576,49.579-32.341c-8.405,0.512-17.28,0.597-26.304,0.491
	c-5.901,6.667-14.371,10.494-23.275,10.517c-17.673,0-32-14.327-32-32s14.327-32,32-32c46.072,9.222,93.176-10.124,119.467-49.067
	c28.757-38.165,32.555-65.237,28.011-75.84l-36.544-20.544C266.366,22.643,261.222,21.306,255.993,21.319z"/>
<g>
</g>
<g>
</g>
<g>
</g>
<g>
</g>
<g>
</g>
<g>
</g>
<g>
</g>
<g>
</g>
<g>
</g>
<g>
</g>
<g>
</g>
<g>
</g>
<g>
</g>
<g>
</g>
<g>
</g>
</svg>
