<?xml version="1.0" encoding="iso-8859-1"?>
<!-- Generator: Adobe Illustrator 19.0.0, SVG Export Plug-In . SVG Version: 6.00 Build 0)  -->
<svg version="1.1" id="Capa_1" xmlns="http://www.w3.org/2000/svg" xmlns:xlink="http://www.w3.org/1999/xlink" x="0px" y="0px"
	 viewBox="0 0 512 512" style="enable-background:new 0 0 512 512;" xml:space="preserve">
<path style="fill:#2196F3;" d="M256,0C114.615,0,0,114.615,0,256s114.615,256,256,256s256-114.615,256-256
	C511.847,114.678,397.322,0.153,256,0z"/>
<path style="fill:#FAFAFA;" d="M464.043,246.784l-128-74.667c-5.083-2.978-11.617-1.272-14.596,3.81
	c-1.824,3.113-1.951,6.936-0.338,10.163l13.632,27.243H177.259l13.632-27.221c2.635-5.269,0.499-11.676-4.77-14.311
	c-3.227-1.613-7.05-1.486-10.163,0.338l-128,74.667c-5.084,2.976-6.793,9.51-3.816,14.594c0.924,1.578,2.238,2.893,3.816,3.816
	l128,74.667c5.083,2.978,11.617,1.272,14.596-3.81c1.824-3.113,1.951-6.936,0.338-10.163l-13.632-27.243h157.504l-13.632,27.221
	c-2.639,5.267-0.509,11.676,4.758,14.315c1.483,0.743,3.119,1.13,4.778,1.13c1.889,0.001,3.744-0.5,5.376-1.451l128-74.667
	c5.084-2.976,6.793-9.51,3.816-14.594c-0.924-1.578-2.238-2.893-3.816-3.816L464.043,246.784z"/>
<path d="M256,512C114.615,512,0,397.385,0,256S114.615,0,256,0s256,114.615,256,256C511.847,397.322,397.322,511.847,256,512z
	 M256,21.333C126.397,21.333,21.333,126.397,21.333,256S126.397,490.667,256,490.667S490.667,385.603,490.667,256
	C490.526,126.456,385.544,21.474,256,21.333z"/>
<path d="M330.667,341.333c-5.891,0-10.667-4.776-10.666-10.667c0-1.659,0.387-3.295,1.13-4.778l13.611-27.221H177.259l13.611,27.221
	c2.635,5.269,0.499,11.676-4.77,14.311c-3.227,1.613-7.05,1.486-10.163-0.338l-128-74.667c-5.084-2.976-6.793-9.51-3.816-14.594
	c0.924-1.578,2.238-2.893,3.816-3.816l128-74.667c5.083-2.978,11.617-1.272,14.596,3.81c1.824,3.113,1.951,6.936,0.338,10.163
	l-13.611,27.243h157.483l-13.611-27.221c-2.635-5.269-0.499-11.676,4.77-14.311c3.227-1.613,7.05-1.486,10.163,0.338l128,74.667
	c5.084,2.976,6.793,9.51,3.816,14.594c-0.924,1.578-2.238,2.893-3.816,3.816l-128,74.667
	C334.426,340.837,332.563,341.338,330.667,341.333z M160,277.333h192c5.891,0,10.667,4.776,10.666,10.667
	c0,1.659-0.387,3.295-1.13,4.778l-5.333,10.667L437.504,256l-81.237-47.424l5.333,10.667c2.627,5.273,0.483,11.677-4.79,14.304
	c-1.494,0.744-3.141,1.128-4.811,1.12H160c-5.891,0-10.667-4.776-10.666-10.667c0-1.659,0.387-3.295,1.13-4.778l5.333-10.667
	L74.496,256l81.237,47.424l-5.333-10.667c-2.627-5.273-0.483-11.677,4.79-14.304C156.683,277.708,158.331,277.325,160,277.333z"/>
<g>
</g>
<g>
</g>
<g>
</g>
<g>
</g>
<g>
</g>
<g>
</g>
<g>
</g>
<g>
</g>
<g>
</g>
<g>
</g>
<g>
</g>
<g>
</g>
<g>
</g>
<g>
</g>
<g>
</g>
</svg>
