<?xml version="1.0" encoding="iso-8859-1"?>
<!-- Generator: Adobe Illustrator 19.0.0, SVG Export Plug-In . SVG Version: 6.00 Build 0)  -->
<svg version="1.1" id="Capa_1" xmlns="http://www.w3.org/2000/svg" xmlns:xlink="http://www.w3.org/1999/xlink" x="0px" y="0px"
	 viewBox="0 0 512 512" style="enable-background:new 0 0 512 512;" xml:space="preserve">
<g>
	<path style="fill:#FF9800;" d="M277.333,202.726c-0.006,4.597,2.934,8.681,7.296,10.133l32,10.667c2.192,0.706,4.55,0.706,6.741,0
		l32-10.667c4.362-1.453,7.302-5.536,7.296-10.133v-30.293c0.065-59.853-48.402-108.426-108.255-108.491
		c-58.45-0.064-106.42,46.236-108.428,104.651l-5.995,167.829c-0.277,15.093-12.736,27.104-27.829,26.827
		c-15.093-0.277-27.104-12.737-26.827-27.829l0,0v-58.027c0-5.891-4.776-10.667-10.667-10.667h-64
		C4.776,266.726,0,271.502,0,277.393v53.333C0,395.528,52.532,448.06,117.333,448.06s117.333-52.532,117.333-117.333v-160
		c0-11.782,9.551-21.333,21.333-21.333c11.782,0,21.333,9.551,21.333,21.333V202.726z"/>
	<path style="fill:#FF9800;" d="M501.333,256.06h-64c-5.891,0-10.667,4.776-10.667,10.667v64c0,17.673-14.327,32-32,32
		s-32-14.327-32-32v-64c0.007-5.891-4.762-10.673-10.653-10.68c-1.15-0.001-2.293,0.183-3.384,0.547L320,266.15l-28.629-9.536
		c-5.589-1.862-11.629,1.16-13.491,6.749c-0.361,1.084-0.546,2.22-0.547,3.363v64c0,64.801,52.532,117.333,117.333,117.333
		S512,395.528,512,330.726v-64C512,260.835,507.224,256.06,501.333,256.06z"/>
</g>
<path d="M117.333,448.06C52.566,447.977,0.082,395.494,0,330.726v-53.333c0-5.891,4.776-10.667,10.667-10.667h64
	c5.891,0,10.667,4.776,10.667,10.667v58.027c-0.271,15.093,11.745,27.548,26.837,27.819s27.548-11.745,27.819-26.837l5.995-167.808
	c2.056-59.818,52.214-106.643,112.031-104.588c58.416,2.007,104.715,49.977,104.651,108.428v30.293
	c0.006,4.597-2.934,8.681-7.296,10.133l-32,10.667c-2.192,0.706-4.55,0.706-6.741,0l-32-10.667
	c-4.362-1.453-7.302-5.536-7.296-10.133v-32c0-11.782-9.551-21.333-21.333-21.333c-11.782,0-21.333,9.551-21.333,21.333v160
	C234.584,395.494,182.101,447.977,117.333,448.06z M21.333,288.06v42.667c0,53.019,42.981,96,96,96s96-42.981,96-96v-160
	c0-23.564,19.103-42.667,42.667-42.667s42.667,19.103,42.667,42.667v24.32L320,202.15l21.333-7.104v-22.613
	c0.234-48.07-38.546-87.228-86.616-87.462c-47.186-0.229-85.962,37.183-87.421,84.347l-5.995,167.808
	c-0.779,26.864-23.187,48.01-50.051,47.231C84.821,383.591,63.839,361.861,64,335.42v-47.36H21.333z"/>
<path d="M394.667,448.06c-64.767-0.082-117.251-52.566-117.333-117.333v-64c-0.007-5.891,4.762-10.673,10.653-10.68
	c1.15-0.001,2.293,0.183,3.384,0.547L320,266.15l28.629-9.536c5.589-1.862,11.629,1.16,13.491,6.749
	c0.361,1.084,0.546,2.22,0.547,3.363v64c0,17.673,14.327,32,32,32s32-14.327,32-32v-64c0-5.891,4.776-10.667,10.667-10.667h64
	c5.891,0,10.667,4.776,10.667,10.667v64C511.918,395.494,459.434,447.977,394.667,448.06z M298.667,281.51v49.216
	c0,53.019,42.981,96,96,96s96-42.981,96-96v-53.333H448v53.333c0,29.455-23.878,53.333-53.333,53.333s-53.333-23.878-53.333-53.333
	V281.51l-17.963,5.995c-2.192,0.706-4.55,0.706-6.741,0L298.667,281.51z"/>
<g>
</g>
<g>
</g>
<g>
</g>
<g>
</g>
<g>
</g>
<g>
</g>
<g>
</g>
<g>
</g>
<g>
</g>
<g>
</g>
<g>
</g>
<g>
</g>
<g>
</g>
<g>
</g>
<g>
</g>
</svg>
