<?xml version="1.0" encoding="iso-8859-1"?>
<!-- Generator: Adobe Illustrator 19.0.0, SVG Export Plug-In . SVG Version: 6.00 Build 0)  -->
<svg version="1.1" id="Capa_1" xmlns="http://www.w3.org/2000/svg" xmlns:xlink="http://www.w3.org/1999/xlink" x="0px" y="0px"
	 viewBox="0 0 490.66 490.66" style="enable-background:new 0 0 490.66 490.66;" xml:space="preserve">
<path style="fill:#37474F;" d="M362.667,31.948c-70.092,0.088-127.113,56.463-128,126.549l-71.765,87.744
	c-23.95-3.482-48.357,1.683-68.843,14.571l-78.933-35.904c-3.3-1.531-7.156-1.249-10.197,0.747c-3.061,1.953-4.917,5.329-4.928,8.96
	v128c-0.006,4.597,2.934,8.681,7.296,10.133l41.6,13.845c18.742,55.551,78.968,85.391,134.52,66.649
	c36.179-12.206,63.016-42.902,70.28-80.388l119.637-85.483c70.378-6.655,122.036-69.104,115.381-139.482
	C482.548,82.687,428.157,32.657,362.667,31.948z"/>
<circle style="fill:#FFFFFF;" cx="362.667" cy="159.948" r="64"/>
<circle style="fill:#37474F;" cx="362.667" cy="159.948" r="42.667"/>
<path style="fill:#FFFFFF;" d="M149.333,415.948c-9.609-0.015-19.09-2.203-27.733-6.4c-5.302-2.568-7.518-8.949-4.949-14.251
	c2.568-5.302,8.949-7.518,14.251-4.949c20.922,10.841,46.672,2.668,57.512-18.254c10.841-20.922,2.668-46.672-18.254-57.513
	c-0.703-0.364-1.416-0.709-2.139-1.034c-5.302-2.568-7.518-8.949-4.949-14.251c2.568-5.302,8.949-7.518,14.251-4.949
	c31.825,15.38,45.156,53.646,29.777,85.471c-7.384,15.28-20.535,27.002-36.561,32.587
	C163.719,414.769,156.55,415.966,149.333,415.948z"/>
<path d="M362.667,223.948c-35.346,0-64-28.654-64-64s28.654-64,64-64s64,28.654,64,64S398.013,223.948,362.667,223.948z
	 M362.667,117.282c-23.564,0-42.667,19.103-42.667,42.667s19.102,42.667,42.667,42.667s42.667-19.103,42.667-42.667
	S386.231,117.282,362.667,117.282z"/>
<path d="M149.333,415.948c-9.609-0.015-19.09-2.203-27.733-6.4c-5.373-2.415-7.772-8.728-5.357-14.102
	c2.415-5.373,8.728-7.772,14.102-5.357c0.181,0.081,0.359,0.167,0.535,0.259c21.45,9.755,46.747,0.275,56.502-21.175
	c9.431-20.737,0.908-45.226-19.361-55.625c-5.373-2.415-7.772-8.729-5.357-14.102s8.729-7.772,14.102-5.357
	c0.181,0.081,0.359,0.167,0.535,0.259c31.812,15.407,45.11,53.685,29.703,85.497C196.3,401.948,173.892,415.976,149.333,415.948z"/>
<path d="M149.333,458.615c-45.371-0.261-85.634-29.133-100.437-72.021l-41.6-13.845c-4.362-1.453-7.302-5.536-7.296-10.133v-128
	c0.002-5.891,4.779-10.665,10.67-10.664c1.522,0,3.027,0.327,4.413,0.957l78.933,35.904c20.484-12.891,44.892-18.057,68.843-14.571
	l71.808-87.744c0.729-70.689,58.625-127.402,129.314-126.673c70.689,0.729,127.402,58.625,126.673,129.314
	c-0.681,66.044-51.502,120.726-117.32,126.234l-119.744,85.483C243.939,422.767,200.17,458.771,149.333,458.615z M21.333,354.935
	L60.8,368.076c3.343,1.111,5.922,3.802,6.891,7.189c12.608,45.129,59.413,71.493,104.543,58.885
	c32.184-8.992,56.093-36.038,61.068-69.082c0.423-2.823,1.96-5.359,4.267-7.04l125.717-89.792c1.64-1.169,3.578-1.849,5.589-1.963
	c58.81-3.429,103.706-53.883,100.278-112.694S415.269,49.873,356.458,53.302C299.993,56.594,255.915,103.388,256,159.948
	c0.049,3.143-0.739,6.243-2.283,8.981l-78.208,95.552c-2.472,3.026-6.401,4.458-10.24,3.733c-5.25-1.029-10.586-1.565-15.936-1.6
	c-17.269-0.003-34.127,5.267-48.32,15.104c-3.088,2.125-7.064,2.473-10.475,0.917L21.333,251.17V354.935z"/>
<g>
</g>
<g>
</g>
<g>
</g>
<g>
</g>
<g>
</g>
<g>
</g>
<g>
</g>
<g>
</g>
<g>
</g>
<g>
</g>
<g>
</g>
<g>
</g>
<g>
</g>
<g>
</g>
<g>
</g>
</svg>
