<?xml version="1.0" encoding="iso-8859-1"?>
<!-- Generator: Adobe Illustrator 19.0.0, SVG Export Plug-In . SVG Version: 6.00 Build 0)  -->
<svg version="1.1" id="Capa_1" xmlns="http://www.w3.org/2000/svg" xmlns:xlink="http://www.w3.org/1999/xlink" x="0px" y="0px"
	 viewBox="0 0 512 512" style="enable-background:new 0 0 512 512;" xml:space="preserve">
<g>
	<path style="fill:#FFC107;" d="M437.333,245.333c-11.079,0-22.016,2.494-32,7.296c-1.919-75.225-63.417-135.228-138.667-135.296
		c-5.891,0-10.667,4.776-10.667,10.667v256c0,5.891,4.776,10.667,10.667,10.667h170.667C478.571,394.667,512,361.237,512,320
		S478.571,245.333,437.333,245.333z"/>
	<path style="fill:#FFC107;" d="M10.667,266.667C4.776,266.667,0,271.442,0,277.333v85.333c0,5.891,4.776,10.667,10.667,10.667
		s10.667-4.776,10.667-10.667v-85.333C21.333,271.442,16.558,266.667,10.667,266.667z"/>
	<path style="fill:#FFC107;" d="M74.667,202.667c-5.891,0-10.667,4.776-10.667,10.667V384c0,5.891,4.776,10.667,10.667,10.667
		S85.333,389.891,85.333,384V213.333C85.333,207.442,80.558,202.667,74.667,202.667z"/>
	<path style="fill:#FFC107;" d="M138.667,224c-5.891,0-10.667,4.776-10.667,10.667V384c0,5.891,4.776,10.667,10.667,10.667
		s10.667-4.776,10.667-10.667V234.667C149.333,228.776,144.558,224,138.667,224z"/>
	<path style="fill:#FFC107;" d="M202.667,138.667c-5.891,0-10.667,4.776-10.667,10.667V384c0,5.891,4.776,10.667,10.667,10.667
		s10.667-4.776,10.667-10.667V149.333C213.333,143.442,208.558,138.667,202.667,138.667z"/>
</g>
<path d="M437.333,394.667H266.667c-5.891,0-10.667-4.776-10.667-10.667V128c0-5.891,4.776-10.667,10.667-10.667
	c75.254,0.057,136.758,60.066,138.667,135.296c9.985-4.801,20.921-7.294,32-7.296C478.571,245.333,512,278.763,512,320
	S478.571,394.667,437.333,394.667z M277.333,373.333h160c29.455,0.102,53.416-23.693,53.518-53.148
	c0.102-29.455-23.693-53.416-53.148-53.518c-13.805-0.048-27.091,5.259-37.063,14.805c-4.265,4.064-11.017,3.901-15.081-0.364
	c-2.25-2.361-3.296-5.623-2.839-8.852c9.484-63.556-34.35-122.766-97.906-132.25c-2.484-0.371-4.979-0.661-7.481-0.87V373.333z"/>
<path d="M10.667,373.333C4.776,373.333,0,368.558,0,362.667v-85.333c0-5.891,4.776-10.667,10.667-10.667s10.667,4.776,10.667,10.667
	v85.333C21.333,368.558,16.558,373.333,10.667,373.333z"/>
<path d="M74.667,394.667C68.776,394.667,64,389.891,64,384V213.333c0-5.891,4.776-10.667,10.667-10.667s10.667,4.776,10.667,10.667
	V384C85.333,389.891,80.558,394.667,74.667,394.667z"/>
<path d="M138.667,394.667c-5.891,0-10.667-4.776-10.667-10.667V234.667c0-5.891,4.776-10.667,10.667-10.667
	s10.667,4.776,10.667,10.667V384C149.333,389.891,144.558,394.667,138.667,394.667z"/>
<path d="M202.667,394.667c-5.891,0-10.667-4.776-10.667-10.667V149.333c0-5.891,4.776-10.667,10.667-10.667
	s10.667,4.776,10.667,10.667V384C213.333,389.891,208.558,394.667,202.667,394.667z"/>
<g>
</g>
<g>
</g>
<g>
</g>
<g>
</g>
<g>
</g>
<g>
</g>
<g>
</g>
<g>
</g>
<g>
</g>
<g>
</g>
<g>
</g>
<g>
</g>
<g>
</g>
<g>
</g>
<g>
</g>
</svg>
