<?xml version="1.0" encoding="iso-8859-1"?>
<!-- Generator: Adobe Illustrator 19.0.0, SVG Export Plug-In . SVG Version: 6.00 Build 0)  -->
<svg version="1.1" id="Capa_1" xmlns="http://www.w3.org/2000/svg" xmlns:xlink="http://www.w3.org/1999/xlink" x="0px" y="0px"
	 viewBox="0 0 513.13 513.13" style="enable-background:new 0 0 513.13 513.13;" xml:space="preserve">
<path style="fill:#2196F3;" d="M489.628,281.211c1.08-8.934,1.621-17.924,1.621-26.923
	C490.427,124.744,384.891,20.315,255.345,20.859c-8.99,0.093-17.966,0.727-26.88,1.899C158.522-20.946,66.393,0.325,22.69,70.269
	C-7.859,119.159-7.538,181.268,23.516,229.84c-1.071,8.927-1.606,17.91-1.6,26.901c0.811,129.544,106.337,233.983,235.883,233.451
	c8.997-0.094,17.98-0.728,26.901-1.899c69.955,43.684,162.078,22.387,205.762-47.569
	C520.985,391.846,520.66,329.767,489.628,281.211z M257.457,426.277c-82.816,0.427-128.256-48.661-128.384-74.005v-10.667
	c-0.131-17.673,14.089-32.106,31.761-32.237c16.756-0.124,30.771,12.698,32.132,29.399c8.341,16.405,37.931,23.637,64.213,23.467
	c2.624,0,64-0.832,63.765-43.008c0-20.373-27.221-28.565-71.872-39.659c-53.717-13.376-120.491-29.973-120.875-98.048
	c-0.469-86.059,66.517-96.341,116.821-96.619c71.296-0.363,117.483,28.715,117.717,74.048c0.145,17.673-14.064,32.117-31.736,32.262
	c-16.151,0.133-29.869-11.791-31.987-27.803c-15.996-11.334-35.557-16.488-55.061-14.507c-12.708-0.834-25.459,0.729-37.589,4.608
	c-6.656,2.965-14.272,8.789-14.187,27.733c0,15.829,32.192,24.597,66.133,33.877c56.213,15.339,126.165,34.453,126.528,103.787
	c0.405,64.747-49.6,106.88-127.36,107.285L257.457,426.277z"/>
<path d="M363.249,513.083c-28.235,0.039-55.896-7.968-79.744-23.083c-8.93,1.129-17.921,1.713-26.923,1.749
	C127.038,491.608,22.057,386.627,21.916,257.083c0.036-9.001,0.621-17.992,1.749-26.923C-20.363,160.421,0.479,68.194,70.217,24.165
	c48.701-30.747,110.742-30.747,159.443,0c8.93-1.129,17.921-1.713,26.923-1.749c129.544,0.141,234.526,105.122,234.667,234.667
	c-0.041,9.001-0.625,17.992-1.749,26.923c44.041,69.731,23.216,161.962-46.515,206.003
	C419.121,505.081,391.475,513.081,363.249,513.083z M286.044,468.283c2.12,0,4.192,0.631,5.952,1.813
	c58.737,39.337,138.241,23.611,177.579-35.126c28.864-43.098,28.864-99.355,0-142.453c-1.45-2.154-2.065-4.764-1.728-7.339
	c1.317-9.309,2.009-18.695,2.069-28.096c0.775-117.005-93.448-212.485-210.453-213.26c-10.341-0.069-20.672,0.62-30.912,2.06
	c-2.588,0.4-5.231-0.211-7.381-1.707C162.38,4.917,82.897,20.749,43.638,79.538C14.91,122.557,14.9,178.64,43.612,221.669
	c1.453,2.169,2.06,4.795,1.707,7.381C29.063,344.924,109.82,452.035,225.693,468.29c19.545,2.742,39.378,2.739,58.922-0.008
	C285.09,468.241,285.569,468.241,286.044,468.283L286.044,468.283z"/>
<path d="M256.583,427.749c-82.816,0-128-49.323-128-74.667v-10.667c-0.689-17.673,13.079-32.559,30.752-33.248
	s32.559,13.079,33.248,30.752c8.171,16.427,37.717,23.829,64,23.829c2.603,0,64-0.469,64-42.667
	c0-20.373-27.093-28.715-71.659-40.043c-53.611-13.632-120.341-30.571-120.341-98.624c0-86.037,66.965-96,117.333-96
	c71.275,0,117.333,29.312,117.333,74.667c-0.047,17.673-14.413,31.962-32.086,31.914c-16.016-0.043-29.533-11.92-31.637-27.797
	c-15.967-11.362-35.485-16.609-54.997-14.784c-12.703-0.906-25.463,0.592-37.611,4.416c-6.699,2.944-14.336,8.725-14.336,27.584
	c0,15.829,32,24.768,66.027,34.133c56.128,15.744,125.973,35.2,125.973,104.533C384.583,385.872,334.343,427.749,256.583,427.749z
	 M160.583,331.749c-5.891,0-10.667,4.776-10.667,10.667v10.667c0,13.269,37.824,53.333,106.667,53.333
	c65.792,0,106.667-32.683,106.667-85.333c0-53.12-58.645-69.483-110.379-83.904c-41.984-11.669-81.621-22.763-81.621-54.763
	c-2.039-19.888,8.862-38.854,27.072-47.104c14.856-5.197,30.614-7.316,46.315-6.229c35.755,0,62.229,9.387,73.963,25.792
	c1.293,1.812,1.987,3.982,1.984,6.208c0,5.891,4.776,10.667,10.667,10.667c5.891,0,10.667-4.776,10.667-10.667
	c0-36.843-48.213-53.333-96-53.333c-68.267,0-96,21.632-96,74.667c0,51.456,52.992,64.939,104.256,77.931
	c45.077,11.477,87.744,22.336,87.744,60.736c0,43.989-44.224,64-85.333,64c-33.259,0-72.917-10.155-84.544-38.635
	c-0.518-1.281-0.786-2.65-0.789-4.032C171.249,336.525,166.474,331.749,160.583,331.749z"/>
<g>
</g>
<g>
</g>
<g>
</g>
<g>
</g>
<g>
</g>
<g>
</g>
<g>
</g>
<g>
</g>
<g>
</g>
<g>
</g>
<g>
</g>
<g>
</g>
<g>
</g>
<g>
</g>
<g>
</g>
</svg>
