<?xml version="1.0" encoding="iso-8859-1"?>
<!-- Generator: Adobe Illustrator 19.0.0, SVG Export Plug-In . SVG Version: 6.00 Build 0)  -->
<svg version="1.1" id="Capa_1" xmlns="http://www.w3.org/2000/svg" xmlns:xlink="http://www.w3.org/1999/xlink" x="0px" y="0px"
	 viewBox="0 0 512 512" style="enable-background:new 0 0 512 512;" xml:space="preserve">
<g>
	<path style="fill:#FFC107;" d="M10.667,0C4.776,0,0,4.776,0,10.667V96c0,5.891,4.776,10.667,10.667,10.667
		c217.866,0.247,394.42,176.801,394.667,394.667c0,5.891,4.776,10.667,10.667,10.667h85.333c5.891,0,10.667-4.776,10.667-10.667
		C511.683,224.586,287.414,0.317,10.667,0z"/>
	<path style="fill:#FFC107;" d="M10.667,149.333C4.776,149.333,0,154.109,0,160v85.333C0,251.224,4.776,256,10.667,256
		c135.43,0.153,245.18,109.903,245.333,245.333c0,5.891,4.776,10.667,10.667,10.667H352c5.891,0,10.667-4.776,10.667-10.667
		C362.443,307.022,204.978,149.557,10.667,149.333z"/>
	<circle style="fill:#FFC107;" cx="74.667" cy="437.333" r="74.667"/>
</g>
<path d="M501.333,512H416c-5.891,0-10.667-4.776-10.667-10.667c-0.247-217.866-176.801-394.42-394.667-394.667
	C4.776,106.667,0,101.891,0,96V10.667C0,4.776,4.776,0,10.667,0C287.414,0.317,511.683,224.586,512,501.333
	C512,507.224,507.224,512,501.333,512z M426.539,490.667h64C484.514,234.069,277.931,27.486,21.333,21.461v64
	C242.606,91.423,420.577,269.394,426.539,490.667z"/>
<path d="M352,512h-85.333c-5.891,0-10.667-4.776-10.667-10.667C255.847,365.903,146.097,256.153,10.667,256
	C4.776,256,0,251.224,0,245.333V160c0-5.891,4.776-10.667,10.667-10.667c194.312,0.223,351.777,157.688,352,352
	C362.667,507.224,357.891,512,352,512z M277.12,490.667h64c-5.85-174.14-145.648-313.956-319.787-319.829v64
	C160.173,240.57,271.41,351.826,277.12,490.667z"/>
<path d="M74.667,512C33.429,512,0,478.571,0,437.333s33.429-74.667,74.667-74.667s74.667,33.429,74.667,74.667
	S115.904,512,74.667,512z M74.667,384c-29.455,0-53.333,23.878-53.333,53.333s23.878,53.333,53.333,53.333S128,466.789,128,437.333
	S104.122,384,74.667,384z"/>
<g>
</g>
<g>
</g>
<g>
</g>
<g>
</g>
<g>
</g>
<g>
</g>
<g>
</g>
<g>
</g>
<g>
</g>
<g>
</g>
<g>
</g>
<g>
</g>
<g>
</g>
<g>
</g>
<g>
</g>
</svg>
