<?xml version="1.0" encoding="iso-8859-1"?>
<!-- Generator: Adobe Illustrator 19.0.0, SVG Export Plug-In . SVG Version: 6.00 Build 0)  -->
<svg version="1.1" id="Capa_1" xmlns="http://www.w3.org/2000/svg" xmlns:xlink="http://www.w3.org/1999/xlink" x="0px" y="0px"
	 viewBox="0 0 512 512" style="enable-background:new 0 0 512 512;" xml:space="preserve">
<path style="fill:#455A64;" d="M347.861,363.499c-58.136,27.581-125.587,27.581-183.723,0c-5.432-2.286-11.688,0.264-13.973,5.696
	c-2.286,5.432,0.264,11.688,5.696,13.973c31.541,14.074,65.605,21.614,100.139,22.165c34.533-0.558,68.596-8.098,100.139-22.165
	c5.432-2.286,7.982-8.542,5.696-13.973S353.293,361.213,347.861,363.499z"/>
<g>
	<circle style="fill:#FF9800;" cx="181.333" cy="288" r="32"/>
	<circle style="fill:#FF9800;" cx="330.667" cy="288" r="32"/>
</g>
<path style="fill:#455A64;" d="M512,245.333C512,215.936,480.896,192,442.667,192c-16.193-0.081-32.042,4.665-45.525,13.632
	c-39.998-21.899-84.711-33.773-130.304-34.603c-2.101-20.289,4.981-40.455,19.307-54.976c14.933-11.008,41.024-11.051,76.8-1.024
	c0,0.789-0.235,1.515-0.235,2.304c-0.344,29.795,23.53,54.227,53.325,54.572c29.795,0.344,54.228-23.53,54.572-53.325
	s-23.53-54.227-53.325-54.572c-20.794-0.24-39.876,11.492-49.046,30.157c-42.859-11.989-74.005-10.56-94.72,4.715
	c-20.107,18.334-30.459,45.032-27.968,72.128c-45.725,0.779-90.575,12.661-130.688,34.624
	c-13.483-8.967-29.333-13.713-45.525-13.632C31.104,192,0,215.936,0,245.333c1.931,24.445,19.813,44.659,43.84,49.557
	c-0.773,4.776-1.166,9.605-1.173,14.443C42.667,385.792,138.368,448,256,448s213.333-62.208,213.333-138.667
	c-0.009-4.831-0.401-9.653-1.173-14.421C492.194,290.011,510.078,269.787,512,245.333z M416,85.333c17.673,0,32,14.327,32,32
	s-14.327,32-32,32s-32-14.327-32-32S398.327,85.333,416,85.333z M49.621,274.389c-16.811-5.163-28.288-16.576-28.288-29.056
	c0-17.344,21.973-32,48-32c8.69-0.05,17.298,1.67,25.301,5.056c-12.586,9.33-23.573,20.642-32.533,33.493
	c-1.152,1.621-2.347,3.221-3.392,4.885c-1.28,2.133-2.432,4.267-3.563,6.4c-1.664,3.051-3.2,6.144-4.544,9.301
	C50.304,273.067,49.877,273.707,49.621,274.389z M256,426.667c-105.856,0-192-52.629-192-117.333
	c0.074-6.584,1.035-13.129,2.859-19.456l0,0c9.122-26.782,27.965-49.165,52.8-62.72c0.32-0.192,0.491-0.555,0.789-0.789
	C161.728,202.953,208.55,191.082,256,192c47.429-0.93,94.235,10.919,135.509,34.304c0.299,0.235,0.469,0.597,0.789,0.789
	c24.827,13.565,43.667,35.944,52.8,62.72l0,0c1.843,6.346,2.819,12.912,2.901,19.52C448,374.037,361.856,426.667,256,426.667z
	 M462.4,274.389c-0.277-0.725-0.725-1.408-1.045-2.133c-1.323-3.072-2.795-6.08-4.416-9.067c-1.173-2.133-2.347-4.373-3.669-6.528
	c-0.981-1.557-2.133-3.072-3.2-4.608c-8.986-12.934-20.026-24.312-32.683-33.685c7.998-3.375,16.599-5.088,25.28-5.035
	c26.027,0,48,14.656,48,32C490.667,257.813,479.189,269.227,462.4,274.389L462.4,274.389z"/>
<path d="M256,448c-117.632,0-213.333-62.208-213.333-138.667S138.368,170.667,256,170.667s213.333,62.208,213.333,138.667
	S373.632,448,256,448z M256,192c-105.877,0-192,52.651-192,117.333s86.123,117.333,192,117.333s192-52.651,192-117.333
	S361.877,192,256,192z"/>
<path d="M256,405.333c-34.533-0.558-68.596-8.098-100.139-22.165c-5.432-2.292-7.977-8.552-5.685-13.984
	c2.292-5.432,8.552-7.977,13.984-5.685l0,0c58.128,27.58,125.573,27.58,183.701,0c5.432-2.292,11.692,0.254,13.984,5.685
	c2.292,5.432-0.254,11.692-5.685,13.984l0,0C324.611,397.239,290.54,404.778,256,405.333z"/>
<path d="M181.333,320c-17.673,0-32-14.327-32-32c0-17.673,14.327-32,32-32s32,14.327,32,32C213.333,305.673,199.006,320,181.333,320
	z M181.333,277.333c-5.891,0-10.667,4.776-10.667,10.667c0,5.891,4.776,10.667,10.667,10.667c5.891,0,10.667-4.776,10.667-10.667
	C192,282.109,187.224,277.333,181.333,277.333z"/>
<path d="M330.667,320c-17.673,0-32-14.327-32-32c0-17.673,14.327-32,32-32c17.673,0,32,14.327,32,32
	C362.667,305.673,348.34,320,330.667,320z M330.667,277.333c-5.891,0-10.667,4.776-10.667,10.667
	c0,5.891,4.776,10.667,10.667,10.667c5.891,0,10.667-4.776,10.667-10.667C341.333,282.109,336.558,277.333,330.667,277.333z"/>
<path d="M416,170.667c-29.455,0-53.333-23.878-53.333-53.333S386.545,64,416,64s53.333,23.878,53.333,53.333
	S445.455,170.667,416,170.667z M416,85.333c-17.673,0-32,14.327-32,32s14.327,32,32,32s32-14.327,32-32S433.673,85.333,416,85.333z"
	/>
<path d="M455.381,297.6c-4.778-0.004-8.971-3.186-10.261-7.787c-9.144-26.77-27.981-49.145-52.8-62.72
	c-4.989-3.133-6.493-9.717-3.36-14.706c0.553-0.881,1.233-1.676,2.016-2.361c14.558-11.93,32.871-18.317,51.691-18.027
	C480.896,192,512,215.915,512,245.333c-2.986,28.526-26.29,50.635-54.933,52.117C456.511,297.552,455.947,297.602,455.381,297.6z
	 M417.387,218.368c19.928,14.118,35.518,33.52,45.013,56.021c16.811-5.163,28.267-16.555,28.267-29.056c0-17.344-21.973-32-48-32
	c-8.688-0.057-17.297,1.656-25.301,5.035H417.387z"/>
<path d="M56.619,297.6c-0.565,0.002-1.129-0.048-1.685-0.149C26.29,295.968,2.986,273.859,0,245.333
	C0,215.915,31.104,192,69.333,192c18.819-0.313,37.14,6.051,51.712,17.963c4.437,3.875,4.892,10.614,1.017,15.051
	c-0.684,0.784-1.48,1.463-2.361,2.016c-24.819,13.575-43.656,35.95-52.8,62.72C65.633,294.383,61.423,297.598,56.619,297.6z
	 M69.333,213.333c-26.027,0-48,14.656-48,32c0,12.501,11.456,23.893,28.267,29.056c9.495-22.501,25.085-41.903,45.013-56.021
	C86.615,214.993,78.014,213.28,69.333,213.333z"/>
<path d="M256,192c-5.891,0-10.667-4.776-10.667-10.667c0-32,3.413-64.213,28.139-82.453c22.016-16.277,55.723-17.067,102.997-2.389
	c5.572,1.911,8.54,7.978,6.629,13.55c-1.829,5.331-7.489,8.319-12.922,6.823c-39.808-12.309-68.075-12.608-84.053-0.789
	c-17.067,12.608-19.456,38.805-19.456,65.28C266.655,187.237,261.883,192,256,192z"/>
<g>
</g>
<g>
</g>
<g>
</g>
<g>
</g>
<g>
</g>
<g>
</g>
<g>
</g>
<g>
</g>
<g>
</g>
<g>
</g>
<g>
</g>
<g>
</g>
<g>
</g>
<g>
</g>
<g>
</g>
</svg>
