<?xml version="1.0" encoding="iso-8859-1"?>
<!-- Generator: Adobe Illustrator 19.0.0, SVG Export Plug-In . SVG Version: 6.00 Build 0)  -->
<svg version="1.1" id="Capa_1" xmlns="http://www.w3.org/2000/svg" xmlns:xlink="http://www.w3.org/1999/xlink" x="0px" y="0px"
	 viewBox="0 0 512 512" style="enable-background:new 0 0 512 512;" xml:space="preserve">
<path style="fill:#FF5722;" d="M480,0H32c-5.891,0-10.667,4.776-10.667,10.667v490.667C21.333,507.224,26.109,512,32,512h128
	c5.891,0,10.667-4.776,10.667-10.667V384H480c5.891,0,10.667-4.776,10.667-10.667V10.667C490.667,4.776,485.891,0,480,0z
	 M362.667,245.333c0,5.891-4.776,10.667-10.667,10.667H160c-5.891,0-10.667-4.776-10.667-10.667V138.667
	c0-5.891,4.776-10.667,10.667-10.667h192c5.891,0,10.667,4.776,10.667,10.667V245.333z"/>
<path d="M160,512H32c-5.891,0-10.667-4.776-10.667-10.667V10.667C21.333,4.776,26.109,0,32,0h448
	c5.891,0,10.667,4.776,10.667,10.667v362.667c0,5.891-4.776,10.667-10.667,10.667H170.667v117.333
	C170.667,507.224,165.891,512,160,512z M42.667,490.667h106.667V373.333c0-5.891,4.776-10.667,10.667-10.667h309.333V21.333H42.667
	V490.667z"/>
<path d="M352,256H160c-5.891,0-10.667-4.776-10.667-10.667V138.667c0-5.891,4.776-10.667,10.667-10.667h192
	c5.891,0,10.667,4.776,10.667,10.667v106.667C362.667,251.224,357.891,256,352,256z M170.667,234.667h170.667v-85.333H170.667
	V234.667z"/>
<g>
</g>
<g>
</g>
<g>
</g>
<g>
</g>
<g>
</g>
<g>
</g>
<g>
</g>
<g>
</g>
<g>
</g>
<g>
</g>
<g>
</g>
<g>
</g>
<g>
</g>
<g>
</g>
<g>
</g>
</svg>
