<?xml version="1.0" encoding="iso-8859-1"?>
<!-- Generator: Adobe Illustrator 19.0.0, SVG Export Plug-In . SVG Version: 6.00 Build 0)  -->
<svg version="1.1" id="Capa_1" xmlns="http://www.w3.org/2000/svg" xmlns:xlink="http://www.w3.org/1999/xlink" x="0px" y="0px"
	 viewBox="0 0 512.011 512.011" style="enable-background:new 0 0 512.011 512.011;" xml:space="preserve">
<path style="fill:#F44336;" d="M266.672,0c-183.744,0-224,138.667-224,192c0,60.011,57.408,149.333,96,149.333
	c4.759-0.008,8.936-3.168,10.24-7.744l8.427-29.44L128.24,435.2c-4.244,27.036,4.774,54.464,24.235,73.707
	c3.399,3.38,8.635,4.078,12.8,1.707c19.613-11.37,35.848-27.752,47.04-47.467c8.768-19.2,28.885-70.784,38.144-94.805
	c17.93,10.254,38.225,15.651,58.88,15.659c118.101,0,160-103.424,160-192C469.339,125.589,426.992,0,266.672,0z M170.203,246.293
	l-0.981,4.416c-0.718-1.255-1.674-2.356-2.816-3.243c-12.012-11.689-18.257-28.081-17.067-44.8
	C149.339,129.365,210.16,96,266.672,96c50.025-2.806,92.921,35.324,96,85.333c0,43.861-40.085,117.333-64,117.333
	c-16.335,1.176-30.53-11.113-31.706-27.448c-0.015-0.209-0.028-0.418-0.038-0.627c18.997-26.335,30.017-57.579,31.744-90.005
	c0.98-13.322-3.608-26.454-12.672-36.267c-14.27-12.028-32.732-17.899-51.328-16.32c-39.23-2.007-72.66,28.168-74.667,67.398
	c-0.124,2.421-0.124,4.847,0,7.268C160.951,217.675,164.397,232.421,170.203,246.293z"/>
<path d="M160.005,512c-2.831,0.005-5.548-1.115-7.552-3.115C133.015,489.638,124,462.228,128.219,435.2l29.12-131.029l-8.405,29.461
	c-1.322,4.567-5.507,7.708-10.261,7.701c-38.592,0-96-89.323-96-149.333c0-53.333,40.235-192,224-192
	c160.32,0,202.667,125.589,202.667,192c0,88.555-41.899,192-160,192c-20.642-0.025-40.921-5.429-58.837-15.68
	c-9.259,24.043-29.355,75.712-38.144,94.805c-11.2,19.708-27.433,36.089-47.04,47.467C163.7,511.517,161.869,512.003,160.005,512z
	 M234.672,149.333c-28.103-1.352-51.981,20.334-53.333,48.437c-0.078,1.631-0.078,3.265,0,4.896
	c1.106,13.253,4.408,26.23,9.771,38.4c0.907,2.074,1.132,4.382,0.64,6.592l-42.667,192c-2.376,16.991,2.243,34.22,12.8,47.744
	c12.906-8.38,23.58-19.772,31.104-33.195c11.051-24.064,42.069-105.216,42.389-106.027c2.116-5.498,8.289-8.239,13.787-6.122
	c1.135,0.437,2.186,1.064,3.109,1.855c16.513,12.221,36.523,18.797,57.067,18.752c131.989,0,138.667-142.165,138.667-170.667
	c0-63.403-38.187-170.667-181.333-170.667C100.421,21.333,64.005,144.512,64.005,192c3.913,49.488,28.282,95.103,67.243,125.867
	l16.747-58.56c-13.568-15.683-20.708-35.915-19.989-56.64c0-84.032,69.76-128,138.667-128
	c61.808-2.813,114.261,44.871,117.333,106.667c0,44.48-40.384,138.667-85.333,138.667c-28.386,1.069-52.265-21.077-53.333-49.463
	c-0.049-1.29-0.049-2.581,0-3.87c-0.005-2.831,1.115-5.548,3.115-7.552c16.961-22.581,26.996-49.603,28.885-77.781
	c0.979-7.899-1.336-15.854-6.4-21.995C260.529,151.58,247.587,148.009,234.672,149.333z M266.928,270.592
	c0.83,16.356,14.761,28.943,31.117,28.113c0.209-0.011,0.418-0.023,0.627-0.038c23.936,0,64-73.472,64-117.333
	c-3.079-50.009-45.975-88.139-96-85.333c-56.512,0-117.333,33.365-117.333,106.667c-1.178,16.717,5.064,33.104,17.067,44.8
	c1.109,0.862,2.037,1.935,2.731,3.157l0.981-4.416c-5.772-13.849-9.19-28.566-10.112-43.541
	c-2.007-39.23,28.168-72.66,67.398-74.667c2.421-0.124,4.847-0.124,7.268,0c18.59-1.59,37.052,4.264,51.328,16.277
	c9.079,9.82,13.669,22.972,12.672,36.309C296.94,213.012,285.921,244.255,266.928,270.592z"/>
<g>
</g>
<g>
</g>
<g>
</g>
<g>
</g>
<g>
</g>
<g>
</g>
<g>
</g>
<g>
</g>
<g>
</g>
<g>
</g>
<g>
</g>
<g>
</g>
<g>
</g>
<g>
</g>
<g>
</g>
</svg>
