<?xml version="1.0" encoding="iso-8859-1"?>
<!-- Generator: Adobe Illustrator 19.0.0, SVG Export Plug-In . SVG Version: 6.00 Build 0)  -->
<svg version="1.1" id="Capa_1" xmlns="http://www.w3.org/2000/svg" xmlns:xlink="http://www.w3.org/1999/xlink" x="0px" y="0px"
	 viewBox="0 0 512 512" style="enable-background:new 0 0 512 512;" xml:space="preserve">
<path style="fill:#ECEFF1;" d="M256,0C114.615,0,0,114.615,0,256s114.615,256,256,256s256-114.615,256-256
	C511.835,114.683,397.317,0.165,256,0z"/>
<path style="fill:#FFC107;" d="M490.667,256c-0.037,29.215-5.566,58.162-16.299,85.333H384V59.563
	C450.478,102.798,490.607,176.699,490.667,256z"/>
<path style="fill:#F44336;" d="M362.667,47.232v152.811L178.859,34.624C239.237,13.237,305.775,17.801,362.667,47.232z"/>
<path style="fill:#9C27B0;" d="M156.928,43.584l83.349,75.029L29.867,317.867C-0.822,207.647,53.008,91.447,156.928,43.584z"/>
<path style="fill:#2196F3;" d="M37.077,339.84c0.805-0.377,1.558-0.858,2.24-1.429L128,254.379v198.037
	C86.638,425.353,54.83,385.971,37.077,339.84z"/>
<path style="fill:#4CAF50;" d="M256,490.667c-37.111-0.013-73.682-8.892-106.667-25.899V362.667h315.435
	C424.723,441.139,344.099,490.571,256,490.667z"/>
<path d="M256,512C114.615,512,0,397.385,0,256S114.615,0,256,0s256,114.615,256,256C511.847,397.322,397.322,511.847,256,512z
	 M256,21.333C126.397,21.333,21.333,126.397,21.333,256S126.397,490.667,256,490.667S490.667,385.603,490.667,256
	C490.526,126.456,385.544,21.474,256,21.333z"/>
<path d="M373.333,362.667c-5.891,0-10.667-4.776-10.667-10.667V42.667c0-5.891,4.776-10.667,10.667-10.667S384,36.776,384,42.667
	V352C384,357.891,379.224,362.667,373.333,362.667z"/>
<path d="M373.333,234.667c-2.631,0-5.168-0.973-7.125-2.731l-213.333-192c-4.383-3.941-4.741-10.689-0.8-15.072
	s10.689-4.741,15.072-0.8l213.333,192c4.383,3.936,4.745,10.68,0.809,15.063C379.261,233.385,376.368,234.672,373.333,234.667z"/>
<path d="M32,341.333c-5.891,0.002-10.668-4.772-10.67-10.663c-0.001-2.93,1.204-5.732,3.331-7.747l224-212.267
	c4.283-4.053,11.04-3.867,15.093,0.416c4.053,4.283,3.867,11.04-0.416,15.093l-224,212.267C37.353,340.302,34.727,341.34,32,341.333
	z"/>
<path d="M138.667,480c-5.891,0-10.667-4.776-10.667-10.667V234.667c0-5.891,4.776-10.667,10.667-10.667s10.667,4.776,10.667,10.667
	v234.667C149.333,475.224,144.558,480,138.667,480z"/>
<path d="M480,362.667H138.667c-5.891,0-10.667-4.776-10.667-10.667c0-5.891,4.776-10.667,10.667-10.667H480
	c5.891,0,10.667,4.776,10.667,10.667C490.667,357.891,485.891,362.667,480,362.667z"/>
<g>
</g>
<g>
</g>
<g>
</g>
<g>
</g>
<g>
</g>
<g>
</g>
<g>
</g>
<g>
</g>
<g>
</g>
<g>
</g>
<g>
</g>
<g>
</g>
<g>
</g>
<g>
</g>
<g>
</g>
</svg>
