<?xml version="1.0" encoding="iso-8859-1"?>
<!-- Generator: Adobe Illustrator 19.0.0, SVG Export Plug-In . SVG Version: 6.00 Build 0)  -->
<svg version="1.1" id="Capa_1" xmlns="http://www.w3.org/2000/svg" xmlns:xlink="http://www.w3.org/1999/xlink" x="0px" y="0px"
	 viewBox="0 0 512.479 512.479" style="enable-background:new 0 0 512.479 512.479;" xml:space="preserve">
<g>
	<path style="fill:#FF9800;" d="M256.25,277.333c76.583,0,138.667-62.083,138.667-138.667S332.834,0,256.25,0
		S117.583,62.083,117.583,138.667C117.677,215.211,179.706,277.239,256.25,277.333z M256.25,64
		c41.237,0,74.667,33.429,74.667,74.667s-33.429,74.667-74.667,74.667s-74.667-33.429-74.667-74.667S215.013,64,256.25,64z"/>
	<path style="fill:#FF9800;" d="M392.079,343.04c15.07-9.926,24.15-26.755,24.171-44.8c0.21-14.976-8.241-28.728-21.696-35.307
		c-13.824-6.905-30.372-5.35-42.667,4.011c-56.983,41.543-134.27,41.543-191.253,0c-12.314-9.312-28.833-10.865-42.667-4.011
		c-13.449,6.578-21.904,20.315-21.717,35.285c0.032,18.042,9.109,34.866,24.171,44.8c19.324,12.851,40.368,22.906,62.507,29.867
		c3.755,1.166,7.63,2.247,11.627,3.243l-64.469,63.04c-16.912,16.409-17.321,43.42-0.912,60.333
		c16.409,16.912,43.42,17.321,60.333,0.912c0.352-0.342,0.698-0.689,1.038-1.043l65.707-68.011l65.835,68.139
		c16.395,16.925,43.407,17.355,60.332,0.96c16.925-16.395,17.355-43.407,0.96-60.332c-0.343-0.354-0.692-0.702-1.047-1.044
		l-64.363-62.976c3.996-1.024,7.886-2.112,11.669-3.264C351.754,365.908,372.778,355.874,392.079,343.04z"/>
</g>
<path d="M256.25,277.333c-76.583,0-138.667-62.083-138.667-138.667S179.667,0,256.25,0s138.667,62.083,138.667,138.667
	C394.823,215.211,332.795,277.239,256.25,277.333z M256.25,21.333c-64.801,0-117.333,52.532-117.333,117.333S191.449,256,256.25,256
	s117.333-52.532,117.333-117.333C373.501,73.899,321.017,21.416,256.25,21.333z"/>
<path d="M256.25,213.333c-41.237,0-74.667-33.429-74.667-74.667S215.013,64,256.25,64s74.667,33.429,74.667,74.667
	S297.487,213.333,256.25,213.333z M256.25,85.333c-29.455,0-53.333,23.878-53.333,53.333S226.795,192,256.25,192
	s53.333-23.878,53.333-53.333S285.705,85.333,256.25,85.333z"/>
<path d="M352.25,512c-11.322,0.031-22.184-4.471-30.165-12.501L256.25,431.36l-65.707,68.011
	c-16.843,16.286-43.547,16.342-60.459,0.128c-16.656-16.661-16.656-43.669,0-60.331l64.448-63.061
	c-3.989-1.003-7.872-2.133-11.627-3.243c-22.137-6.964-43.18-17.019-62.507-29.867c-15.053-9.942-24.127-26.761-24.171-44.8
	c-0.203-14.968,8.235-28.714,21.675-35.307c13.824-6.905,30.372-5.35,42.667,4.011c56.977,41.563,134.277,41.563,191.253,0l0,0
	c12.31-9.322,28.835-10.875,42.667-4.011c13.48,6.572,21.956,20.333,21.76,35.328c-0.027,18.038-9.096,34.861-24.149,44.8
	c-19.309,12.852-40.338,22.907-62.464,29.867c-3.776,1.173-7.68,2.261-11.691,3.264l64.384,62.976
	c16.683,16.641,16.718,43.656,0.076,60.34C374.414,507.477,363.567,511.986,352.25,512z M256.25,405.333
	c2.894-0.006,5.666,1.165,7.68,3.243l73.387,75.968c8.475,7.897,21.63,7.841,30.037-0.128c8.328-8.331,8.328-21.835,0-30.165
	l-78.571-76.8c-4.219-4.111-4.306-10.865-0.195-15.084c1.575-1.617,3.623-2.692,5.849-3.071c9.756-1.635,19.397-3.894,28.864-6.763
	c20.187-6.336,39.378-15.493,57.003-27.2c9.114-5.995,14.61-16.163,14.635-27.072c0.168-6.878-3.691-13.222-9.877-16.235
	c-6.614-3.345-14.568-2.555-20.395,2.027l0,0c-64.292,48.001-152.497,48.001-216.789,0c-5.839-4.551-13.774-5.339-20.395-2.027
	c-6.186,3.012-10.046,9.356-9.877,16.235c0.025,10.914,5.521,21.089,14.635,27.093c17.639,11.678,36.836,20.813,57.024,27.136
	c9.454,2.858,19.081,5.11,28.821,6.741c5.807,0.989,9.713,6.499,8.724,12.306c-0.379,2.225-1.454,4.273-3.071,5.849L145.082,454.4
	c-8.271,8.321-8.271,21.759,0,30.08c8.441,8.057,21.724,8.057,30.165,0l73.237-75.84
	C250.509,406.517,253.317,405.321,256.25,405.333z"/>
<g>
</g>
<g>
</g>
<g>
</g>
<g>
</g>
<g>
</g>
<g>
</g>
<g>
</g>
<g>
</g>
<g>
</g>
<g>
</g>
<g>
</g>
<g>
</g>
<g>
</g>
<g>
</g>
<g>
</g>
</svg>
