<?xml version="1.0" encoding="iso-8859-1"?>
<!-- Generator: Adobe Illustrator 19.0.0, SVG Export Plug-In . SVG Version: 6.00 Build 0)  -->
<svg version="1.1" id="Capa_1" xmlns="http://www.w3.org/2000/svg" xmlns:xlink="http://www.w3.org/1999/xlink" x="0px" y="0px"
	 viewBox="0 0 512 512" style="enable-background:new 0 0 512 512;" xml:space="preserve">
<g>
	<circle style="fill:#37474F;" cx="74.667" cy="96" r="53.333"/>
	<path style="fill:#37474F;" d="M74.667,170.667C33.429,170.667,0,204.096,0,245.333V352c0,5.891,4.776,10.667,10.667,10.667h128
		c5.891,0,10.667-4.776,10.667-10.667V245.333C149.333,204.096,115.904,170.667,74.667,170.667z"/>
	<circle style="fill:#37474F;" cx="213.333" cy="85.333" r="64"/>
	<path style="fill:#37474F;" d="M213.333,170.667C166.205,170.667,128,208.872,128,256v160c0,5.891,4.776,10.667,10.667,10.667H288
		c5.891,0,10.667-4.776,10.667-10.667V256C298.667,208.872,260.462,170.667,213.333,170.667z"/>
	<circle style="fill:#37474F;" cx="394.667" cy="96" r="96"/>
	<path style="fill:#37474F;" d="M394.667,213.333c-64.767,0.082-117.251,52.566-117.333,117.333v170.667
		c0,5.891,4.776,10.667,10.667,10.667h213.333c5.891,0,10.667-4.776,10.667-10.667V330.667
		C511.918,265.899,459.434,213.416,394.667,213.333z"/>
</g>
<path d="M394.667,192c-53.019,0-96-42.981-96-96s42.981-96,96-96s96,42.981,96,96S447.686,192,394.667,192z M394.667,21.333
	C353.429,21.333,320,54.763,320,96s33.429,74.667,74.667,74.667S469.333,137.237,469.333,96S435.904,21.333,394.667,21.333z"/>
<path d="M213.333,149.333c-35.346,0-64-28.654-64-64s28.654-64,64-64s64,28.654,64,64S248.68,149.333,213.333,149.333z
	 M213.333,42.667c-23.564,0-42.667,19.103-42.667,42.667S189.769,128,213.333,128S256,108.897,256,85.333
	S236.897,42.667,213.333,42.667z"/>
<path d="M74.667,149.333c-29.455,0-53.333-23.878-53.333-53.333s23.878-53.333,53.333-53.333S128,66.545,128,96
	S104.122,149.333,74.667,149.333z M74.667,64c-17.673,0-32,14.327-32,32s14.327,32,32,32s32-14.327,32-32S92.34,64,74.667,64z"/>
<path d="M138.667,362.667h-128C4.776,362.667,0,357.891,0,352V245.333c0-41.237,33.429-74.667,74.667-74.667
	s74.667,33.429,74.667,74.667V352C149.333,357.891,144.558,362.667,138.667,362.667z M21.333,341.333H128v-96
	C128,215.878,104.122,192,74.667,192s-53.333,23.878-53.333,53.333V341.333z"/>
<path d="M288,426.667H138.667c-5.891,0-10.667-4.776-10.667-10.667V256c0-47.128,38.205-85.333,85.333-85.333
	s85.333,38.205,85.333,85.333v160C298.667,421.891,293.891,426.667,288,426.667z M149.333,405.333h128V256c0-35.346-28.654-64-64-64
	s-64,28.654-64,64V405.333z"/>
<path d="M501.333,512H288c-5.891,0-10.667-4.776-10.667-10.667V330.667c0-64.801,52.532-117.333,117.333-117.333
	S512,265.865,512,330.667v170.667C512,507.224,507.224,512,501.333,512z M298.667,490.667h192v-160c0-53.019-42.981-96-96-96
	s-96,42.981-96,96V490.667z"/>
<g>
</g>
<g>
</g>
<g>
</g>
<g>
</g>
<g>
</g>
<g>
</g>
<g>
</g>
<g>
</g>
<g>
</g>
<g>
</g>
<g>
</g>
<g>
</g>
<g>
</g>
<g>
</g>
<g>
</g>
</svg>
