<?xml version="1.0" encoding="iso-8859-1"?>
<!-- Generator: Adobe Illustrator 19.0.0, SVG Export Plug-In . SVG Version: 6.00 Build 0)  -->
<svg version="1.1" id="Capa_1" xmlns="http://www.w3.org/2000/svg" xmlns:xlink="http://www.w3.org/1999/xlink" x="0px" y="0px"
	 viewBox="0 0 512.859 512.859" style="enable-background:new 0 0 512.859 512.859;" xml:space="preserve">
<path style="fill:#4CAF50;" d="M361.297,256.85l82.923-122.965c26.81-38.76,17.123-91.914-21.637-118.724
	S330.669-1.962,303.859,36.797c-0.381,0.55-0.755,1.105-1.122,1.664l-78.592,116.523v-68.8c0-47.128-38.205-85.333-85.333-85.333
	S53.478,39.055,53.478,86.184v341.333c0,47.128,38.205,85.333,85.333,85.333s85.333-38.205,85.333-85.333v-68.8l78.592,116.501
	c12.616,18.804,32.225,31.785,54.464,36.053c5.42,1.05,10.927,1.579,16.448,1.579c47.128-0.094,85.257-38.375,85.163-85.504
	c-0.034-16.948-5.114-33.502-14.592-47.552L361.297,256.85z"/>
<path d="M138.812,512.85c-47.128,0-85.333-38.205-85.333-85.333V86.184c0-47.128,38.205-85.333,85.333-85.333
	s85.333,38.205,85.333,85.333v68.779l78.592-116.501c26.357-39.069,79.395-49.375,118.464-23.019
	c39.069,26.357,49.375,79.395,23.019,118.464l0,0L361.297,256.85l82.923,122.944c26.356,39.069,16.051,92.108-23.019,118.464
	s-92.107,16.051-118.464-23.019l-78.592-116.501v68.779C224.145,474.645,185.94,512.85,138.812,512.85z M138.812,22.184
	c-35.346,0-64,28.654-64,64v341.333c0,35.346,28.654,64,64,64s64-28.654,64-64v-103.68c0.004-5.891,4.783-10.663,10.674-10.659
	c3.536,0.003,6.841,1.758,8.824,4.686l98.133,145.429c19.764,29.314,59.55,37.055,88.864,17.291
	c29.314-19.764,37.055-59.55,17.291-88.864L339.58,262.824c-2.439-3.609-2.439-8.338,0-11.947l86.955-128.896
	c19.764-29.314,12.023-69.1-17.291-88.864s-69.1-12.023-88.864,17.291l0,0l-98.133,145.429c-3.355,4.843-10,6.049-14.842,2.695
	c-2.847-1.972-4.56-5.204-4.592-8.668V86.184C202.812,50.837,174.158,22.184,138.812,22.184z"/>
<g>
</g>
<g>
</g>
<g>
</g>
<g>
</g>
<g>
</g>
<g>
</g>
<g>
</g>
<g>
</g>
<g>
</g>
<g>
</g>
<g>
</g>
<g>
</g>
<g>
</g>
<g>
</g>
<g>
</g>
</svg>
