<?xml version="1.0" encoding="iso-8859-1"?>
<!-- Generator: Adobe Illustrator 19.0.0, SVG Export Plug-In . SVG Version: 6.00 Build 0)  -->
<svg version="1.1" id="Capa_1" xmlns="http://www.w3.org/2000/svg" xmlns:xlink="http://www.w3.org/1999/xlink" x="0px" y="0px"
	 viewBox="0 0 512.438 512.438" style="enable-background:new 0 0 512.438 512.438;" xml:space="preserve">
<path style="fill:#607D8B;" d="M309.552,256.219c-0.009,29.455-23.895,53.326-53.35,53.317
	c-29.455-0.009-53.326-23.895-53.317-53.35c0.005-15.924,7.125-31.013,19.413-41.14c18.251-15.021,44.212-16.236,63.787-2.987
	C300.729,221.993,309.514,238.524,309.552,256.219z"/>
<path d="M256.219,320.219c-35.275,0.071-63.929-28.468-64-63.744c0-0.085,0-0.171,0-0.256c-0.046-19.136,8.516-37.279,23.317-49.408
	c22.049-17.609,52.915-19.063,76.523-3.605c29.278,19.802,36.96,59.59,17.158,88.868
	C297.316,309.67,277.461,320.214,256.219,320.219z M256.219,213.552c-23.564,0-42.667,19.103-42.667,42.667
	s19.103,42.667,42.667,42.667s42.667-19.103,42.667-42.667S279.783,213.552,256.219,213.552z"/>
<path d="M298.886,224.219c-5.891,0.011-10.675-4.757-10.686-10.648c-0.005-2.84,1.123-5.565,3.134-7.571l2.347-2.347
	c4.092-4.237,10.845-4.355,15.083-0.262c4.237,4.092,4.355,10.845,0.262,15.083c-0.086,0.089-0.173,0.176-0.262,0.262l-2.347,2.347
	C304.421,223.085,301.712,224.213,298.886,224.219z"/>
<path style="fill:#4CAF50;" d="M373.552,138.886l-72.32,72.32l-15.147,0.853c-8.812-5.98-19.217-9.176-29.867-9.173
	c-6.864-35.147-10.435-70.857-10.667-106.667c-0.402-46.726,37.15-84.931,83.876-85.333c0.486-0.004,0.971-0.004,1.457,0
	c32.552-2.794,61.206,21.329,64,53.881c0.289,3.367,0.289,6.752,0,10.119C398.484,98.409,390.545,122.226,373.552,138.886z"/>
<path style="fill:#455A64;" d="M286.086,222.726c-2.12,0.001-4.192-0.631-5.952-1.813c-7.057-4.788-15.387-7.352-23.915-7.36
	c-5.221-0.004-9.672-3.787-10.517-8.939c-6.935-35.721-10.556-72.007-10.816-108.395c-0.509-52.51,41.646-95.491,94.156-96
	c0.615-0.006,1.229-0.006,1.844,0c38.22-3.017,71.649,25.52,74.667,63.74c0.287,3.637,0.287,7.29,0,10.927v3.456
	c2.987,25.271-6.066,50.478-24.448,68.075l-72.32,72.32c-1.85,1.854-4.318,2.963-6.933,3.115l-15.147,0.853L286.086,222.726z
	 M265.392,192.88c8.296,1.205,16.271,4.04,23.467,8.341l7.659-0.448l69.44-69.44c14.347-13.613,21.162-33.364,18.261-52.928v-3.52
	c2.917-26.538-16.232-50.417-42.771-53.333c-3.51-0.386-7.052-0.386-10.563,0c-40.835-0.403-74.264,32.374-74.667,73.209
	c-0.005,0.486-0.005,0.972,0,1.458C256.308,128.652,259.379,161.009,265.392,192.88z"/>
<path style="fill:#4CAF50;" d="M266.886,416.219c0.402,46.726-37.15,84.931-83.876,85.333c-0.486,0.004-0.971,0.004-1.457,0
	c-32.552,2.794-61.206-21.329-64-53.881c-0.289-3.367-0.289-6.752,0-10.119c-3.599-23.523,4.341-47.341,21.333-64l74.667-74.667
	l4.907-4.907c10.021,9.996,23.605,15.599,37.76,15.573C263.082,344.699,266.653,380.409,266.886,416.219z"/>
<path style="fill:#455A64;" d="M181.552,512.219c-38.22,3.017-71.649-25.52-74.667-63.74c-0.287-3.637-0.287-7.29,0-10.927v-3.456
	c-2.987-25.271,6.066-50.478,24.448-68.075l79.573-79.573c2.004-1.999,4.721-3.12,7.552-3.115l0,0
	c2.831-0.005,5.548,1.115,7.552,3.115c8.038,7.963,18.893,12.433,30.208,12.437c5.221,0.004,9.672,3.787,10.517,8.939
	c6.935,35.721,10.556,72.007,10.816,108.395c0.509,52.51-41.646,95.491-94.156,96C182.781,512.225,182.167,512.225,181.552,512.219z
	 M219.12,308.4l-72.683,72.704c-14.332,13.622-21.13,33.371-18.219,52.928v3.52c-2.917,26.538,16.232,50.417,42.771,53.333
	c3.51,0.386,7.052,0.386,10.563,0c40.835,0.403,74.264-32.374,74.667-73.209c0.005-0.486,0.005-0.972,0-1.458
	c-0.089-32.433-3.16-64.79-9.173-96.661C236.989,318.088,227.421,314.265,219.12,308.4z"/>
<path style="fill:#4CAF50;" d="M222.299,215.046c-12.346,10.097-19.479,25.224-19.413,41.173
	c-35.147,6.864-70.857,10.435-106.667,10.667c-46.726,0.402-84.931-37.15-85.333-83.876c-0.004-0.486-0.004-0.971,0-1.457
	c-2.794-32.552,21.329-61.206,53.881-64c3.367-0.289,6.752-0.289,10.119,0c23.523-3.599,47.341,4.341,64,21.333l74.667,74.667
	L222.299,215.046z"/>
<path style="fill:#455A64;" d="M96.219,277.552c-52.51,0.509-95.491-41.646-96-94.156c-0.006-0.615-0.006-1.229,0-1.844
	c-3.017-38.22,25.52-71.649,63.74-74.667c3.637-0.287,7.29-0.287,10.927,0h3.456c25.278-2.994,50.495,6.06,68.096,24.448
	l72.277,72.277l5.419,0.917c5.807,0.994,9.708,6.507,8.714,12.314c-0.434,2.537-1.771,4.831-3.764,6.46
	c-9.869,8.075-15.574,20.166-15.531,32.917c-0.004,5.221-3.787,9.672-8.939,10.517C168.892,273.671,132.606,277.292,96.219,277.552z
	 M81.819,128.219h-6.933c-26.538-2.917-50.417,16.232-53.333,42.771c-0.386,3.51-0.386,7.052,0,10.563
	c-0.403,40.835,32.374,74.264,73.209,74.667c0.486,0.005,0.972,0.005,1.458,0c32.426-0.09,64.776-3.16,96.64-9.173
	c1.438-10.072,5.263-19.654,11.157-27.947l-72.683-72.661C118.689,132.799,100.287,126.028,81.819,128.219z"/>
<path style="fill:#4CAF50;" d="M501.552,330.886c2.794,32.552-21.329,61.206-53.881,64c-3.367,0.289-6.752,0.289-10.119,0
	c-23.523,3.599-47.341-4.341-64-21.333c9.813,30.293,4.48,106.667-42.667,106.667c-34.73-1.445-62.554-29.27-64-64
	c-0.232-35.81-3.803-71.52-10.667-106.667c29.455,0,53.333-23.878,53.333-53.333c35.147-6.864,70.857-10.435,106.667-10.667
	c46.726-0.402,84.931,37.15,85.333,83.876C501.556,329.914,501.556,330.4,501.552,330.886z"/>
<path style="fill:#455A64;" d="M330.886,490.886c-40.661-1.359-73.308-34.005-74.667-74.667
	c-0.212-35.232-3.733-70.366-10.517-104.939c-0.954-5.813,2.985-11.299,8.798-12.254c0.568-0.093,1.144-0.14,1.72-0.141
	c23.564,0,42.667-19.103,42.667-42.667c0.004-5.221,3.787-9.672,8.939-10.517c35.721-6.935,72.007-10.556,108.395-10.816
	c52.51-0.509,95.491,41.646,96,94.156c0.006,0.615,0.006,1.229,0,1.844c3.017,38.22-25.52,71.649-63.74,74.667
	c-3.637,0.287-7.29,0.287-10.927,0h-3.456c-15.705,1.208-31.464-1.497-45.867-7.872c2.102,25.307-3.977,50.621-17.344,72.213
	C361.879,483.114,346.882,490.984,330.886,490.886z M268.571,319.003c5.895,32.072,8.901,64.607,8.981,97.216
	c1.616,28.759,24.574,51.717,53.333,53.333c9.166,0.08,17.736-4.531,22.72-12.224c13.523-24.556,17.031-53.387,9.792-80.469
	c-1.818-5.604,1.251-11.62,6.854-13.438c3.812-1.237,7.996-0.232,10.831,2.6c13.629,14.334,33.389,21.125,52.949,18.197h3.52
	c26.538,2.917,50.417-16.232,53.333-42.771c0.386-3.51,0.386-7.052,0-10.563c0.403-40.835-32.374-74.264-73.209-74.667
	c-0.486-0.005-0.972-0.005-1.458,0c-32.426,0.09-64.776,3.161-96.64,9.173C315.635,292.257,295.206,313.728,268.571,319.003z"/>
<path style="fill:#607D8B;" d="M373.552,373.552l-74.667-74.667L373.552,373.552z"/>
<path style="fill:#455A64;" d="M373.552,384.219c-2.831,0.005-5.548-1.115-7.552-3.115l-74.667-74.667
	c-4.092-4.237-3.975-10.99,0.262-15.083c4.134-3.992,10.687-3.992,14.82,0l74.667,74.667c4.159,4.172,4.149,10.926-0.023,15.085
	C379.066,383.094,376.367,384.213,373.552,384.219z"/>
<path style="fill:#4CAF50;" d="M480.219,181.552c-1.445,34.73-29.27,62.554-64,64c-35.81,0.232-71.52,3.803-106.667,10.667
	c-0.039-17.695-8.823-34.226-23.467-44.16l15.147-0.853l72.32-72.32C403.846,129.072,480.219,134.406,480.219,181.552z"/>
<path style="fill:#455A64;" d="M309.552,266.886c-5.891,0-10.667-4.776-10.667-10.667c-0.036-14.171-7.081-27.406-18.816-35.349
	c-4.864-3.324-6.111-9.962-2.787-14.825c1.868-2.734,4.9-4.444,8.206-4.631l11.093-0.619l69.44-69.44
	c1.196-1.193,2.658-2.085,4.267-2.603c33.566-9.486,69.549-4.863,99.627,12.8c13.212,9.012,21.074,24.007,20.971,40
	c-1.359,40.661-34.005,73.308-74.667,74.667c-35.232,0.212-70.366,3.733-104.939,10.517
	C310.71,266.838,310.132,266.888,309.552,266.886z M308.336,219.163c5.262,7.388,8.898,15.808,10.667,24.704
	c32.071-5.896,64.607-8.902,97.216-8.981c28.759-1.616,51.717-24.574,53.333-53.333c0.08-9.166-4.531-17.736-12.224-22.72
	c-23.814-13.163-51.704-16.901-78.144-10.475l-70.4,70.4L308.336,219.163z"/>
<path style="fill:#F44336;" d="M218.459,293.979l-4.907,4.907l-74.667,74.667c-30.293,9.813-106.667,4.48-106.667-42.667
	c1.446-34.73,29.27-62.554,64-64c35.81-0.232,71.52-3.803,106.667-10.667C202.86,270.373,208.463,283.957,218.459,293.979z"/>
<path style="fill:#455A64;" d="M107.312,388.486c-22.853,0.808-45.418-5.296-64.747-17.515
	c-13.254-9.019-21.136-24.055-21.013-40.085c1.359-40.661,34.005-73.308,74.667-74.667c35.232-0.212,70.366-3.733,104.939-10.517
	c5.813-0.954,11.299,2.985,12.254,8.798c0.093,0.568,0.14,1.144,0.141,1.72c0.01,11.318,4.487,22.174,12.459,30.208
	c4.164,4.165,4.164,10.917,0,15.083l-79.573,79.573c-1.196,1.193-2.658,2.085-4.267,2.603
	C130.856,387.018,119.106,388.636,107.312,388.486z M193.435,268.678c-32.075,5.86-64.61,8.83-97.216,8.875
	c-28.759,1.616-51.718,24.574-53.333,53.333c-0.08,9.166,4.531,17.736,12.224,22.72c23.822,13.139,51.703,16.876,78.144,10.475
	l70.763-70.763c-5.215-7.42-8.819-15.85-10.581-24.747V268.678z"/>
<path style="fill:#4CAF50;" d="M256.219,202.886c-12.383-0.051-24.39,4.253-33.92,12.16l-8.747-1.493l-74.667-74.667
	c-9.813-30.293-4.48-106.667,42.667-106.667c34.73,1.446,62.554,29.27,64,64C245.784,132.029,249.355,167.739,256.219,202.886z"/>
<path style="fill:#455A64;" d="M222.299,225.712c-0.608,0.002-1.214-0.048-1.813-0.149l-8.747-1.493
	c-2.176-0.377-4.181-1.421-5.739-2.987l-74.667-74.667c-1.193-1.196-2.085-2.658-2.603-4.267
	c-9.501-33.565-4.877-69.554,12.8-99.627c9.016-13.219,24.021-21.081,40.021-20.971c40.661,1.359,73.308,34.005,74.667,74.667
	c0.212,35.232,3.733,70.366,10.517,104.939c0.954,5.813-2.985,11.299-8.798,12.254c-0.568,0.093-1.144,0.14-1.72,0.141
	c-9.878-0.052-19.46,3.369-27.072,9.664C227.228,224.826,224.804,225.71,222.299,225.712z M218.694,203.611l0.811,0.149
	c7.297-5.135,15.601-8.662,24.363-10.347c-5.896-32.064-8.902-64.593-8.981-97.195c-1.616-28.759-24.574-51.718-53.333-53.333
	c-9.166-0.08-17.736,4.531-22.72,12.224c-13.139,23.822-16.876,51.703-10.475,78.144L218.694,203.611z"/>
<path d="M256.219,320.219c-35.346,0-64-28.654-64-64s28.654-64,64-64s64,28.654,64,64S291.565,320.219,256.219,320.219z
	 M256.219,213.552c-23.564,0-42.667,19.103-42.667,42.667s19.103,42.667,42.667,42.667s42.667-19.103,42.667-42.667
	S279.783,213.552,256.219,213.552z"/>
<path d="M298.886,224.219c-5.891,0.011-10.675-4.757-10.686-10.648c-0.005-2.84,1.123-5.565,3.134-7.571L366,131.334
	c14.316-13.569,21.116-33.267,18.219-52.779v-3.669c2.917-26.538-16.232-50.417-42.771-53.333c-3.51-0.386-7.052-0.386-10.563,0
	c-40.835-0.403-74.264,32.374-74.667,73.209c-0.005,0.486-0.005,0.972,0,1.458c0.196,35.226,3.717,70.354,10.517,104.917
	c1.141,5.779-2.619,11.39-8.398,12.531c-5.779,1.141-11.39-2.619-12.531-8.398c-0.042-0.21-0.077-0.422-0.105-0.634
	c-6.979-35.722-10.6-72.019-10.816-108.416c-0.521-52.498,41.615-95.479,94.113-96c0.629-0.006,1.258-0.006,1.887,0
	c38.22-3.017,71.649,25.52,74.667,63.74c0.287,3.637,0.287,7.29,0,10.927v3.605c2.963,25.228-6.098,50.383-24.469,67.925
	l-74.667,74.667C304.421,223.085,301.712,224.213,298.886,224.219z"/>
<path d="M181.552,512.219c-38.22,3.017-71.649-25.52-74.667-63.74c-0.287-3.637-0.287-7.29,0-10.927v-3.605
	c-2.963-25.228,6.098-50.383,24.469-67.925l74.667-74.667c4.092-4.237,10.845-4.355,15.083-0.262
	c4.237,4.092,4.355,10.845,0.262,15.083c-0.086,0.089-0.173,0.176-0.262,0.262l-74.667,74.667
	c-14.316,13.569-21.116,33.267-18.219,52.779v3.669c-2.917,26.538,16.232,50.417,42.771,53.333c3.51,0.386,7.052,0.386,10.563,0
	c40.835,0.403,74.264-32.374,74.667-73.209c0.005-0.486,0.005-0.972,0-1.458c-0.196-35.226-3.717-70.354-10.517-104.917
	c-1.141-5.779,2.619-11.39,8.398-12.531c5.779-1.141,11.39,2.619,12.531,8.398c0.042,0.21,0.077,0.422,0.105,0.634
	c6.979,35.722,10.6,72.019,10.816,108.416c0.521,52.498-41.615,95.479-94.113,96C182.81,512.225,182.181,512.225,181.552,512.219z"
	/>
<path d="M96.219,277.552c-52.498,0.521-95.479-41.615-96-94.113c-0.006-0.629-0.006-1.258,0-1.887
	c-3.017-38.22,25.52-71.649,63.74-74.667c3.637-0.287,7.29-0.287,10.927,0h3.605c25.228-2.945,50.378,6.104,67.947,24.448
	L221.104,206c4.092,4.237,3.975,10.99-0.262,15.083c-4.134,3.992-10.687,3.992-14.82,0l-74.667-74.667
	c-13.568-14.331-33.284-21.126-52.8-18.197h-3.669c-26.538-2.917-50.417,16.232-53.333,42.771c-0.386,3.51-0.386,7.052,0,10.563
	c-0.403,40.835,32.374,74.264,73.209,74.667c0.486,0.005,0.972,0.005,1.458,0c35.226-0.196,70.354-3.717,104.917-10.517
	c5.779-1.141,11.39,2.619,12.531,8.398c1.141,5.779-2.619,11.39-8.398,12.531c-0.21,0.042-0.422,0.077-0.634,0.105
	C168.913,273.715,132.616,277.337,96.219,277.552z"/>
<path d="M430.427,405.552c-24.091,2.199-47.852-6.828-64.405-24.469l-74.667-74.667c-4.092-4.237-3.975-10.99,0.262-15.083
	c4.134-3.992,10.687-3.992,14.82,0L381.104,366c13.619,14.239,33.276,21.024,52.779,18.219h3.669
	c26.538,2.917,50.417-16.232,53.333-42.771c0.386-3.51,0.386-7.052,0-10.563c0.403-40.835-32.374-74.264-73.209-74.667
	c-0.486-0.005-0.972-0.005-1.458,0c-35.226,0.196-70.354,3.717-104.917,10.517c-5.779,1.141-11.39-2.619-12.531-8.398
	c-1.141-5.779,2.619-11.39,8.398-12.531c0.21-0.042,0.422-0.077,0.634-0.105c35.722-6.979,72.019-10.6,108.416-10.816
	c52.498-0.521,95.479,41.615,96,94.113c0.006,0.629,0.006,1.258,0,1.887c3.017,38.22-25.52,71.649-63.74,74.667
	c-3.637,0.287-7.29,0.287-10.927,0H430.427z"/>
<path d="M416.219,256.219c-5.891,0-10.667-4.776-10.667-10.667s4.776-10.667,10.667-10.667
	c28.759-1.616,51.717-24.574,53.333-53.333c0.081-9.155-4.522-17.717-12.203-22.699c-24.569-13.526-53.413-17.042-80.512-9.813
	c-5.553,1.966-11.649-0.941-13.615-6.495c-1.966-5.553,0.941-11.649,6.495-13.615c0.182-0.064,0.365-0.124,0.55-0.178
	c33.584-9.238,69.469-4.628,99.627,12.8c13.226,9.002,21.098,24.001,20.992,40C489.517,222.209,456.876,254.85,416.219,256.219z"/>
<path d="M107.846,388.23c-23.014,0.846-45.755-5.209-65.301-17.387c-13.214-8.993-21.084-23.974-20.992-39.957
	c1.369-40.657,34.01-73.298,74.667-74.667c5.891,0,10.667,4.776,10.667,10.667c0,5.891-4.776,10.667-10.667,10.667
	c-28.759,1.616-51.718,24.574-53.333,53.333c-0.081,9.155,4.522,17.716,12.203,22.699c24.569,13.526,53.413,17.042,80.512,9.813
	c5.652-1.663,11.581,1.571,13.243,7.223c1.599,5.436-1.331,11.174-6.673,13.065C131.018,386.896,119.449,388.427,107.846,388.23z"/>
<path d="M138.886,149.552c-4.628,0.003-8.729-2.979-10.155-7.381c-9.238-33.584-4.628-69.469,12.8-99.627
	c9.006-13.233,24.015-21.105,40.021-20.992c40.657,1.369,73.298,34.01,74.667,74.667c0,5.891-4.776,10.667-10.667,10.667
	s-10.667-4.776-10.667-10.667c-1.616-28.759-24.574-51.718-53.333-53.333c-9.155-0.081-17.717,4.522-22.699,12.203
	c-13.526,24.569-17.042,53.413-9.813,80.512c1.814,5.605-1.258,11.619-6.863,13.433
	C141.114,149.378,140.003,149.553,138.886,149.552z"/>
<path d="M330.886,490.886c-40.657-1.369-73.298-34.01-74.667-74.667c0-5.891,4.776-10.667,10.667-10.667
	c5.891,0,10.667,4.776,10.667,10.667c1.616,28.759,24.574,51.717,53.333,53.333c9.155,0.081,17.716-4.522,22.699-12.203
	c13.526-24.569,17.042-53.413,9.813-80.512c-1.663-5.652,1.571-11.581,7.223-13.243c5.436-1.599,11.174,1.331,13.065,6.673
	c9.238,33.584,4.628,69.469-12.8,99.627C361.884,483.12,346.884,490.992,330.886,490.886z"/>
<path d="M74.886,373.552c-5.891,0-10.667-4.776-10.667-10.667v-85.333c0-5.891,4.776-10.667,10.667-10.667
	s10.667,4.776,10.667,10.667v85.333C85.552,368.777,80.777,373.552,74.886,373.552z"/>
<path d="M117.552,384.219c-5.891,0-10.667-4.776-10.667-10.667v-96c0-5.891,4.776-10.667,10.667-10.667s10.667,4.776,10.667,10.667
	v96C128.219,379.443,123.443,384.219,117.552,384.219z"/>
<path d="M160.219,362.886c-5.891,0-10.667-4.776-10.667-10.667v-85.333c0-5.891,4.776-10.667,10.667-10.667
	c5.891,0,10.667,4.776,10.667,10.667v85.333C170.886,358.11,166.11,362.886,160.219,362.886z"/>
<path d="M202.886,320.219c-5.891,0-10.667-4.776-10.667-10.667v-42.667c0-5.891,4.776-10.667,10.667-10.667
	s10.667,4.776,10.667,10.667v42.667C213.552,315.443,208.777,320.219,202.886,320.219z"/>
<g>
</g>
<g>
</g>
<g>
</g>
<g>
</g>
<g>
</g>
<g>
</g>
<g>
</g>
<g>
</g>
<g>
</g>
<g>
</g>
<g>
</g>
<g>
</g>
<g>
</g>
<g>
</g>
<g>
</g>
</svg>
