<?xml version="1.0" encoding="iso-8859-1"?>
<!-- Generator: Adobe Illustrator 19.0.0, SVG Export Plug-In . SVG Version: 6.00 Build 0)  -->
<svg version="1.1" id="Capa_1" xmlns="http://www.w3.org/2000/svg" xmlns:xlink="http://www.w3.org/1999/xlink" x="0px" y="0px"
	 viewBox="0 0 512.023 512.023" style="enable-background:new 0 0 512.023 512.023;" xml:space="preserve">
<path style="fill:#4CAF50;" d="M256.014,0.007C132.302,0.028,32.032,100.334,32.053,224.046
	c0.021,119.535,93.896,217.992,213.294,223.705v53.589c-0.009,5.891,4.759,10.674,10.65,10.684c1.061,0.002,2.117-0.155,3.132-0.465
	c123.84-37.589,220.885-163.819,220.885-287.552C479.885,100.348,379.672,0.136,256.014,0.007z"/>
<g>
	<path style="fill:#FAFAFA;" d="M234.681,149.34h-85.333c-5.891,0-10.667,4.776-10.667,10.667v85.333
		c0,5.891,4.776,10.667,10.667,10.667h53.333v32c-0.006,4.247,2.508,8.093,6.4,9.792c1.349,0.577,2.8,0.874,4.267,0.875
		c2.71,0.002,5.318-1.028,7.296-2.88c14.295-13.106,23.118-31.124,24.704-50.453v-85.333
		C245.347,154.116,240.572,149.34,234.681,149.34z"/>
	<path style="fill:#FAFAFA;" d="M362.681,149.34h-85.333c-5.891,0-10.667,4.776-10.667,10.667v85.333
		c0,5.891,4.776,10.667,10.667,10.667h53.333v32c-0.006,4.247,2.508,8.093,6.4,9.792c1.349,0.577,2.8,0.874,4.267,0.875
		c2.71,0.001,5.318-1.028,7.296-2.88c14.295-13.106,23.118-31.124,24.704-50.453v-85.333
		C373.347,154.116,368.572,149.34,362.681,149.34z"/>
</g>
<path d="M256.014,512.007c-5.891,0-10.667-4.776-10.667-10.667v-53.589C121.776,441.86,26.377,336.909,32.268,213.338
	S143.109-5.632,266.681,0.259c119.43,5.694,213.334,104.182,213.333,223.748c0,123.733-97.024,249.963-220.907,287.552
	C258.103,511.857,257.061,512.008,256.014,512.007z M256.014,21.34c-111.93,0-202.667,90.737-202.667,202.667
	s90.737,202.667,202.667,202.667c5.891,0,10.667,4.776,10.667,10.667v49.067c107.072-39.552,192-154.219,192-262.4
	C458.551,112.13,367.89,21.469,256.014,21.34z"/>
<path d="M213.347,298.673c-5.891,0-10.667-4.776-10.667-10.667v-32h-53.333c-5.891,0-10.667-4.776-10.667-10.667v-85.333
	c0-5.891,4.776-10.667,10.667-10.667h85.333c5.891,0,10.667,4.776,10.667,10.667v85.333c-1.59,19.328-10.412,37.345-24.704,50.453
	C218.665,297.645,216.057,298.675,213.347,298.673z M160.014,234.673h53.333c5.809-0.001,10.551,4.646,10.667,10.453v-74.453h-64
	V234.673z"/>
<path d="M341.347,298.673c-5.891,0-10.667-4.776-10.667-10.667v-32h-53.333c-5.891,0-10.667-4.776-10.667-10.667v-85.333
	c0-5.891,4.776-10.667,10.667-10.667h85.333c5.891,0,10.667,4.776,10.667,10.667v85.333c-1.59,19.328-10.412,37.345-24.704,50.453
	C346.665,297.645,344.057,298.675,341.347,298.673z M288.014,234.673h53.333c5.809-0.001,10.551,4.646,10.667,10.453v-74.453h-64
	V234.673z"/>
<g>
</g>
<g>
</g>
<g>
</g>
<g>
</g>
<g>
</g>
<g>
</g>
<g>
</g>
<g>
</g>
<g>
</g>
<g>
</g>
<g>
</g>
<g>
</g>
<g>
</g>
<g>
</g>
<g>
</g>
</svg>
