<?xml version="1.0" encoding="iso-8859-1"?>
<!-- Generator: Adobe Illustrator 19.0.0, SVG Export Plug-In . SVG Version: 6.00 Build 0)  -->
<svg version="1.1" id="Capa_1" xmlns="http://www.w3.org/2000/svg" xmlns:xlink="http://www.w3.org/1999/xlink" x="0px" y="0px"
	 viewBox="0 0 469.414 469.414" style="enable-background:new 0 0 469.414 469.414;" xml:space="preserve">
<g>
	<path style="fill:#455A64;" d="M245.414,197.23h-85.333c-5.891,0-10.667,4.776-10.667,10.667v39.125
		c-9.408-5.227-21.333-18.112-21.333-49.792c0-40.256,15.573-56.469,25.451-61.867c1.387,12.907,5.184,40.533,38.549,40.533
		c42.027,0,64-26.837,64-53.333c0-25.728-25.6-64-96-64c-67.093,0-160,48.192-160,138.667
		c-1.869,54.225,29.812,104.013,79.723,125.291c-3.826,14.32-2.767,29.507,3.008,43.157c13.739,29.736,44.632,47.681,77.269,44.885
		c61.867,0,96-34.133,96-96V207.896C256.081,202.005,251.305,197.23,245.414,197.23z M157.947,347.63
		c-1.599,0.649-3.309,0.982-5.035,0.981c-4.248-0.101-8.267-1.944-11.115-5.099c-4.356-3.882-6.711-9.533-6.4-15.36
		c1.498-7.762,6.411-14.437,13.376-18.176c1.315-0.872,2.563-1.842,3.733-2.901c4.147-4.184,10.901-4.213,15.085-0.066
		c2.073,2.055,3.214,4.87,3.155,7.789C170.15,342.68,161.019,346.35,157.947,347.63z"/>
	<path style="fill:#455A64;" d="M352.081,133.23c-64.683,0-117.333,43.072-117.333,96s52.651,96,117.333,96
		s117.333-43.072,117.333-96S416.763,133.23,352.081,133.23z M362.747,271.896c0,5.891-4.776,10.667-10.667,10.667
		c-5.891,0-10.667-4.776-10.667-10.667v-85.333c0-5.891,4.776-10.667,10.667-10.667c5.891,0,10.667,4.776,10.667,10.667V271.896z"/>
</g>
<path d="M160.081,410.563c-32.621,2.807-63.512-15.098-77.291-44.8c-5.76-13.662-6.811-28.853-2.987-43.179
	C29.87,301.298-1.815,251.477,0.081,197.23c0-90.475,92.907-138.667,160-138.667c70.4,0,96,38.272,96,64
	c0,26.496-21.973,53.333-64,53.333c-33.344,0-37.163-27.563-38.528-40.533c-9.899,5.333-25.472,21.632-25.472,61.867
	c0,31.68,11.925,44.544,21.333,49.771v-39.104c0-5.891,4.776-10.667,10.667-10.667h85.333c5.891,0,10.667,4.776,10.667,10.667
	v106.667C256.081,376.472,221.947,410.563,160.081,410.563z M160.081,79.896c-48.363,0-138.667,34.411-138.667,117.333
	c0,66.133,48.341,106.667,74.667,106.667c5.891-0.011,10.675,4.757,10.686,10.648c0.005,2.84-1.123,5.565-3.134,7.571
	c-6.33,10.855-6.763,24.17-1.152,35.413c10.261,21.97,33.549,34.787,57.6,31.701c50.24,0,74.667-24.427,74.667-74.667v-96h-64
	v42.667c0.001,2.918-1.194,5.709-3.307,7.723c-2.099,2.035-4.952,3.102-7.872,2.944c-0.533,0-52.843-3.307-52.843-74.667
	c0-64.469,35.925-85.333,53.333-85.333c12.437,0,13.824,13.184,14.571,20.267c1.643,15.573,3.776,22.4,17.429,22.4
	c29.312,0,42.667-16.576,42.667-32C234.747,106.072,214.481,79.896,160.081,79.896z"/>
<path d="M152.977,348.526c-4.247-0.103-8.266-1.947-11.115-5.099c-4.356-3.882-6.711-9.533-6.4-15.36
	c1.495-7.763,6.409-14.44,13.376-18.176c1.305-0.878,2.545-1.847,3.712-2.901c4.17-4.161,10.924-4.153,15.085,0.017
	c2.058,2.063,3.183,4.878,3.112,7.791c-0.597,27.904-9.728,31.573-12.8,32.768C156.366,348.197,154.679,348.523,152.977,348.526z"/>
<path d="M352.081,325.23c-64.704,0-117.333-43.072-117.333-96s52.629-96,117.333-96s117.333,43.072,117.333,96
	S416.785,325.23,352.081,325.23z M352.081,154.563c-52.928,0-96,33.493-96,74.667s43.072,74.667,96,74.667s96-33.493,96-74.667
	S405.009,154.563,352.081,154.563z"/>
<path d="M352.081,282.563c-5.891,0-10.667-4.776-10.667-10.667v-85.333c0-5.891,4.776-10.667,10.667-10.667
	c5.891,0,10.667,4.776,10.667,10.667v85.333C362.747,277.787,357.972,282.563,352.081,282.563z"/>
<g>
</g>
<g>
</g>
<g>
</g>
<g>
</g>
<g>
</g>
<g>
</g>
<g>
</g>
<g>
</g>
<g>
</g>
<g>
</g>
<g>
</g>
<g>
</g>
<g>
</g>
<g>
</g>
<g>
</g>
</svg>
