<?xml version="1.0" encoding="iso-8859-1"?>
<!-- Generator: Adobe Illustrator 19.0.0, SVG Export Plug-In . SVG Version: 6.00 Build 0)  -->
<svg version="1.1" id="Capa_1" xmlns="http://www.w3.org/2000/svg" xmlns:xlink="http://www.w3.org/1999/xlink" x="0px" y="0px"
	 viewBox="0 0 520.065 520.065" style="enable-background:new 0 0 520.065 520.065;" xml:space="preserve">
<path style="fill:#607D8B;" d="M410.397,247.087l-0.213-0.213L410.397,247.087z"/>
<path d="M410.248,257.754c-2.775-0.002-5.434-1.116-7.381-3.093l-0.213-0.213c-4.093-4.237-3.975-10.99,0.262-15.083
	c4.134-3.993,10.687-3.993,14.821,0c4.254,4.076,4.398,10.828,0.322,15.082c-2.038,2.127-4.865,3.316-7.81,3.286V257.754z"/>
<path style="fill:#FFC107;" d="M420.85,246.66c-0.019-2.019-0.587-3.996-1.643-5.717c-41.847-63.712-94.017-120.007-154.368-166.571
	c-4.646-3.622-11.349-2.791-14.97,1.856c-2.635,3.381-2.991,8.012-0.902,11.755c28.056,52.253,43.177,110.469,44.096,169.771
	c0,3.413,0,6.656-0.192,10.069c-0.126,2.942,0.952,5.807,2.987,7.936c0.323,0.332,0.665,0.645,1.024,0.939
	c16.917,17.835,74.347,108.651,63.147,166.763c-0.984,5.148,1.919,10.249,6.848,12.032c1.162,0.426,2.389,0.643,3.627,0.64
	c3.889-0.001,7.469-2.118,9.344-5.525c27.641-60.509,41.709-126.332,41.216-192.853C421.064,253.914,421.064,250.095,420.85,246.66z
	"/>
<path style="fill:#2196F3;" d="M228.275,253.743c-12.139-29.909-69.163-90.283-127.211-134.656
	c-23.179-18.176-56.703-14.12-74.879,9.059s-14.12,56.703,9.059,74.879c0.864,0.677,1.748,1.327,2.651,1.95
	c84.693,51.861,134.187,171.307,130.133,196.075c-0.915,5.524,2.597,10.815,8.043,12.117c0.817,0.202,1.655,0.302,2.496,0.299
	c4.664-0.003,8.786-3.036,10.176-7.488c1.055-2.609,2.446-5.069,4.139-7.317c24.681-42.792,37.192-91.518,36.181-140.907
	C229.055,256.379,228.788,255.018,228.275,253.743z"/>
<path style="fill:#F44336;" d="M268.296,79.13c-11.641-27.057-43.012-39.555-70.069-27.914
	c-25.016,10.762-37.905,38.642-29.899,64.671c1.298,3.953,3.214,7.675,5.675,11.029c23.116,39.658,34.79,84.946,33.728,130.837
	c1.101,45.495-10.347,90.415-33.088,129.835c-2.602,3.499-4.665,7.368-6.123,11.477c-10.284,27.602,3.756,58.314,31.357,68.597
	c13.247,4.935,27.911,4.41,40.771-1.461c12.392-5.491,22.092-15.683,26.965-28.331c27.877-52.124,43.779-109.808,46.549-168.853
	c0.213-3.84,0.235-7.445,0.235-11.264C313.51,195.386,297.703,134.137,268.296,79.13z"/>
<path style="fill:#4CAF50;" d="M459.677,42.863c-10.358-27.574-41.108-41.53-68.682-31.172
	c-13.128,4.931-23.785,14.835-29.665,27.567c-6.078,13.392-6.356,28.7-0.768,42.304c24.628,54.146,37.706,112.829,38.4,172.309
	c0.192,3.435,0.192,6.848,0.192,10.261c0.539,63.456-12.846,126.257-39.211,183.979c-10.284,27.602,3.756,58.314,31.357,68.597
	c13.247,4.935,27.911,4.41,40.771-1.461c12.392-5.491,22.092-15.683,26.965-28.331c25.92-46.571,46.784-160,46.784-222.784
	S484.914,87.919,459.677,42.863z"/>
<path d="M218.397,471.087c-29.455,0.003-53.336-23.873-53.339-53.328c-0.001-6.337,1.128-12.624,3.334-18.566
	c1.587-4.154,3.694-8.089,6.272-11.712c22.732-39.383,34.173-84.269,33.067-129.728c1.066-45.871-10.609-91.14-33.728-130.773
	c-2.318-3.301-4.204-6.886-5.611-10.667c-10.468-27.535,3.367-58.342,30.901-68.811s58.342,3.367,68.811,30.901
	c29.426,55.27,45.294,116.742,46.293,179.349c-1,62.862-16.996,124.577-46.656,180.011
	C259.836,458.063,240.179,471.337,218.397,471.087z M218.397,65.754c-17.673,0.073-31.94,14.46-31.867,32.133
	c0.016,3.757,0.693,7.481,2,11.003c0.968,2.476,2.244,4.819,3.797,6.976c25.049,43.023,37.759,92.115,36.736,141.888
	c0.985,49.363-11.557,98.055-36.267,140.8c-1.799,2.484-3.289,5.178-4.437,8.021c-6.15,16.571,2.298,34.991,18.869,41.141
	c16.571,6.15,34.991-2.298,41.141-18.869c28.318-52.655,43.641-111.316,44.693-171.093c-0.945-59.257-16.026-117.432-43.989-169.685
	c-0.256-0.466-0.477-0.951-0.661-1.451C243.756,74.07,231.781,65.747,218.397,65.754z"/>
<path d="M410.397,513.754c-29.455,0.043-53.368-23.801-53.411-53.256c-0.009-6.369,1.122-12.689,3.341-18.659
	c26.484-57.727,39.936-120.576,39.403-184.085c0.614-62.971-12.581-125.312-38.656-182.635C349.05,48.23,361.1,16.684,387.989,4.66
	c26.889-12.025,58.435,0.025,70.459,26.914c0.61,1.364,1.162,2.753,1.656,4.164c25.685,47.083,46.293,159.595,46.293,222.016
	s-20.821,176.043-46.656,222.677C451.836,500.729,432.179,514.004,410.397,513.754z M410.397,23.087
	c-17.673,0.073-31.94,14.46-31.867,32.133c0.016,3.757,0.693,7.481,2,11.003c27.313,60.125,41.147,125.496,40.533,191.531
	c0.522,66.577-13.584,132.456-41.323,192.981c-5.75,16.754,3.171,34.997,19.925,40.747c16.754,5.75,34.997-3.171,40.747-19.925
	c22.443-40.768,44.651-147.947,44.651-213.803S462.856,84.719,441.074,45.402c-0.256-0.466-0.477-0.951-0.661-1.451
	C435.756,31.404,423.781,23.08,410.397,23.087z"/>
<path d="M410.397,257.754c-3.766-0.001-7.253-1.987-9.173-5.227c-40.415-61.709-90.893-116.203-149.333-161.216
	c-4.569-3.719-5.257-10.438-1.538-15.006c3.604-4.427,10.055-5.232,14.637-1.826c60.728,46.455,113.029,102.992,154.624,167.147
	c3.016,5.06,1.359,11.608-3.701,14.624C414.245,257.243,412.338,257.764,410.397,257.754z"/>
<path d="M370.418,456.154c-5.891,0.013-10.677-4.752-10.69-10.643c-0.002-0.724,0.071-1.447,0.216-2.157
	c11.413-59.008-47.808-151.616-63.744-167.573c-4.092-4.237-3.975-10.99,0.262-15.083c4.134-3.992,10.687-3.992,14.82,0
	c14.933,14.933,83.435,115.328,69.611,186.709C379.967,452.467,375.562,456.145,370.418,456.154z"/>
<path d="M178.397,413.487c-0.586,0.001-1.172-0.049-1.749-0.149c-5.813-0.958-9.748-6.446-8.791-12.259
	c0-0.003,0.001-0.005,0.001-0.008c4.096-24.853-45.333-144.448-129.984-196.267c-24.673-16.089-31.631-49.134-15.541-73.806
	s49.134-31.631,73.806-15.541c1.71,1.115,3.354,2.327,4.925,3.63c57.963,44.16,114.987,104.533,127.211,134.656
	c2.215,5.461-0.416,11.684-5.877,13.899c-5.461,2.215-11.684-0.416-13.899-5.877c-10.624-26.197-66.901-84.907-120.235-125.611
	c-14.142-10.599-34.199-7.726-44.798,6.416c-10.593,14.135-7.73,34.18,6.398,44.784c84.971,51.883,145.621,177.707,139.072,217.28
	C188.052,409.76,183.599,413.5,178.397,413.487z"/>
<g>
</g>
<g>
</g>
<g>
</g>
<g>
</g>
<g>
</g>
<g>
</g>
<g>
</g>
<g>
</g>
<g>
</g>
<g>
</g>
<g>
</g>
<g>
</g>
<g>
</g>
<g>
</g>
<g>
</g>
</svg>
