<?xml version="1.0" encoding="iso-8859-1"?>
<!-- Generator: Adobe Illustrator 19.0.0, SVG Export Plug-In . SVG Version: 6.00 Build 0)  -->
<svg version="1.1" id="Capa_1" xmlns="http://www.w3.org/2000/svg" xmlns:xlink="http://www.w3.org/1999/xlink" x="0px" y="0px"
	 viewBox="0 0 512.414 512.414" style="enable-background:new 0 0 512.414 512.414;" xml:space="preserve">
<path style="fill:#4CAF50;" d="M254.055,186.97L167.997,48.772c-1.97-3.231-5.542-5.135-9.323-4.971
	c-3.777,0.103-7.218,2.197-9.045,5.504L1.682,316.698c-1.87,3.383-1.764,7.512,0.277,10.795l86.059,138.219
	c1.956,3.146,5.405,5.052,9.109,5.035h0.213c3.777-0.103,7.218-2.197,9.045-5.504l147.947-267.456
	C256.211,194.398,256.105,190.257,254.055,186.97z"/>
<path style="fill:#2196F3;" d="M510.951,324.591c-1.918-3.305-5.458-5.332-9.28-5.312l-277.333,1.451
	c-3.796,0.015-7.297,2.046-9.195,5.333l-73.984,128.405c-2.946,5.102-1.198,11.625,3.904,14.571c1.64,0.947,3.503,1.44,5.397,1.429
	l277.333-1.451c3.795-0.015,7.297-2.046,9.195-5.333L510.994,335.3C512.903,331.982,512.887,327.895,510.951,324.591z"/>
<path style="fill:#FFC107;" d="M510.653,281.796L370.77,47.876c-1.939-3.236-5.443-5.207-9.216-5.184l-149.333,0.789
	c-5.891,0.022-10.649,4.816-10.626,10.707c0.007,1.917,0.531,3.798,1.517,5.442l139.883,233.941
	c1.939,3.236,5.443,5.207,9.216,5.184l149.333-0.789c5.891-0.022,10.649-4.816,10.626-10.707c-0.007-1.917-0.531-3.798-1.517-5.442
	L510.653,281.796z"/>
<path d="M95.997,468.335c-3.706,0.001-7.146-1.921-9.088-5.077L1.575,324.591c-2.021-3.294-2.103-7.423-0.213-10.795L150.695,47.13
	c2.878-5.14,9.378-6.975,14.518-4.097c1.586,0.888,2.918,2.166,3.871,3.713l85.333,138.667c2.021,3.294,2.103,7.423,0.213,10.795
	L105.298,462.874c-1.846,3.304-5.304,5.382-9.088,5.461H95.997z M23.037,318.746L95.57,436.612l137.408-245.333L160.445,73.412
	L23.037,318.746z"/>
<path d="M426.663,468.335H149.33c-5.891,0.002-10.668-4.772-10.67-10.663c-0.001-1.89,0.501-3.747,1.454-5.379l74.667-128
	c1.912-3.277,5.422-5.292,9.216-5.291H501.33c5.891-0.002,10.668,4.772,10.67,10.664c0.001,1.89-0.501,3.747-1.454,5.379
	l-74.667,128C433.967,466.322,430.458,468.336,426.663,468.335z M167.911,447.002h252.629l62.229-106.667H230.119L167.911,447.002z"
	/>
<path d="M501.33,297.668H351.997c-3.778,0.002-7.275-1.994-9.195-5.248L204.135,57.754c-2.993-5.074-1.305-11.614,3.769-14.606
	c1.644-0.969,3.517-1.48,5.426-1.479h149.333c3.778-0.002,7.275,1.994,9.195,5.248l138.667,234.667
	c2.993,5.074,1.305,11.614-3.769,14.606C505.112,297.159,503.238,297.67,501.33,297.668z M358.077,276.335h124.565L356.583,63.002
	H232.018L358.077,276.335z"/>
<g>
</g>
<g>
</g>
<g>
</g>
<g>
</g>
<g>
</g>
<g>
</g>
<g>
</g>
<g>
</g>
<g>
</g>
<g>
</g>
<g>
</g>
<g>
</g>
<g>
</g>
<g>
</g>
<g>
</g>
</svg>
