<?xml version="1.0" encoding="iso-8859-1"?>
<!-- Generator: Adobe Illustrator 19.0.0, SVG Export Plug-In . SVG Version: 6.00 Build 0)  -->
<svg version="1.1" id="Capa_1" xmlns="http://www.w3.org/2000/svg" xmlns:xlink="http://www.w3.org/1999/xlink" x="0px" y="0px"
	 viewBox="0 0 512 512" style="enable-background:new 0 0 512 512;" xml:space="preserve">
<g>
	<path style="fill:#F44336;" d="M270.829,267.947c-10.069-7.339-25.28-18.411-25.472-22.656c0-6.037,13.781-19.712,24.853-30.677
		c25.515-25.323,60.48-59.989,60.48-107.947c0.573-35.74-19.044-68.751-50.709-85.333h50.709c5.891,0,10.667-4.776,10.667-10.667
		S336.581,0,330.69,0H192.023c-9.238,0.031-18.456,0.887-27.541,2.56C206.957-5.909,251.565,32,264.557,88.597l0,0
		c13.291,57.323-10.88,111.936-53.867,121.963c-4.485,1.033-9.072,1.556-13.675,1.557c-38.635,0-76.437-36.267-88.299-87.467
		C95.639,67.904,119.383,13.888,161.453,3.179C99.519,12.344,53.579,65.392,53.357,128c0,73.408,68.672,99.819,118.101,105.451
		c-10.97,20.706-10.584,45.586,1.024,65.941C107.522,303.979,10.69,332.075,10.69,416c-0.764,22.599,7.871,44.503,23.851,60.501
		C67.757,509.248,126.061,512,156.503,512c3.648,0,6.869,0,9.6,0h4.587c1.813,0,181.333-3.179,181.333-117.333
		C352.023,327.104,303.17,291.52,270.829,267.947z M192.023,490.667c-54.123,0-117.333-22.336-117.333-85.333
		s73.088-106.667,138.667-106.667c1.914,0.001,3.794,0.516,5.44,1.493c9.28,5.504,90.56,55.211,90.56,105.173
		C309.357,456.32,248.685,490.667,192.023,490.667z"/>
	<path style="fill:#F44336;" d="M426.69,298.667c-5.891,0-10.667-4.776-10.667-10.667V160c0-5.891,4.776-10.667,10.667-10.667
		c5.891,0,10.667,4.776,10.667,10.667v128C437.357,293.891,432.581,298.667,426.69,298.667z"/>
	<path style="fill:#F44336;" d="M490.69,234.667h-128c-5.891,0-10.667-4.776-10.667-10.667c0-5.891,4.776-10.667,10.667-10.667h128
		c5.891,0,10.667,4.776,10.667,10.667C501.357,229.891,496.581,234.667,490.69,234.667z"/>
</g>
<path d="M156.503,512c-30.443,0-88.747-2.816-121.963-35.605C18.589,460.422,9.956,438.562,10.69,416
	c0-83.861,96.832-111.979,161.792-116.608c-11.608-20.356-11.994-45.235-1.024-65.941C122.029,227.776,53.357,201.344,53.357,128
	c0-83.2,71.445-128,138.667-128C261.037,0,330.69,32.981,330.69,106.667c0,48-34.965,82.667-60.48,107.989
	c-11.072,10.987-24.853,24.661-24.853,30.677c0.213,4.267,15.424,15.339,25.472,22.677c32.341,23.467,81.195,59.157,81.195,126.677
	C352.023,508.757,172.503,512,170.69,512h-4.587C163.373,512,160.151,512,156.503,512z M192.023,21.333
	C144.855,21.333,74.69,49.685,74.69,128c0,84.373,112.533,85.333,117.333,85.333c5.891-0.011,10.675,4.757,10.686,10.648
	c0.005,2.84-1.123,5.565-3.134,7.571c-18.865,19.846-18.686,51.049,0.405,70.677c3.923,4.394,3.542,11.137-0.853,15.061
	c-1.955,1.745-4.484,2.71-7.105,2.71c-1.6,0-160,1.088-160,96c-0.773,16.894,5.572,33.338,17.493,45.333
	c30.827,30.379,95.104,29.568,116.331,29.333h4.843c1.6,0,160-4.117,160-96c0-56.661-41.856-87.147-72.427-109.419
	c-19.861-14.549-34.24-24.981-34.24-39.915c0-14.933,13.76-28.565,31.168-45.824c24.149-23.979,54.165-53.76,54.165-92.843
	C309.357,39.253,235.607,21.333,192.023,21.333z"/>
<path d="M192.023,490.667c-54.123,0-117.333-22.336-117.333-85.333s73.088-106.667,138.667-106.667
	c1.914,0.001,3.794,0.516,5.44,1.493c9.28,5.504,90.56,55.211,90.56,105.173C309.357,456.32,248.685,490.667,192.023,490.667z
	 M210.434,320c-54.677,1.237-114.411,37.312-114.411,85.333c0,47.232,51.712,64,96,64c45.312,0,96-27.371,96-64
	C288.023,374.229,234.242,334.635,210.434,320z"/>
<path d="M197.015,212.096c-38.635,0-76.437-36.267-88.299-87.467C95.533,67.307,119.703,12.608,162.69,2.667
	s88.683,28.629,101.867,85.931l0,0c13.291,57.323-10.88,111.936-53.867,121.963C206.204,211.586,201.617,212.101,197.015,212.096z
	 M176.706,22.421c-3.102-0.003-6.194,0.348-9.216,1.045c-31.509,7.275-48.555,50.496-37.973,96.341
	c10.581,45.845,44.8,77.227,76.373,69.952s48.533-50.496,37.952-96.363C234.285,52.011,205.442,22.421,176.706,22.421z"/>
<path d="M330.69,21.333H192.023c-5.891,0-10.667-4.776-10.667-10.667S186.132,0,192.023,0H330.69
	c5.891,0,10.667,4.776,10.667,10.667S336.581,21.333,330.69,21.333z"/>
<path d="M426.69,298.667c-5.891,0-10.667-4.776-10.667-10.667V160c0-5.891,4.776-10.667,10.667-10.667
	c5.891,0,10.667,4.776,10.667,10.667v128C437.357,293.891,432.581,298.667,426.69,298.667z"/>
<path d="M490.69,234.667h-128c-5.891,0-10.667-4.776-10.667-10.667c0-5.891,4.776-10.667,10.667-10.667h128
	c5.891,0,10.667,4.776,10.667,10.667C501.357,229.891,496.581,234.667,490.69,234.667z"/>
<g>
</g>
<g>
</g>
<g>
</g>
<g>
</g>
<g>
</g>
<g>
</g>
<g>
</g>
<g>
</g>
<g>
</g>
<g>
</g>
<g>
</g>
<g>
</g>
<g>
</g>
<g>
</g>
<g>
</g>
</svg>
