<?xml version="1.0" encoding="iso-8859-1"?>
<!-- Generator: Adobe Illustrator 19.0.0, SVG Export Plug-In . SVG Version: 6.00 Build 0)  -->
<svg version="1.1" id="Capa_1" xmlns="http://www.w3.org/2000/svg" xmlns:xlink="http://www.w3.org/1999/xlink" x="0px" y="0px"
	 viewBox="0 0 512 512" style="enable-background:new 0 0 512 512;" xml:space="preserve">
<path style="fill:#455A64;" d="M256,0C114.615,0,0,114.615,0,256s114.615,256,256,256s256-114.615,256-256
	C511.847,114.678,397.322,0.153,256,0z M444.864,290.496c-4.937,27.524-27.678,48.344-55.531,50.837
	c-24.811,0-34.027-20.949-42.944-41.237c-3.914-9.609-8.601-18.884-14.016-27.733c-27.041-41.805-70.091-70.643-119.04-79.744
	v74.048c0.097,41.155-33.187,74.596-74.342,74.693c-34.402,0.081-64.387-23.398-72.56-56.815c-1.062-6.997-1.731-14.048-2.005-21.12
	c-0.27-2.466-0.413-4.944-0.427-7.424c0-106.039,85.961-192,192-192s192,85.961,192,192c0,2.475-0.235,4.992-0.469,7.488
	C447.324,272.545,446.432,281.573,444.864,290.496z"/>
<path d="M256,512C114.615,512,0,397.385,0,256S114.615,0,256,0s256,114.615,256,256C511.847,397.322,397.322,511.847,256,512z
	 M256,21.333C126.397,21.333,21.333,126.397,21.333,256S126.397,490.667,256,490.667S490.667,385.603,490.667,256
	C490.526,126.456,385.544,21.474,256,21.333z"/>
<path d="M389.333,341.333c-24.811,0-34.133-20.971-42.965-41.259c-3.917-9.569-8.597-18.808-13.995-27.627
	c-27.023-41.834-70.077-70.699-119.04-79.808v74.027c0.109,41.155-33.166,74.605-74.32,74.714
	c-34.41,0.091-64.407-23.391-72.581-56.815c-1.068-7.004-1.745-14.062-2.027-21.141C64.235,261.333,64,258.667,64,256
	c0-106.039,85.961-192,192-192s192,85.961,192,192c0,2.475-0.235,4.971-0.448,7.445c-0.24,9.063-1.139,18.097-2.688,27.029
	C439.936,318.008,417.192,338.837,389.333,341.333z M202.667,170.667c57.984,0,119.339,46.485,147.627,90.219
	c6.018,9.777,11.24,20.021,15.616,30.635c9.088,20.693,13.461,28.501,23.467,28.501c15.083,0,29.035-13.76,34.752-34.133
	c1.242-7.822,1.955-15.719,2.133-23.637c0.235-2.56,0.427-4.267,0.427-6.123c0.035-94.262-76.351-170.706-170.613-170.741
	C161.812,85.351,85.369,161.738,85.333,256c0,2.133,0.192,4.053,0.384,6.101c0.256,6.613,0.853,12.651,1.643,18.475
	c6.09,23.317,27.207,39.544,51.307,39.424C168.122,320,192,296.122,192,266.667v-85.333
	C192,175.442,196.776,170.667,202.667,170.667z"/>
<g>
</g>
<g>
</g>
<g>
</g>
<g>
</g>
<g>
</g>
<g>
</g>
<g>
</g>
<g>
</g>
<g>
</g>
<g>
</g>
<g>
</g>
<g>
</g>
<g>
</g>
<g>
</g>
<g>
</g>
</svg>
