<?xml version="1.0" encoding="iso-8859-1"?>
<!-- Generator: Adobe Illustrator 19.0.0, SVG Export Plug-In . SVG Version: 6.00 Build 0)  -->
<svg version="1.1" id="Capa_1" xmlns="http://www.w3.org/2000/svg" xmlns:xlink="http://www.w3.org/1999/xlink" x="0px" y="0px"
	 viewBox="0 0 512 512" style="enable-background:new 0 0 512 512;" xml:space="preserve">
<path style="fill:#F44336;" d="M482.133,64.235c-4.921-0.982-9.872,1.542-11.968,6.101l-64.832,146.069V32
	c0.005-2.831-1.115-5.548-3.115-7.552L380.885,3.115c-2.004-1.999-4.721-3.12-7.552-3.115h-320
	c-2.831-0.005-5.548,1.115-7.552,3.115L24.448,24.448c-1.999,2.004-3.12,4.721-3.115,7.552v298.667
	c-0.005,2.831,1.115,5.548,3.115,7.552l21.333,21.333c2.004,1.999,4.721,3.12,7.552,3.115H320v64H53.333
	c-5.891,0-10.667,4.776-10.667,10.667V480c-0.005,2.831,1.115,5.548,3.115,7.552l21.333,21.333c2.004,1.999,4.721,3.12,7.552,3.115
	h298.667c2.831,0.005,5.548-1.115,7.552-3.115l21.333-21.333c1.999-2.004,3.12-4.721,3.115-7.552V354.837l83.947-146.88
	c0.914-1.613,1.392-3.437,1.387-5.291v-128C490.658,69.605,487.093,65.247,482.133,64.235z M106.667,277.333v-192H320v192H106.667z"
	/>
<path d="M373.333,512H74.667c-2.831,0.005-5.548-1.115-7.552-3.115l-21.333-21.333c-1.999-2.004-3.12-4.721-3.115-7.552v-42.667
	c0-5.891,4.776-10.667,10.667-10.667H320v-64H53.333c-2.831,0.005-5.548-1.115-7.552-3.115l-21.333-21.333
	c-1.999-2.004-3.12-4.721-3.115-7.552V32c-0.005-2.831,1.115-5.548,3.115-7.552L45.781,3.115c2.004-1.999,4.721-3.12,7.552-3.115
	h320c2.831-0.005,5.548,1.115,7.552,3.115l21.333,21.333c1.999,2.004,3.12,4.721,3.115,7.552v184.405L470.251,70.4
	c2.39-5.385,8.692-7.812,14.077-5.422c3.835,1.702,6.316,5.494,6.339,9.689v128c0.005,1.854-0.473,3.678-1.387,5.291l-83.947,146.88
	V480c0.005,2.831-1.115,5.548-3.115,7.552l-21.333,21.333C378.881,510.885,376.164,512.005,373.333,512z M79.083,490.667h289.835
	L384,475.584V352c-0.005-1.854,0.473-3.678,1.387-5.291l83.947-146.88v-74.901l-64.917,146.005
	c-2.39,5.385-8.692,7.812-14.077,5.422c-3.835-1.702-6.316-5.494-6.339-9.689V36.416l-15.083-15.083H57.749L42.667,36.416v289.835
	l15.083,15.083h272.917c5.891,0,10.667,4.776,10.667,10.667v85.333c0,5.891-4.776,10.667-10.667,10.667H64v27.584L79.083,490.667z
	 M330.667,298.667H96c-5.891,0-10.667-4.776-10.667-10.667V74.667C85.333,68.776,90.109,64,96,64h234.667
	c5.891,0,10.667,4.776,10.667,10.667V288C341.333,293.891,336.558,298.667,330.667,298.667z M106.667,277.333H320v-192H106.667
	V277.333z"/>
<g>
</g>
<g>
</g>
<g>
</g>
<g>
</g>
<g>
</g>
<g>
</g>
<g>
</g>
<g>
</g>
<g>
</g>
<g>
</g>
<g>
</g>
<g>
</g>
<g>
</g>
<g>
</g>
<g>
</g>
</svg>
