<?xml version="1.0" encoding="iso-8859-1"?>
<!-- Generator: Adobe Illustrator 19.0.0, SVG Export Plug-In . SVG Version: 6.00 Build 0)  -->
<svg version="1.1" id="Capa_1" xmlns="http://www.w3.org/2000/svg" xmlns:xlink="http://www.w3.org/1999/xlink" x="0px" y="0px"
	 viewBox="0 0 490.667 490.667" style="enable-background:new 0 0 490.667 490.667;" xml:space="preserve">
<path style="fill:#EC407A;" d="M417.078,11.456C410.995,4.164,401.977-0.036,392.48,0H119.414C89.958,0,66.08,23.878,66.08,53.334
	v397.312c0.002,22.103,17.922,40.02,40.025,40.018c11.541-0.001,22.52-4.984,30.119-13.671L273.526,320h55.467
	c25.841-0.002,47.964-18.528,52.501-43.968l18.795-105.365H226.08c-5.891,0-10.667-4.776-10.667-10.667
	c0-5.891,4.776-10.667,10.667-10.667H404.15l19.947-111.701C425.749,28.298,423.179,18.711,417.078,11.456z"/>
<path d="M106.038,490.667c-22.06-0.059-39.922-17.94-39.957-40V53.334C66.08,23.878,89.958,0,119.414,0H392.48
	c17.673-0.005,32.004,14.318,32.009,31.991c0.001,1.891-0.167,3.779-0.5,5.641l-42.667,238.421
	c-4.537,25.376-26.574,43.875-52.352,43.947h-55.467L136.139,476.992C128.55,485.682,117.575,490.668,106.038,490.667z
	 M119.414,21.334c-17.673,0-32,14.327-32,32v397.333c-0.016,10.309,8.328,18.68,18.637,18.696
	c5.399,0.008,10.537-2.321,14.088-6.387l140.587-160.64c2.019-2.323,4.943-3.661,8.021-3.669h60.288
	c15.486-0.029,28.73-11.143,31.445-26.389l42.667-238.4c1.038-5.799-2.822-11.341-8.621-12.379c-0.675-0.121-1.36-0.176-2.045-0.165
	H119.414z"/>
<path d="M386.08,170.667h-160c-5.891,0-10.667-4.776-10.667-10.667c0-5.891,4.776-10.667,10.667-10.667h160
	c5.891,0,10.667,4.776,10.667,10.667C396.747,165.891,391.971,170.667,386.08,170.667z"/>
<g>
</g>
<g>
</g>
<g>
</g>
<g>
</g>
<g>
</g>
<g>
</g>
<g>
</g>
<g>
</g>
<g>
</g>
<g>
</g>
<g>
</g>
<g>
</g>
<g>
</g>
<g>
</g>
<g>
</g>
</svg>
