<?xml version="1.0" encoding="iso-8859-1"?>
<!-- Generator: Adobe Illustrator 19.0.0, SVG Export Plug-In . SVG Version: 6.00 Build 0)  -->
<svg version="1.1" id="Capa_1" xmlns="http://www.w3.org/2000/svg" xmlns:xlink="http://www.w3.org/1999/xlink" x="0px" y="0px"
	 viewBox="0 0 512 512" style="enable-background:new 0 0 512 512;" xml:space="preserve">
<path style="fill:#795548;" d="M256,0C114.615,0,0,114.615,0,256s114.615,256,256,256s256-114.615,256-256
	C511.847,114.678,397.322,0.153,256,0z"/>
<path style="fill:#FAFAFA;" d="M399.915,216.619c-1.06-3.858-4.19-6.799-8.107-7.616c-3.907-0.769-7.923,0.654-10.475,3.712
	c-20.16,25.154-56.894,29.203-82.048,9.043s-29.203-56.894-9.043-82.048c2.674-3.336,5.706-6.369,9.043-9.043
	c4.576-3.71,5.279-10.427,1.57-15.003c-1.41-1.74-3.333-2.992-5.495-3.578c-79.788-22.056-162.35,24.745-184.406,104.533
	s24.745,162.35,104.533,184.406c79.788,22.056,162.35-24.745,184.406-104.533c7.224-26.134,7.224-53.739,0-79.873H399.915z"/>
<path d="M256,512C114.615,512,0,397.385,0,256S114.615,0,256,0s256,114.615,256,256C511.835,397.317,397.317,511.835,256,512z
	 M256,21.333C126.397,21.333,21.333,126.397,21.333,256S126.397,490.667,256,490.667S490.667,385.603,490.667,256
	C490.526,126.456,385.544,21.474,256,21.333z M256,405.333c-82.474,0.222-149.513-66.457-149.735-148.931
	s66.457-149.513,148.931-149.735c13.578-0.037,27.098,1.779,40.185,5.396c5.683,1.55,9.034,7.415,7.483,13.098
	c-0.589,2.158-1.841,4.076-3.579,5.483c-25.182,20.143-29.268,56.887-9.124,82.069s56.887,29.268,82.069,9.124
	c3.369-2.695,6.429-5.755,9.124-9.124c3.707-4.579,10.423-5.286,15.002-1.579c1.739,1.407,2.991,3.326,3.579,5.483
	c21.962,79.277-24.5,161.347-103.777,183.309C283.081,403.55,269.57,405.369,256,405.333z M256,128c-70.692,0-128,57.308-128,128
	s57.308,128,128,128s128-57.308,128-128c-0.005-5.2-0.34-10.394-1.003-15.552c-13.575,10.076-30.027,15.528-46.933,15.552
	c-44.188-0.012-80.017-35.812-80.064-80c0.024-16.906,5.476-33.358,15.552-46.933C266.396,128.382,261.201,128.026,256,128z"/>
<g>
</g>
<g>
</g>
<g>
</g>
<g>
</g>
<g>
</g>
<g>
</g>
<g>
</g>
<g>
</g>
<g>
</g>
<g>
</g>
<g>
</g>
<g>
</g>
<g>
</g>
<g>
</g>
<g>
</g>
</svg>
