<?xml version="1.0" encoding="iso-8859-1"?>
<!-- Generator: Adobe Illustrator 19.0.0, SVG Export Plug-In . SVG Version: 6.00 Build 0)  -->
<svg version="1.1" id="Capa_1" xmlns="http://www.w3.org/2000/svg" xmlns:xlink="http://www.w3.org/1999/xlink" x="0px" y="0px"
	 viewBox="0 0 512 512" style="enable-background:new 0 0 512 512;" xml:space="preserve">
<circle style="fill:#9C27B0;" cx="117.333" cy="256" r="117.333"/>
<circle style="fill:#1565C0;" cx="394.667" cy="256" r="117.333"/>
<path d="M117.333,373.333C52.532,373.333,0,320.801,0,256s52.532-117.333,117.333-117.333S234.667,191.199,234.667,256
	C234.596,320.772,182.106,373.263,117.333,373.333z M117.333,160c-53.019,0-96,42.981-96,96s42.981,96,96,96s96-42.981,96-96
	S170.353,160,117.333,160z"/>
<path d="M394.667,373.333c-64.801,0-117.333-52.532-117.333-117.333s52.532-117.333,117.333-117.333S512,191.199,512,256
	C511.929,320.772,459.439,373.263,394.667,373.333z M394.667,160c-53.019,0-96,42.981-96,96s42.981,96,96,96s96-42.981,96-96
	S447.686,160,394.667,160z"/>
<g>
</g>
<g>
</g>
<g>
</g>
<g>
</g>
<g>
</g>
<g>
</g>
<g>
</g>
<g>
</g>
<g>
</g>
<g>
</g>
<g>
</g>
<g>
</g>
<g>
</g>
<g>
</g>
<g>
</g>
</svg>
