<?xml version="1.0" encoding="iso-8859-1"?>
<!-- Generator: Adobe Illustrator 19.0.0, SVG Export Plug-In . SVG Version: 6.00 Build 0)  -->
<svg version="1.1" id="Capa_1" xmlns="http://www.w3.org/2000/svg" xmlns:xlink="http://www.w3.org/1999/xlink" x="0px" y="0px"
	 viewBox="0 0 512.021 512.021" style="enable-background:new 0 0 512.021 512.021;" xml:space="preserve">
<path style="fill:#F44336;" d="M448,333.877c-1.067-61.461-16.512-135.915-112.533-183.467c-5.282-2.608-11.679-0.441-14.287,4.841
	c-0.982,1.988-1.32,4.234-0.966,6.423c3.484,16.803-0.936,34.276-11.989,47.403c-11.236,12.349-26.234,20.643-42.667,23.595
	c7.895-15.95,11.928-33.532,11.776-51.328c0-48.128-42.667-110.144-44.011-111.851c-10.457-18.104-17.249-38.089-19.989-58.816
	c-0.012-5.891-4.798-10.657-10.689-10.644c-2.774,0.006-5.437,1.092-7.423,3.028c-48.235,47.104-160,156.331-123.264,327.253
	C25.451,349.877,0,376.373,0,405.343C0,465.077,112.448,512.01,256,512.01s256-46.933,256-106.667
	C512,377.909,489.877,353.311,448,333.877z"/>
<path style="fill:#FFC107;" d="M256,426.677c-69.18,1.37-126.426-53.491-128-122.667c0.029-25.97,8.597-51.209,24.384-71.829
	c3.509-4.732,10.19-5.722,14.922-2.213c2.473,1.834,4.033,4.648,4.278,7.717c2.374,45.252,39.118,81.086,84.416,82.325
	c45.322-1.206,82.103-37.049,84.48-82.325c0.47-5.872,5.611-10.252,11.483-9.782c3.069,0.245,5.883,1.805,7.717,4.278
	c15.767,20.627,24.312,45.867,24.32,71.829C382.426,373.185,325.18,428.047,256,426.677z"/>
<path d="M256,512.01c-143.552,0-256-46.933-256-106.667c0-28.971,25.451-55.467,71.957-75.051
	C35.115,159.349,146.987,50.143,195.221,3.039c4.219-4.112,10.972-4.026,15.084,0.193c1.941,1.992,3.028,4.663,3.028,7.444
	c2.727,20.723,9.52,40.704,19.989,58.795c1.344,1.728,44.011,63.744,44.011,111.872c0.16,17.746-3.844,35.282-11.691,51.2
	c16.431-2.956,31.428-11.249,42.667-23.595c10.999-13.12,15.392-30.551,11.925-47.317c-0.939-5.816,3.015-11.291,8.83-12.23
	c2.189-0.353,4.434-0.016,6.423,0.966c96,47.531,111.467,121.963,112.533,183.467c41.963,19.413,64,44.032,64,71.445
	C512,465.077,399.552,512.01,256,512.01z M195.349,32.906C144.299,84.426,58.603,185.61,94.741,334.282
	c1.268,5.215-1.537,10.56-6.549,12.48c-42.475,16.299-66.859,37.632-66.859,58.581c0,40.363,96.384,85.333,234.667,85.333
	s234.667-44.971,234.667-85.333c0-19.029-20.971-38.976-57.6-54.699c-3.892-1.699-6.406-5.545-6.4-9.792
	c0-56.171-10.667-118.699-84.395-162.453c-0.879,16.367-7.133,31.986-17.792,44.437c-20.382,21.928-49.221,34.015-79.147,33.173
	c-5.891,0-10.667-4.776-10.667-10.667c0-2.308,0.749-4.554,2.133-6.4c12.721-16.481,19.488-36.783,19.2-57.6
	c0-41.408-40.363-99.989-40.768-100.587C206.834,65.601,200.165,49.55,195.349,32.906z M256,426.677
	c-69.175,1.358-126.415-53.496-128-122.667c0.029-25.97,8.597-51.209,24.384-71.829c3.509-4.732,10.19-5.722,14.922-2.213
	c2.473,1.834,4.033,4.648,4.278,7.717c2.374,45.252,39.118,81.086,84.416,82.325c45.322-1.206,82.103-37.049,84.48-82.325
	c0.47-5.872,5.611-10.252,11.483-9.782c3.069,0.245,5.883,1.805,7.717,4.278c15.765,20.628,24.311,45.867,24.32,71.829
	C382.415,373.18,325.175,428.035,256,426.677z M156.309,268.063c-4.61,11.424-6.979,23.628-6.976,35.947
	c1.57,57.394,49.267,102.706,106.667,101.333c57.399,1.373,105.096-43.939,106.667-101.333c0.003-12.319-2.366-24.523-6.976-35.947
	c-17.35,55.064-76.052,85.637-131.116,68.287c-32.543-10.254-58.033-35.744-68.287-68.287L156.309,268.063z"/>
<g>
</g>
<g>
</g>
<g>
</g>
<g>
</g>
<g>
</g>
<g>
</g>
<g>
</g>
<g>
</g>
<g>
</g>
<g>
</g>
<g>
</g>
<g>
</g>
<g>
</g>
<g>
</g>
<g>
</g>
</svg>
