<?xml version="1.0" encoding="iso-8859-1"?>
<!-- Generator: Adobe Illustrator 19.0.0, SVG Export Plug-In . SVG Version: 6.00 Build 0)  -->
<svg version="1.1" id="Capa_1" xmlns="http://www.w3.org/2000/svg" xmlns:xlink="http://www.w3.org/1999/xlink" x="0px" y="0px"
	 viewBox="0 0 512.722 512.722" style="enable-background:new 0 0 512.722 512.722;" xml:space="preserve">
<g>
	<path style="fill:#757575;" d="M153.706,1.267c-3.985-1.654-8.574-0.745-11.627,2.304L56.746,88.904
		c-4.171,4.16-4.179,10.914-0.019,15.085c2.006,2.011,4.731,3.139,7.571,3.134h85.333c5.891,0,10.667-4.776,10.667-10.667V11.123
		C160.298,6.806,157.695,2.916,153.706,1.267z"/>
	<path style="fill:#757575;" d="M428.394,69.939c-17.156-17.612-40.847-27.322-65.429-26.816h-59.584l-0.789-0.789
		C285.12,24.669,261.162,0.456,234.965,0.456c-25.86-3.595-49.739,14.455-53.333,40.316c-0.6,4.318-0.6,8.699,0,13.018v42.667
		c0,17.673-14.327,32-32,32H64.298c-2.671,0.003-5.245,1.008-7.211,2.816c-17.537,19.673-26.465,45.549-24.789,71.851
		c0,62.72,26.752,181.333,128,181.333c41.237,0,69.696-8.533,86.976-25.813c10.118-10.467,16.545-23.949,18.304-38.4
		c15.118,13.428,34.506,21.062,54.72,21.547c28.928,0,53.333,39.317,53.333,64c0,24.363-12.928,42.667-21.333,42.667h-42.667
		c-10.069,0-21.333-4.565-21.333-10.667c0-5.163,11.221-10.667,32-10.667c5.891,0,10.667-4.776,10.667-10.667v-42.667
		c0-5.891-4.776-10.667-10.667-10.667c-20.288,0-96,10.859-96,64c-3.549,43.579,28.901,81.784,72.48,85.333
		c4.277,0.348,8.576,0.348,12.853,0h53.333c64.768,0,117.333-109.739,117.333-181.333l0.128-16.896
		C481.13,247.923,482.474,124.595,428.394,69.939z M412.352,275.421c-1.902,1.536-4.275,2.372-6.72,2.368
		c-0.717-0.01-1.431-0.089-2.133-0.235c-21.995-4.672-83.2-20.779-85.845-21.461c-4.684-1.23-7.952-5.461-7.957-10.304
		c0-18.027,19.307-53.333,42.667-53.333c36.011,0,64,59.563,64,74.667C416.351,270.354,414.876,273.405,412.352,275.421
		L412.352,275.421z"/>
</g>
<path d="M149.632,107.123H64.298c-5.891,0.011-10.675-4.757-10.686-10.648c-0.005-2.84,1.123-5.565,3.134-7.571L142.08,3.571
	c4.16-4.171,10.914-4.179,15.085-0.019c2.011,2.006,3.139,4.731,3.134,7.571v85.333
	C160.298,102.347,155.523,107.123,149.632,107.123z M90.048,85.789h48.917V36.872L90.048,85.789z"/>
<path d="M405.632,277.789c-0.717-0.006-1.432-0.085-2.133-0.235c-21.995-4.672-83.2-20.779-85.824-21.461
	c-4.684-1.23-7.952-5.461-7.957-10.304c0-18.027,19.307-53.333,42.667-53.333c36.011,0,64,59.563,64,74.667
	c0,5.891-4.776,10.667-10.667,10.667H405.632z M332.565,237.96c13.376,3.499,38.187,9.899,57.088,14.507
	c-7.893-16.213-23.317-38.677-37.355-38.677C346.453,213.789,336.426,226.995,332.565,237.96z"/>
<path d="M362.965,512.456h-53.333c-43.579,3.549-81.784-28.901-85.333-72.48c-0.348-4.277-0.348-8.576,0-12.853
	c0-53.141,75.733-64,96-64c5.891,0,10.667,4.776,10.667,10.667v42.667c0,5.891-4.776,10.667-10.667,10.667
	c-20.992,0-32,5.355-32,10.667c0,6.101,11.264,10.667,21.333,10.667h42.667c8.405,0,21.333-18.325,21.333-42.667
	c0-24.683-24.427-64-53.333-64c-20.226-0.521-39.614-8.193-54.72-21.653c-1.753,14.453-8.181,27.937-18.304,38.4
	c-17.28,17.387-45.739,25.92-86.976,25.92c-101.248,0-128-118.613-128-181.333c-1.686-26.309,7.243-52.196,24.789-71.872
	c1.969-1.801,4.542-2.798,7.211-2.795h85.333c17.673,0,32-14.327,32-32V53.789c-3.595-25.86,14.455-49.739,40.316-53.333
	c4.319-0.6,8.699-0.6,13.018,0c26.176,0,50.133,24.192,67.627,41.856l0.789,0.811h59.563c24.59-0.515,48.291,9.196,65.451,26.816
	c54.08,54.656,52.736,177.984,52.053,244.309l-0.128,16.875C480.298,402.717,427.733,512.456,362.965,512.456z M309.632,385.352
	c-21.696,2.837-64,13.269-64,41.771c-3.344,32.003,19.889,60.656,51.892,64c4.025,0.421,8.083,0.421,12.108,0h53.333
	c46.357,0,96-93.867,96-160l0.128-17.067c0.619-58.667,1.941-180.736-45.867-229.077c-13.123-13.603-31.367-21.052-50.261-20.523
	h-64c-2.831,0.005-5.548-1.115-7.552-3.115l-3.989-4.011c-13.909-14.208-35.243-35.541-52.459-35.541c-20.267,0-32,5.248-32,32
	v42.667c0,29.455-23.878,53.333-53.333,53.333H69.056c-10.942,15.562-16.371,34.333-15.424,53.333c0,6.528,1.216,160,106.667,160
	c25.553,2.805,51.219-4.178,71.829-19.541c11.229-14.495,16.108-32.919,13.525-51.072v-4.053c0-5.891,4.776-10.667,10.667-10.667
	c5.891,0,10.667,4.776,10.667,10.667c11.015,19.205,31.205,31.319,53.333,32c43.307,0,74.667,50.965,74.667,85.333
	c0,34.688-19.541,64-42.667,64h-42.667c-20.693,0-42.667-11.221-42.667-32c0-6.933,3.264-28.331,42.667-31.573L309.632,385.352z"/>
<g>
</g>
<g>
</g>
<g>
</g>
<g>
</g>
<g>
</g>
<g>
</g>
<g>
</g>
<g>
</g>
<g>
</g>
<g>
</g>
<g>
</g>
<g>
</g>
<g>
</g>
<g>
</g>
<g>
</g>
</svg>
