<?xml version="1.0" encoding="iso-8859-1"?>
<!-- Generator: Adobe Illustrator 19.0.0, SVG Export Plug-In . SVG Version: 6.00 Build 0)  -->
<svg version="1.1" id="Capa_1" xmlns="http://www.w3.org/2000/svg" xmlns:xlink="http://www.w3.org/1999/xlink" x="0px" y="0px"
	 viewBox="0 0 512.161 512.161" style="enable-background:new 0 0 512.161 512.161;" xml:space="preserve">
<path style="fill:#4CAF50;" d="M428.67,22.86l-3.029-6.101C419.692,5.443,407.468-1.125,394.75,0.161
	c-75.456,0-249.344,116.608-265.451,302.763c-17.138-41.848-24.984-86.918-22.997-132.096c0.004-8.828-5.615-16.678-13.973-19.52
	c-8.423-2.955-17.794-0.259-23.36,6.72c-31.163,40.288-47.907,89.867-47.552,140.8c0,102.741,73.429,213.333,234.667,213.333
	c173.205,0,234.667-137.899,234.667-256C489.946,174.419,468.598,94.191,428.67,22.86z"/>
<path d="M256.083,512.161c-161.237,0-234.667-110.592-234.667-213.333c-0.355-50.933,16.389-100.512,47.552-140.8
	c5.55-7.071,14.999-9.803,23.467-6.784c8.342,2.881,13.92,10.759,13.867,19.584l0,0c-2.019,45.233,5.821,90.364,22.976,132.267
	C145.406,116.769,319.294,0.161,394.75,0.161c12.719-1.292,24.947,5.278,30.891,16.597l3.029,6.101
	c39.928,71.332,61.276,151.559,62.08,233.301C490.75,374.262,429.289,512.161,256.083,512.161z M95.635,170.828H84.969
	c-27.492,37.006-42.299,81.9-42.219,128c0,71.317,44.928,192,213.333,192c157.461,0,213.333-126.421,213.333-234.667
	c-0.654-78.472-21.253-155.488-59.861-223.808l-3.051-6.123c-0.725-1.536-2.325-4.736-11.755-4.736
	c-70.741,0-245.333,123.285-245.333,309.333c-0.005,5.891-4.785,10.663-10.676,10.658c-2.188-0.002-4.322-0.676-6.114-1.932
	C92.286,311.265,85.417,221.75,84.969,170.828l0,0H95.635z"/>
<g>
</g>
<g>
</g>
<g>
</g>
<g>
</g>
<g>
</g>
<g>
</g>
<g>
</g>
<g>
</g>
<g>
</g>
<g>
</g>
<g>
</g>
<g>
</g>
<g>
</g>
<g>
</g>
<g>
</g>
</svg>
