<?xml version="1.0" encoding="iso-8859-1"?>
<!-- Generator: Adobe Illustrator 19.0.0, SVG Export Plug-In . SVG Version: 6.00 Build 0)  -->
<svg version="1.1" id="Capa_1" xmlns="http://www.w3.org/2000/svg" xmlns:xlink="http://www.w3.org/1999/xlink" x="0px" y="0px"
	 viewBox="0 0 512 512" style="enable-background:new 0 0 512 512;" xml:space="preserve">
<g>
	<path style="fill:#CFD8DC;" d="M32,341.333c-5.891,0.01-10.674-4.758-10.684-10.649c-0.004-2.646,0.975-5.2,2.748-7.164
		l192-213.333c3.947-4.377,10.695-4.726,15.072-0.779c4.377,3.947,4.726,10.695,0.779,15.072L70.251,304.107l363.136-143.36
		c5.522-2.051,11.662,0.763,13.713,6.286c1.992,5.365-0.604,11.346-5.884,13.554l-405.333,160
		C34.646,341.075,33.329,341.329,32,341.333z"/>
	
		<rect x="319.994" y="84.897" transform="matrix(-0.7474 0.6644 -0.6644 -0.7474 719.5237 153.0793)" style="fill:#CFD8DC;" width="21.333" height="256.853"/>
	
		<rect x="387.381" y="234.611" transform="matrix(-0.2423 0.9702 -0.9702 -0.2423 801.1749 -135.1333)" style="fill:#CFD8DC;" width="131.947" height="21.333"/>
	<path style="fill:#CFD8DC;" d="M277.333,394.667c-5.891,0.016-10.68-4.746-10.696-10.638c-0.012-4.431,2.717-8.409,6.856-9.992
		l138.667-53.333c5.502-2.115,11.677,0.631,13.792,6.133s-0.631,11.677-6.133,13.792l-138.667,53.333
		C279.932,394.426,278.638,394.665,277.333,394.667z"/>
	<path style="fill:#CFD8DC;" d="M224,405.333c-0.967-0.003-1.929-0.139-2.859-0.405l-192-53.333
		c-5.718-1.418-9.204-7.202-7.786-12.92c1.418-5.718,7.202-9.204,12.92-7.786c0.196,0.049,0.391,0.103,0.584,0.162l192,53.333
		c5.679,1.566,9.013,7.44,7.446,13.119C233.027,402.137,228.807,405.343,224,405.333z"/>
	<path style="fill:#CFD8DC;" d="M437.333,138.667h-1.195l-192-21.333c-5.858-0.619-10.106-5.87-9.487-11.728
		c0.005-0.044,0.01-0.089,0.015-0.133c0.776-5.782,5.966-9.928,11.776-9.408l192,21.333c5.891,0.324,10.404,5.362,10.08,11.253
		c-0.324,5.891-5.362,10.404-11.253,10.08L437.333,138.667z"/>
	<path style="fill:#CFD8DC;" d="M245.333,384c-5.72,0.005-10.426-4.503-10.667-10.219l-10.667-256
		c-0.252-5.886,4.314-10.861,10.2-11.114c0.006,0,0.013-0.001,0.019-0.001c5.863-0.171,10.793,4.362,11.115,10.219l10.667,256
		c0.252,5.886-4.314,10.861-10.2,11.114c-0.006,0-0.013,0.001-0.019,0.001H245.333z"/>
	<path style="fill:#CFD8DC;" d="M266.667,384c-5.891,0.002-10.668-4.773-10.67-10.664c-0.001-2.732,1.046-5.359,2.926-7.342
		l181.333-192c4.053-4.283,10.811-4.469,15.093-0.416c4.283,4.053,4.469,10.811,0.416,15.093l0,0l-181.333,192
		C272.412,382.803,269.603,384.007,266.667,384z"/>
	<path style="fill:#CFD8DC;" d="M234.667,384c-3.575,0.005-6.915-1.781-8.896-4.757l-64-96c-1.903-2.855-2.315-6.452-1.109-9.664
		l64-170.667c2.074-5.52,8.229-8.314,13.749-6.24c5.52,2.074,8.314,8.229,6.24,13.749l-62.08,165.547l60.971,91.456
		c3.264,4.904,1.934,11.526-2.971,14.79C238.821,383.377,236.768,383.999,234.667,384z"/>
</g>
<path style="fill:#F44336;" d="M21.333,320C9.551,320,0,329.551,0,341.333s9.551,21.333,21.333,21.333s21.333-9.551,21.333-21.333
	S33.115,320,21.333,320z"/>
<path style="fill:#9C27B0;" d="M170.667,256c-11.782,0-21.333,9.551-21.333,21.333s9.551,21.333,21.333,21.333
	c11.782,0,21.333-9.551,21.333-21.333S182.449,256,170.667,256z"/>
<circle style="fill:#FFC107;" cx="469.333" cy="149.333" r="42.667"/>
<path style="fill:#8BC34A;" d="M426.667,298.667c-11.782,0-21.333,9.551-21.333,21.333c0,11.782,9.551,21.333,21.333,21.333
	c11.782,0,21.333-9.551,21.333-21.333C448,308.218,438.449,298.667,426.667,298.667z"/>
<path style="fill:#FF5722;" d="M234.667,85.333c-11.782,0-21.333,9.551-21.333,21.333S222.885,128,234.667,128
	S256,118.449,256,106.667S246.449,85.333,234.667,85.333z"/>
<circle style="fill:#2196F3;" cx="245.333" cy="394.667" r="32"/>
<path d="M21.333,362.667C9.551,362.667,0,353.115,0,341.333S9.551,320,21.333,320s21.333,9.551,21.333,21.333
	S33.115,362.667,21.333,362.667z"/>
<path d="M170.667,298.667c-11.782,0-21.333-9.551-21.333-21.333S158.885,256,170.667,256c11.782,0,21.333,9.551,21.333,21.333
	S182.449,298.667,170.667,298.667z"/>
<path d="M469.333,192c-23.564,0-42.667-19.103-42.667-42.667s19.102-42.667,42.667-42.667S512,125.769,512,149.333
	S492.898,192,469.333,192z M469.333,128C457.551,128,448,137.551,448,149.333s9.551,21.333,21.333,21.333
	s21.333-9.551,21.333-21.333S481.115,128,469.333,128z"/>
<path d="M426.667,341.333c-11.782,0-21.333-9.551-21.333-21.333c0-11.782,9.551-21.333,21.333-21.333
	c11.782,0,21.333,9.551,21.333,21.333C448,331.782,438.449,341.333,426.667,341.333z"/>
<path d="M234.667,128c-11.782,0-21.333-9.551-21.333-21.333s9.551-21.333,21.333-21.333S256,94.885,256,106.667
	S246.449,128,234.667,128z"/>
<path d="M245.333,426.667c-17.673,0-32-14.327-32-32s14.327-32,32-32s32,14.327,32,32S263.006,426.667,245.333,426.667z
	 M245.333,384c-5.891,0-10.667,4.776-10.667,10.667c0,5.891,4.776,10.667,10.667,10.667c5.891,0,10.667-4.776,10.667-10.667
	C256,388.776,251.224,384,245.333,384z"/>
<path d="M32,341.333c-5.891-0.001-10.666-4.777-10.665-10.668c0-2.63,0.972-5.167,2.729-7.124l192-213.333
	c3.855-4.455,10.591-4.941,15.046-1.087c4.455,3.855,4.941,10.591,1.087,15.046c-0.092,0.106-0.186,0.211-0.282,0.313
	L70.251,304.107l363.157-143.36c5.522-2.051,11.662,0.763,13.713,6.286c1.993,5.365-0.604,11.346-5.884,13.554l-405.333,160
	C34.662,341.081,33.337,341.334,32,341.333z"/>
<rect x="319.994" y="84.897" transform="matrix(-0.7474 0.6644 -0.6644 -0.7474 719.5237 153.0793)" width="21.333" height="256.853"/>
<rect x="387.381" y="234.611" transform="matrix(-0.2423 0.9702 -0.9702 -0.2423 801.1749 -135.1333)" width="131.947" height="21.333"/>
<path d="M277.333,394.667c-5.891,0.016-10.68-4.746-10.696-10.638c-0.012-4.431,2.717-8.409,6.856-9.992l138.667-53.333
	c5.502-2.115,11.677,0.631,13.792,6.133s-0.631,11.677-6.133,13.792l-138.667,53.333
	C279.932,394.426,278.638,394.665,277.333,394.667z"/>
<path d="M224,405.333c-0.966-0.001-1.927-0.13-2.859-0.384l-192-53.333c-5.679-1.579-9.003-7.462-7.424-13.141
	c1.579-5.679,7.462-9.003,13.141-7.424l192,53.333c5.679,1.566,9.013,7.44,7.446,13.119
	C233.027,402.137,228.807,405.343,224,405.333z"/>
<path d="M437.333,138.667h-1.195l-192-21.333c-5.858-0.62-10.104-5.872-9.484-11.731c0.004-0.036,0.008-0.073,0.012-0.109
	c0.713-5.82,5.941-10.006,11.776-9.429l192,21.333c5.891,0.324,10.404,5.362,10.08,11.253c-0.324,5.891-5.362,10.404-11.253,10.08
	L437.333,138.667z"/>
<path d="M245.333,384c-5.72,0.005-10.426-4.503-10.667-10.219l-10.667-256c-0.247-5.891,4.328-10.867,10.219-11.115
	c5.891-0.247,10.867,4.328,11.115,10.219l10.667,256c0.252,5.886-4.314,10.861-10.2,11.114c-0.006,0-0.013,0.001-0.019,0.001
	H245.333z"/>
<path d="M266.667,384c-5.891-0.009-10.659-4.793-10.65-10.684c0.004-2.715,1.043-5.325,2.906-7.3l181.333-192
	c4.047-4.283,10.8-4.474,15.083-0.427c4.283,4.047,4.474,10.8,0.427,15.083l-181.333,192
	C272.412,382.803,269.603,384.007,266.667,384z"/>
<path d="M234.667,384c-3.575,0.005-6.915-1.781-8.896-4.757l-64-96c-1.903-2.855-2.315-6.452-1.109-9.664l64-170.667
	c2.074-5.52,8.229-8.314,13.749-6.24c5.52,2.074,8.314,8.229,6.24,13.749l-62.08,165.547l60.971,91.456
	c3.264,4.904,1.934,11.526-2.971,14.79C238.821,383.377,236.768,383.999,234.667,384z"/>
<g>
</g>
<g>
</g>
<g>
</g>
<g>
</g>
<g>
</g>
<g>
</g>
<g>
</g>
<g>
</g>
<g>
</g>
<g>
</g>
<g>
</g>
<g>
</g>
<g>
</g>
<g>
</g>
<g>
</g>
</svg>
