<?xml version="1.0" encoding="iso-8859-1"?>
<!-- Generator: Adobe Illustrator 19.0.0, SVG Export Plug-In . SVG Version: 6.00 Build 0)  -->
<svg version="1.1" id="Capa_1" xmlns="http://www.w3.org/2000/svg" xmlns:xlink="http://www.w3.org/1999/xlink" x="0px" y="0px"
	 viewBox="0 0 512.136 512.136" style="enable-background:new 0 0 512.136 512.136;" xml:space="preserve">
<path style="fill:#03A9F4;" d="M346.073,81.148c-34.412-21.307-65.621-47.395-92.693-77.483c-2.384-2.681-5.932-4.021-9.493-3.584
	c-3.561,0.51-6.625,2.78-8.149,6.037c-13.714,28.683-34.497,53.408-60.395,71.851C84.665,108.276,22.967,192.486,21.401,288.081
	c3.156,126.564,108.093,226.731,234.667,224c126.574,2.731,231.511-97.436,234.667-224
	C489.841,195.859,432.379,113.662,346.073,81.148z"/>
<g>
	<path style="fill:#FAFAFA;" d="M405.401,256.081c-21.111,1.758-40.768,11.464-54.997,27.157
		c-7.893,6.4-17.493,14.123-29.504,22.997c-53.995-51.072-87.701-71.488-118.165-71.488c-65.963,0-96,44.224-96,85.333
		c0,47.128,38.205,85.333,85.333,85.333c39.68,0,102.869-50.005,126.485-69.931c15.851,19.733,50.773,59.264,76.181,59.264
		c33.045,0,53.333-43.477,53.333-74.667C448.068,262.311,418.201,256.081,405.401,256.081z"/>
	<path style="fill:#FAFAFA;" d="M329.476,426.748c0.426,0.031,0.854,0.031,1.28,0c5.433,0.038,10.026-4.013,10.667-9.408
		c1.381-8.381-0.956-16.947-6.4-23.467c-6.663-6.906-16.051-10.494-25.621-9.792c-20.451-1.28-40.01,8.54-51.2,25.707
		c-3.354,4.843-2.148,11.488,2.695,14.842c4.669,3.234,11.053,2.242,14.521-2.256c7.144-11.696,20.343-18.283,33.984-16.96
		c3.374-0.378,6.765,0.553,9.472,2.603c1.278,2.022,1.736,4.457,1.28,6.805c-0.736,5.845,3.405,11.18,9.25,11.916
		C329.427,426.742,329.452,426.745,329.476,426.748z"/>
	<path style="fill:#FAFAFA;" d="M333.849,440.529c-17.067,17.067-87.808,14.464-102.251,0c-4.237-4.093-10.99-3.975-15.083,0.262
		c-3.993,4.134-3.993,10.687,0,14.821c19.994,13.467,43.924,19.844,67.968,18.112c22.95,1.787,45.789-4.632,64.448-18.112
		c4.093-4.237,3.975-10.99-0.262-15.083C344.537,436.537,337.983,436.537,333.849,440.529L333.849,440.529z"/>
</g>
<path d="M256.068,512.081c-126.574,2.731-231.511-97.436-234.667-224c1.575-95.586,63.258-179.787,153.92-210.112
	c25.885-18.418,46.672-43.103,60.416-71.744c2.495-5.337,8.844-7.64,14.181-5.145c1.318,0.616,2.497,1.496,3.462,2.585
	c27.066,30.093,58.277,56.182,92.693,77.483c86.294,32.528,143.749,114.717,144.661,206.933
	C487.579,414.646,382.642,514.813,256.068,512.081z M247.769,28.903c-15.214,27.721-37.083,51.225-63.637,68.395
	c-82.876,27.1-139.579,103.609-141.397,190.784c3.152,114.783,98.539,205.401,213.333,202.667
	c114.794,2.734,210.181-87.883,213.333-202.667c-0.99-83.637-53.344-158.044-131.733-187.221c-0.386-0.149-0.764-0.32-1.131-0.512
	C303.728,80.837,273.843,56.783,247.769,28.903z"/>
<path d="M192.068,405.415c-47.128,0-85.333-38.205-85.333-85.333c0-41.109,30.037-85.333,96-85.333
	c31.723,0,66.709,21.781,124.736,77.653c4.242,4.087,4.368,10.84,0.28,15.082c-0.193,0.2-0.393,0.392-0.6,0.576
	C318.255,335.975,238.767,405.415,192.068,405.415z M202.735,256.081c-51.584,0-74.667,32.149-74.667,64
	c0.082,35.312,28.688,63.918,64,64c29.163,0,84.459-41.259,112.107-64.405C256.324,274.641,226.564,256.081,202.735,256.081z"/>
<path d="M394.735,394.748c-30.464,0-74.667-56.875-83.2-68.267c-3.538-4.711-2.587-11.397,2.124-14.935
	c0.067-0.05,0.134-0.099,0.202-0.148c15.552-11.136,27.136-20.523,36.544-28.16c14.23-15.693,33.886-25.399,54.997-27.157
	c12.8,0,42.667,6.229,42.667,64C448.068,351.249,427.78,394.748,394.735,394.748z M335.236,322.215
	c20.928,26.005,47.637,51.2,59.499,51.2c18.261,0,32-32.363,32-53.333c0-19.477-3.691-42.667-21.333-42.667
	c-13.291,0-20.565,5.376-41.557,22.421C356.079,306.129,346.841,313.681,335.236,322.215z"/>
<path d="M330.735,426.748c-0.419,0.026-0.839,0.026-1.259,0c-5.855-0.65-10.075-5.923-9.425-11.778
	c0.005-0.049,0.011-0.098,0.017-0.147c0.459-2.353,0.01-4.792-1.259-6.827c-2.7-2.012-6.059-2.934-9.408-2.581
	c-13.694-1.388-26.968,5.208-34.133,16.96c-3.476,4.76-10.152,5.801-14.912,2.325c-4.76-3.476-5.801-10.152-2.325-14.912
	c11.226-17.215,30.862-27.041,51.371-25.707c9.5-0.66,18.806,2.908,25.429,9.749c5.452,6.515,7.789,15.086,6.4,23.467
	C340.617,422.645,336.117,426.697,330.735,426.748z"/>
<path d="M284.484,473.681c-24.037,1.731-47.96-4.646-67.947-18.112c-4.093-4.237-3.975-10.99,0.262-15.083
	c4.134-3.993,10.687-3.993,14.821,0c14.443,14.421,85.184,17.067,102.251,0c4.237-4.093,10.99-3.976,15.083,0.261
	c3.993,4.134,3.993,10.688,0,14.821C330.287,469.053,307.441,475.471,284.484,473.681z"/>
<g>
</g>
<g>
</g>
<g>
</g>
<g>
</g>
<g>
</g>
<g>
</g>
<g>
</g>
<g>
</g>
<g>
</g>
<g>
</g>
<g>
</g>
<g>
</g>
<g>
</g>
<g>
</g>
<g>
</g>
</svg>
