<?xml version="1.0" encoding="iso-8859-1"?>
<!-- Generator: Adobe Illustrator 19.0.0, SVG Export Plug-In . SVG Version: 6.00 Build 0)  -->
<svg version="1.1" id="Capa_1" xmlns="http://www.w3.org/2000/svg" xmlns:xlink="http://www.w3.org/1999/xlink" x="0px" y="0px"
	 viewBox="0 0 512 512" style="enable-background:new 0 0 512 512;" xml:space="preserve">
<g>
	<circle style="fill:#03A9F4;" cx="149.333" cy="42.667" r="42.667"/>
	<circle style="fill:#03A9F4;" cx="362.667" cy="42.667" r="42.667"/>
	<path style="fill:#03A9F4;" d="M397.419,111.936c-4.657-1.191-9.541,0.834-11.989,4.971
		c-40.926,71.482-132.05,96.252-203.532,55.327c-23.037-13.19-42.137-32.289-55.327-55.327c-2.946-5.102-9.47-6.849-14.571-3.904
		c-3.3,1.905-5.333,5.426-5.333,9.237v379.093c0,5.891,4.776,10.667,10.667,10.667h64c5.891,0,10.667-4.776,10.667-10.667V246.165
		c41.67,13.042,86.33,13.042,128,0v255.168c0,5.891,4.776,10.667,10.667,10.667h64c5.891,0,10.667-4.776,10.667-10.667V122.24
		C405.333,117.409,402.086,113.182,397.419,111.936z"/>
</g>
<path d="M149.333,85.333c-23.564,0-42.667-19.103-42.667-42.667S125.769,0,149.333,0S192,19.103,192,42.667
	S172.897,85.333,149.333,85.333z M149.333,21.333c-11.782,0-21.333,9.551-21.333,21.333S137.551,64,149.333,64
	s21.333-9.551,21.333-21.333S161.115,21.333,149.333,21.333z"/>
<path d="M362.667,85.333C339.103,85.333,320,66.231,320,42.667S339.103,0,362.667,0s42.667,19.103,42.667,42.667
	S386.231,85.333,362.667,85.333z M362.667,21.333c-11.782,0-21.333,9.551-21.333,21.333S350.885,64,362.667,64
	C374.449,64,384,54.449,384,42.667S374.449,21.333,362.667,21.333z"/>
<path d="M394.667,512h-64c-5.891,0-10.667-4.776-10.667-10.667V246.165c-41.667,13.062-86.333,13.062-128,0v255.168
	c0,5.891-4.776,10.667-10.667,10.667h-64c-5.891,0-10.667-4.776-10.667-10.667V122.24c0-5.891,4.776-10.666,10.667-10.666
	c3.81,0,7.331,2.033,9.237,5.333c40.902,71.482,132.007,96.272,203.489,55.37c23.059-13.195,42.175-32.31,55.37-55.37
	c2.946-5.102,9.469-6.849,14.571-3.904c3.3,1.905,5.333,5.426,5.333,9.237v379.093C405.333,507.224,400.558,512,394.667,512z
	 M341.333,490.667H384V155.349c-13.659,15.569-30.05,28.511-48.363,38.187c-49.929,25.883-109.324,25.883-159.253,0
	c-18.322-9.672-34.72-22.614-48.384-38.187v335.317h42.667V231.04c0.006-5.891,4.787-10.662,10.678-10.656
	c1.348,0.001,2.683,0.258,3.936,0.757c45.436,17.96,96.004,17.96,141.44,0c5.473-2.18,11.677,0.49,13.856,5.963
	c0.499,1.252,0.756,2.588,0.757,3.936V490.667z"/>
<g>
</g>
<g>
</g>
<g>
</g>
<g>
</g>
<g>
</g>
<g>
</g>
<g>
</g>
<g>
</g>
<g>
</g>
<g>
</g>
<g>
</g>
<g>
</g>
<g>
</g>
<g>
</g>
<g>
</g>
</svg>
