<?xml version="1.0" encoding="iso-8859-1"?>
<!-- Generator: Adobe Illustrator 19.0.0, SVG Export Plug-In . SVG Version: 6.00 Build 0)  -->
<svg version="1.1" id="Capa_1" xmlns="http://www.w3.org/2000/svg" xmlns:xlink="http://www.w3.org/1999/xlink" x="0px" y="0px"
	 viewBox="0 0 469.333 469.333" style="enable-background:new 0 0 469.333 469.333;" xml:space="preserve">
<g>
	<path style="fill:#37474F;" d="M96,320H10.667C4.776,320,0,315.224,0,309.333v-128c0-5.891,4.776-10.667,10.667-10.667h74.667V96
		c0-5.891,4.776-10.667,10.667-10.667c5.891,0,10.667,4.776,10.667,10.667v213.333C106.667,315.224,101.891,320,96,320z
		 M21.333,298.667h64V192h-64V298.667z"/>
	<path style="fill:#37474F;" d="M160,320c-5.891,0-10.667-4.776-10.667-10.667v-128c0-5.891,4.776-10.667,10.667-10.667
		c5.891,0,10.667,4.776,10.667,10.667v128C170.667,315.224,165.891,320,160,320z"/>
	<path style="fill:#37474F;" d="M309.333,384H224c-5.891,0-10.667-4.776-10.667-10.667s4.776-10.667,10.667-10.667h74.667v-53.333
		H224c-5.891,0-10.667-4.776-10.667-10.667V181.333c0-5.891,4.776-10.667,10.667-10.667h85.333c5.891,0,10.667,4.776,10.667,10.667
		v192C320,379.224,315.224,384,309.333,384z M234.667,288h64v-96h-64V288z"/>
	<path style="fill:#37474F;" d="M458.667,384h-85.333c-5.891,0-10.667-4.776-10.667-10.667s4.776-10.667,10.667-10.667H448v-53.333
		h-74.667c-5.891,0-10.667-4.776-10.667-10.667V181.333c0-5.891,4.776-10.667,10.667-10.667h85.333
		c5.891,0,10.667,4.776,10.667,10.667v192C469.333,379.224,464.558,384,458.667,384z M384,288h64v-96h-64V288z"/>
	<path style="fill:#37474F;" d="M160.427,106.667c-5.891,0-10.667-4.776-10.667-10.667c-0.001-5.809,4.646-10.55,10.453-10.667
		h0.213c5.891,0,10.667,4.776,10.667,10.667C171.093,101.891,166.318,106.667,160.427,106.667z"/>
</g>
<path d="M96,320H10.667C4.776,320,0,315.224,0,309.333v-128c0-5.891,4.776-10.667,10.667-10.667h74.667V96
	c0-5.891,4.776-10.667,10.667-10.667c5.891,0,10.667,4.776,10.667,10.667v213.333C106.667,315.224,101.891,320,96,320z
	 M21.333,298.667h64V192h-64V298.667z"/>
<path d="M160,320c-5.891,0-10.667-4.776-10.667-10.667v-128c0-5.891,4.776-10.667,10.667-10.667c5.891,0,10.667,4.776,10.667,10.667
	v128C170.667,315.224,165.891,320,160,320z"/>
<path d="M309.333,384H224c-5.891,0-10.667-4.776-10.667-10.667s4.776-10.667,10.667-10.667h74.667v-53.333H224
	c-5.891,0-10.667-4.776-10.667-10.667V181.333c0-5.891,4.776-10.667,10.667-10.667h85.333c5.891,0,10.667,4.776,10.667,10.667v192
	C320,379.224,315.224,384,309.333,384z M234.667,288h64v-96h-64V288z"/>
<path d="M458.667,384h-85.333c-5.891,0-10.667-4.776-10.667-10.667s4.776-10.667,10.667-10.667H448v-53.333h-74.667
	c-5.891,0-10.667-4.776-10.667-10.667V181.333c0-5.891,4.776-10.667,10.667-10.667h85.333c5.891,0,10.667,4.776,10.667,10.667v192
	C469.333,379.224,464.558,384,458.667,384z M384,288h64v-96h-64V288z"/>
<path d="M160.427,106.667c-5.891,0-10.667-4.776-10.667-10.667c0-5.891,4.776-10.667,10.667-10.667h0.213
	c5.891,0,10.667,4.776,10.667,10.667c0,5.891-4.776,10.667-10.667,10.667H160.427z"/>
<g>
</g>
<g>
</g>
<g>
</g>
<g>
</g>
<g>
</g>
<g>
</g>
<g>
</g>
<g>
</g>
<g>
</g>
<g>
</g>
<g>
</g>
<g>
</g>
<g>
</g>
<g>
</g>
<g>
</g>
</svg>
