<?xml version="1.0" encoding="iso-8859-1"?>
<!-- Generator: Adobe Illustrator 19.0.0, SVG Export Plug-In . SVG Version: 6.00 Build 0)  -->
<svg version="1.1" id="Capa_1" xmlns="http://www.w3.org/2000/svg" xmlns:xlink="http://www.w3.org/1999/xlink" x="0px" y="0px"
	 viewBox="0 0 512 512" style="enable-background:new 0 0 512 512;" xml:space="preserve">
<path style="fill:#4CAF50;" d="M416,74.667v-64C416,4.776,411.224,0,405.333,0h-74.667c-4.037,0-7.728,2.279-9.536,5.888
	l-39.723,79.445H106.667C100.776,85.333,96,90.109,96,96v128c0,5.891,4.776,10.667,10.667,10.667h98.389L97.323,432.235
	c-0.86,1.562-1.315,3.315-1.323,5.099v64c0,5.891,4.776,10.667,10.667,10.667h74.667c4.037,0,7.728-2.279,9.536-5.888l39.723-79.445
	h174.741c5.891,0,10.667-4.776,10.667-10.667V288c0-5.891-4.776-10.667-10.667-10.667h-98.389L414.699,79.765
	C415.561,78.205,416.009,76.45,416,74.667z"/>
<path d="M181.333,512h-74.667C100.776,512,96,507.224,96,501.333v-64c0.008-1.783,0.462-3.536,1.323-5.099l107.733-197.568h-98.389
	C100.776,234.667,96,229.891,96,224V96c0-5.891,4.776-10.667,10.667-10.667h174.741l39.723-79.445C322.939,2.279,326.63,0,330.667,0
	h74.667C411.224,0,416,4.776,416,10.667v64c0.003,1.785-0.453,3.54-1.323,5.099L306.944,277.333h98.389
	c5.891,0,10.667,4.776,10.667,10.667v128c0,5.891-4.776,10.667-10.667,10.667H230.592l-39.723,79.445
	C189.061,509.721,185.37,512,181.333,512z M117.333,490.667h57.408l39.701-79.445c1.812-3.616,5.513-5.896,9.557-5.888h170.667
	V298.667H288.981c-5.891-0.014-10.655-4.801-10.641-10.692c0.004-1.773,0.45-3.516,1.297-5.074L394.667,71.957V21.333h-57.408
	l-39.723,79.445c-1.808,3.609-5.499,5.888-9.536,5.888H117.333v106.667H223.04c5.891,0.014,10.655,4.801,10.641,10.692
	c-0.004,1.773-0.45,3.516-1.297,5.074L117.333,440.043V490.667z"/>
<g>
</g>
<g>
</g>
<g>
</g>
<g>
</g>
<g>
</g>
<g>
</g>
<g>
</g>
<g>
</g>
<g>
</g>
<g>
</g>
<g>
</g>
<g>
</g>
<g>
</g>
<g>
</g>
<g>
</g>
</svg>
