<?xml version="1.0" encoding="iso-8859-1"?>
<!-- Generator: Adobe Illustrator 19.0.0, SVG Export Plug-In . SVG Version: 6.00 Build 0)  -->
<svg version="1.1" id="Capa_1" xmlns="http://www.w3.org/2000/svg" xmlns:xlink="http://www.w3.org/1999/xlink" x="0px" y="0px"
	 viewBox="0 0 512 512" style="enable-background:new 0 0 512 512;" xml:space="preserve">
<g>
	<path style="fill:#EF5350;" d="M266.667,469.33c-26.645,0-32-12.245-32-32c0-31.744,107.392-275.733,128.917-324.267
		c1.99-5.545,8.098-8.426,13.643-6.436c5.545,1.99,8.426,8.098,6.436,13.643c-0.163,0.455-0.357,0.898-0.58,1.326
		C333.952,232.53,256,416.317,256,437.33c-0.326,3.214-0.022,6.46,0.896,9.557c3.145,1.043,6.472,1.421,9.771,1.109
		c24.192,0,69.717-42.027,98.133-80.939c3.464-4.766,10.135-5.821,14.901-2.357s5.821,10.135,2.357,14.901
		C359.381,410.642,306.219,469.33,266.667,469.33z"/>
	<path style="fill:#EF5350;" d="M170.667,469.33c-11.995,0.202-23.469-4.895-31.36-13.931c-12.571-18.158-16.656-40.872-11.2-62.272
		C139.413,315.88,224,234.664,256,234.664c38.635,0,42.667,22.741,42.667,74.667c0,5.891-4.776,10.667-10.667,10.667
		c-5.891,0-10.667-4.776-10.667-10.667c0-53.333-4.523-53.333-21.333-53.333c-18.219,0-96.683,71.275-106.773,140.203
		c-4.057,15.309-1.814,31.605,6.229,45.248c3.82,4.37,9.411,6.777,15.211,6.549c19.627,0,57.749-36.885,77.141-60.16
		c3.776-4.53,10.51-5.141,15.04-1.365c4.53,3.776,5.141,10.51,1.365,15.04C258.411,408.445,206.635,469.33,170.667,469.33z"/>
</g>
<g>
	<path style="fill:#FFC107;" d="M224,149.33c-42.859,0-64.683-5.099-77.781-18.219S128,96.21,128,53.33
		c0-5.891-4.776-10.667-10.667-10.667s-10.667,4.776-10.667,10.667c0,42.88-5.099,64.683-18.219,77.781S53.525,149.33,10.667,149.33
		C4.776,149.33,0,154.106,0,159.997c0,5.891,4.776,10.667,10.667,10.667c42.859,0,64.683,5.099,77.781,18.219
		s18.219,34.901,18.219,77.781c0,5.891,4.776,10.667,10.667,10.667S128,272.555,128,266.664c0-42.88,5.099-64.683,18.219-77.781
		s34.923-18.219,77.781-18.219c5.891,0,10.667-4.776,10.667-10.667C234.667,154.106,229.891,149.33,224,149.33z"/>
	<path style="fill:#FFC107;" d="M288,85.33c-14.933,0-22.784-1.621-26.603-5.419S256,68.264,256,53.33
		c0-5.891-4.776-10.667-10.667-10.667c-5.891,0-10.667,4.776-10.667,10.667c0,14.933-1.621,22.784-5.397,26.581
		c-3.776,3.797-11.669,5.419-26.603,5.419c-5.891,0-10.667,4.776-10.667,10.667c0,5.891,4.776,10.667,10.667,10.667
		c14.933,0,22.784,1.621,26.603,5.419s5.397,11.648,5.397,26.581c0,5.891,4.776,10.667,10.667,10.667
		c5.891,0,10.667-4.776,10.667-10.667c0-14.933,1.621-22.784,5.397-26.581c3.776-3.797,11.669-5.419,26.603-5.419
		c5.891,0,10.667-4.776,10.667-10.667C298.667,90.106,293.891,85.33,288,85.33z"/>
	<path style="fill:#FFC107;" d="M501.333,309.33c-24.128,0-36.779-2.795-43.648-9.664c-6.869-6.869-9.685-19.541-9.685-43.669
		c0-5.891-4.776-10.667-10.667-10.667s-10.667,4.776-10.667,10.667c0,24.128-2.795,36.8-9.685,43.669
		c-6.891,6.869-19.52,9.664-43.648,9.664c-5.891,0-10.667,4.776-10.667,10.667s4.776,10.667,10.667,10.667
		c24.128,0,36.779,2.795,43.648,9.664c6.869,6.869,9.685,19.541,9.685,43.669c0,5.891,4.776,10.667,10.667,10.667
		S448,389.888,448,383.997c0-24.128,2.795-36.8,9.685-43.669c6.891-6.869,19.52-9.664,43.648-9.664
		c5.891,0,10.667-4.776,10.667-10.667S507.224,309.33,501.333,309.33z"/>
</g>
<path d="M266.667,469.33c-26.645,0-32-12.245-32-32c0-31.765,107.392-275.733,128.917-324.267c2.516-5.327,8.873-7.606,14.2-5.09
	c5.146,2.43,7.478,8.473,5.299,13.73C333.952,232.53,256,416.317,256,437.33c-0.34,3.215-0.028,6.466,0.917,9.557l0,0
	c3.144,1.011,6.458,1.388,9.749,1.109c24.213,0,69.739-42.005,98.133-80.939c3.464-4.766,10.135-5.821,14.901-2.357
	s5.821,10.135,2.357,14.901C359.403,410.642,306.261,469.33,266.667,469.33z"/>
<path d="M170.667,469.33c-11.996,0.208-23.472-4.89-31.36-13.931c-12.592-18.148-16.715-40.856-11.307-62.272
	c11.413-77.269,96-158.464,128-158.464c38.635,0,42.667,22.741,42.667,74.667c0,5.891-4.776,10.667-10.667,10.667
	c-5.891,0-10.667-4.776-10.667-10.667c0-53.333-4.523-53.333-21.333-53.333c-18.219,0-96.683,71.275-106.667,140.203
	c-4.072,15.308-1.828,31.61,6.229,45.248c3.796,4.34,9.341,6.745,15.104,6.549c19.648,0,57.728-36.907,77.141-60.16
	c3.776-4.524,10.505-5.131,15.029-1.355c4.524,3.776,5.131,10.505,1.355,15.029C258.411,408.445,206.635,469.33,170.667,469.33z"/>
<path d="M117.333,277.33c-5.891,0-10.667-4.776-10.667-10.667c0-42.859-5.099-64.683-18.219-77.781s-34.901-18.219-77.781-18.219
	C4.776,170.664,0,165.888,0,159.997c0-5.891,4.776-10.667,10.667-10.667c42.88,0,64.683-5.099,77.781-18.219
	s18.219-34.923,18.219-77.781c0-5.891,4.776-10.667,10.667-10.667S128,47.439,128,53.33c0,42.859,5.099,64.683,18.219,77.781
	S181.12,149.33,224,149.33c5.891,0,10.667,4.776,10.667,10.667c0,5.891-4.776,10.667-10.667,10.667
	c-42.88,0-64.683,5.099-77.781,18.219S128,223.805,128,266.664C128,272.555,123.224,277.33,117.333,277.33z M83.2,159.997
	c7.536,3.314,14.398,7.986,20.245,13.781c5.834,5.878,10.541,12.776,13.888,20.352c6.637-15.295,18.838-27.497,34.133-34.133
	c-15.295-6.637-27.497-18.838-34.133-34.133c-3.326,7.53-7.996,14.39-13.781,20.245C97.682,151.953,90.782,156.662,83.2,159.997z"/>
<path d="M245.333,149.33c-5.891,0-10.667-4.776-10.667-10.667c0-14.933-1.621-22.784-5.419-26.603
	c-3.797-3.819-11.648-5.397-26.581-5.397c-5.891,0-10.667-4.776-10.667-10.667c0-5.891,4.776-10.667,10.667-10.667
	c14.933,0,22.784-1.621,26.581-5.397c3.797-3.776,5.419-11.669,5.419-26.603c0-5.891,4.776-10.667,10.667-10.667
	c5.891,0,10.667,4.776,10.667,10.667c0,14.933,1.621,22.784,5.419,26.603c3.797,3.819,11.648,5.397,26.581,5.397
	c5.891,0,10.667,4.776,10.667,10.667c0,5.891-4.776,10.667-10.667,10.667c-14.933,0-22.784,1.621-26.581,5.397
	c-3.797,3.776-5.419,11.669-5.419,26.603C256,144.555,251.224,149.33,245.333,149.33z M243.307,95.997l1.024,0.981
	c0.363,0.341,0.683,0.683,1.003,1.045l1.003-1.045l1.024-0.981l-1.024-0.981c-0.363-0.341-0.683-0.683-1.003-1.045l-1.003,1.045
	L243.307,95.997z"/>
<path d="M437.333,394.664c-5.891,0-10.667-4.776-10.667-10.667c0-24.128-2.795-36.779-9.664-43.648
	c-6.869-6.869-19.541-9.685-43.669-9.685c-5.891,0-10.667-4.776-10.667-10.667s4.776-10.667,10.667-10.667
	c24.128,0,36.8-2.795,43.669-9.685c6.869-6.891,9.664-19.52,9.664-43.648c0-5.891,4.776-10.667,10.667-10.667
	S448,250.106,448,255.997c0,24.128,2.795,36.779,9.664,43.648c6.869,6.869,19.541,9.685,43.669,9.685
	c5.891,0,10.667,4.776,10.667,10.667s-4.776,10.667-10.667,10.667c-24.128,0-36.8,2.795-43.669,9.685
	c-6.869,6.891-9.664,19.52-9.664,43.648C448,389.888,443.224,394.664,437.333,394.664z M425.685,319.997
	c2.302,1.542,4.445,3.307,6.4,5.269c1.948,1.962,3.706,4.105,5.248,6.4c3.09-4.608,7.046-8.571,11.648-11.669
	c-2.302-1.542-4.445-3.307-6.4-5.269c-1.948-1.962-3.706-4.105-5.248-6.4c-3.094,4.593-7.05,8.541-11.648,11.627V319.997z"/>
<g>
</g>
<g>
</g>
<g>
</g>
<g>
</g>
<g>
</g>
<g>
</g>
<g>
</g>
<g>
</g>
<g>
</g>
<g>
</g>
<g>
</g>
<g>
</g>
<g>
</g>
<g>
</g>
<g>
</g>
</svg>
