<?xml version="1.0" encoding="iso-8859-1"?>
<!-- Generator: Adobe Illustrator 19.0.0, SVG Export Plug-In . SVG Version: 6.00 Build 0)  -->
<svg version="1.1" id="Capa_1" xmlns="http://www.w3.org/2000/svg" xmlns:xlink="http://www.w3.org/1999/xlink" x="0px" y="0px"
	 viewBox="0 0 512 512" style="enable-background:new 0 0 512 512;" xml:space="preserve">
<path style="fill:#FF9800;" d="M256,0C114.615,0,0,114.615,0,256s114.615,256,256,256s256-114.615,256-256
	C511.847,114.678,397.322,0.153,256,0z"/>
<g>
	<circle style="fill:#ECEFF1;" cx="256" cy="256" r="117.333"/>
	<path style="fill:#ECEFF1;" d="M486.592,213.333h-98.709c-13.786-42.279-46.937-75.43-89.216-89.216V25.408
		C394.109,43.225,468.775,117.891,486.592,213.333z"/>
	<path style="fill:#ECEFF1;" d="M213.333,25.408v98.709c-42.279,13.786-75.43,46.937-89.216,89.216H25.408
		C43.225,117.891,117.891,43.225,213.333,25.408z"/>
	<path style="fill:#ECEFF1;" d="M25.408,298.667h98.709c13.786,42.279,46.937,75.43,89.216,89.216v98.709
		C117.891,468.775,43.225,394.109,25.408,298.667z"/>
	<path style="fill:#ECEFF1;" d="M298.667,486.592v-98.709c42.279-13.786,75.43-46.937,89.216-89.216h98.709
		C468.775,394.109,394.109,468.775,298.667,486.592z"/>
</g>
<path d="M256,512C114.615,512,0,397.385,0,256S114.615,0,256,0s256,114.615,256,256C511.847,397.322,397.322,511.847,256,512z
	 M256,21.333C126.397,21.333,21.333,126.397,21.333,256S126.397,490.667,256,490.667S490.667,385.603,490.667,256
	C490.526,126.456,385.544,21.474,256,21.333z"/>
<path d="M256,394.667c-76.583,0-138.667-62.083-138.667-138.667S179.417,117.333,256,117.333S394.667,179.417,394.667,256
	C394.573,332.544,332.544,394.573,256,394.667z M256,138.667c-64.801,0-117.333,52.532-117.333,117.333S191.199,373.333,256,373.333
	S373.333,320.801,373.333,256C373.251,191.233,320.767,138.749,256,138.667z"/>
<path d="M224,138.667c-5.891,0-10.667-4.776-10.667-10.667V21.333c0-5.891,4.776-10.667,10.667-10.667
	c5.891,0,10.667,4.776,10.667,10.667V128C234.667,133.891,229.891,138.667,224,138.667z"/>
<path d="M288,138.667c-5.891,0-10.667-4.776-10.667-10.667V21.333c0-5.891,4.776-10.667,10.667-10.667
	c5.891,0,10.667,4.776,10.667,10.667V128C298.667,133.891,293.891,138.667,288,138.667z"/>
<path d="M490.667,234.667H384c-5.891,0-10.667-4.776-10.667-10.667c0-5.891,4.776-10.667,10.667-10.667h106.667
	c5.891,0,10.667,4.776,10.667,10.667C501.333,229.891,496.558,234.667,490.667,234.667z"/>
<path d="M490.667,298.667H384c-5.891,0-10.667-4.776-10.667-10.667c0-5.891,4.776-10.667,10.667-10.667h106.667
	c5.891,0,10.667,4.776,10.667,10.667C501.333,293.891,496.558,298.667,490.667,298.667z"/>
<path d="M288,501.333c-5.891,0-10.667-4.776-10.667-10.667V384c0-5.891,4.776-10.667,10.667-10.667
	c5.891,0,10.667,4.776,10.667,10.667v106.667C298.667,496.558,293.891,501.333,288,501.333z"/>
<path d="M224,501.333c-5.891,0-10.667-4.776-10.667-10.667V384c0-5.891,4.776-10.667,10.667-10.667
	c5.891,0,10.667,4.776,10.667,10.667v106.667C234.667,496.558,229.891,501.333,224,501.333z"/>
<path d="M128,298.667H21.333c-5.891,0-10.667-4.776-10.667-10.667c0-5.891,4.776-10.667,10.667-10.667H128
	c5.891,0,10.667,4.776,10.667,10.667C138.667,293.891,133.891,298.667,128,298.667z"/>
<path d="M128,234.667H21.333c-5.891,0-10.667-4.776-10.667-10.667c0-5.891,4.776-10.667,10.667-10.667H128
	c5.891,0,10.667,4.776,10.667,10.667C138.667,229.891,133.891,234.667,128,234.667z"/>
<g>
</g>
<g>
</g>
<g>
</g>
<g>
</g>
<g>
</g>
<g>
</g>
<g>
</g>
<g>
</g>
<g>
</g>
<g>
</g>
<g>
</g>
<g>
</g>
<g>
</g>
<g>
</g>
<g>
</g>
</svg>
