<?xml version="1.0" encoding="iso-8859-1"?>
<!-- Generator: Adobe Illustrator 19.0.0, SVG Export Plug-In . SVG Version: 6.00 Build 0)  -->
<svg version="1.1" id="Capa_1" xmlns="http://www.w3.org/2000/svg" xmlns:xlink="http://www.w3.org/1999/xlink" x="0px" y="0px"
	 viewBox="0 0 512.914 512.914" style="enable-background:new 0 0 512.914 512.914;" xml:space="preserve">
<path style="fill:#2196F3;" d="M471.561,396.047c77.093-118.799,43.283-277.6-75.516-354.692s-277.6-43.283-354.692,75.516
	s-43.283,277.6,75.516,354.692c91.155,59.154,209.697,54.429,295.855-11.793l85.696,31.147c5.538,2.008,11.656-0.853,13.664-6.391
	c0.996-2.745,0.822-5.779-0.48-8.393L471.561,396.047z"/>
<path style="fill:#FAFAFA;" d="M422.26,297.807l-32.896-139.819c-4.049-17.203-21.276-27.867-38.48-23.818
	c-0.045,0.01-0.089,0.021-0.134,0.032l-35.989,8.533c-56.076-28.485-124.538-12.01-161.515,38.869l-27.733,6.656
	c-17.091,4.132-27.646,21.28-23.637,38.4L134.75,366.48c4.049,17.203,21.277,27.867,38.48,23.818
	c0.045-0.01,0.089-0.021,0.134-0.032l225.216-54.037C415.698,332.116,426.28,314.948,422.26,297.807z M256.734,320.911
	c-35.346,0-64-28.654-64-64s28.654-64,64-64s64,28.654,64,64S292.08,320.911,256.734,320.911z"/>
<path d="M256.734,512.911C115.349,512.938,0.713,398.345,0.686,256.96C0.659,115.575,115.253,0.938,256.638,0.912
	c141.385-0.027,256.022,114.567,256.048,255.952c0.009,49.398-14.273,97.743-41.125,139.206l40.043,80.064
	c2.627,5.273,0.482,11.677-4.791,14.304c-2.614,1.302-5.647,1.476-8.393,0.48l-85.696-31.147
	C367.987,494.157,313.16,512.835,256.734,512.911z M256.734,22.245c-129.603,0-234.667,105.064-234.667,234.667
	s105.064,234.667,234.667,234.667c53.669,0.187,105.742-18.239,147.349-52.139c2.908-2.349,6.833-3.005,10.347-1.728l66.133,24.043
	l-30.848-61.696c-1.73-3.467-1.444-7.599,0.747-10.795c73.096-107.023,45.593-253.038-61.43-326.134
	C350.049,36.504,303.942,22.256,256.734,22.245z"/>
<path d="M256.734,320.911c-35.346,0-64-28.654-64-64s28.654-64,64-64s64,28.654,64,64S292.08,320.911,256.734,320.911z
	 M256.734,214.245c-23.564,0-42.667,19.103-42.667,42.667s19.103,42.667,42.667,42.667s42.667-19.103,42.667-42.667
	S280.298,214.245,256.734,214.245z"/>
<path d="M165.854,391.184c-14.828-0.032-27.692-10.247-31.083-24.683l-32.896-139.797c-4.007-17.133,6.572-34.287,23.68-38.4
	l27.733-6.656c37.01-50.852,105.48-67.283,161.536-38.763l35.968-8.533c17.186-4.122,34.459,6.467,38.582,23.653
	c0.011,0.045,0.021,0.089,0.032,0.134l32.896,139.797l0,0c4.007,17.133-6.572,34.287-23.68,38.4l-225.237,53.952
	C170.918,390.879,168.391,391.179,165.854,391.184z M256.734,150.245c-35.361-0.002-68.425,17.521-88.277,46.784
	c-1.509,2.209-3.794,3.77-6.4,4.373l-31.573,7.573c-5.703,1.371-9.229,7.089-7.893,12.8l32.896,139.776
	c1.352,5.72,7.076,9.269,12.8,7.936L393.46,315.45c5.703-1.371,9.229-7.089,7.893-12.8l-32.768-139.776
	c-0.648-2.77-2.376-5.166-4.8-6.656c-2.402-1.505-5.314-1.967-8.064-1.28l-39.893,9.579c-2.587,0.616-5.311,0.243-7.637-1.045
	C292.428,154.793,274.727,150.243,256.734,150.245z"/>
<g>
</g>
<g>
</g>
<g>
</g>
<g>
</g>
<g>
</g>
<g>
</g>
<g>
</g>
<g>
</g>
<g>
</g>
<g>
</g>
<g>
</g>
<g>
</g>
<g>
</g>
<g>
</g>
<g>
</g>
</svg>
