<?xml version="1.0" encoding="iso-8859-1"?>
<!-- Generator: Adobe Illustrator 19.0.0, SVG Export Plug-In . SVG Version: 6.00 Build 0)  -->
<svg version="1.1" id="Capa_1" xmlns="http://www.w3.org/2000/svg" xmlns:xlink="http://www.w3.org/1999/xlink" x="0px" y="0px"
	 viewBox="0 0 512.021 512.021" style="enable-background:new 0 0 512.021 512.021;" xml:space="preserve">
<g>
	<path style="fill:#FFC107;" d="M256,0.011c-141.385,0-256,114.615-256,256s114.615,256,256,256c2.453,0,4.864-0.171,7.275-0.32
		l3.819-0.235c5.891,0,10.667-4.776,10.667-10.667c0-5.891-4.776-10.667-10.667-10.667
		c-117.606-5.573-208.427-105.43-202.854-223.036C69.813,149.48,169.669,58.659,287.276,64.233
		c109.837,5.205,197.695,93.097,202.858,202.935c0.262,5.699,4.962,10.182,10.667,10.176l0,0c5.72,0.005,10.426-4.503,10.667-10.219
		l0.235-3.712c0.171-2.453,0.32-4.907,0.32-7.424C511.857,114.668,397.322,0.152,256,0.011z"/>
	<path style="fill:#FFC107;" d="M473.792,233.867c-4.462-0.424-8.694,2.061-10.496,6.165c-14.709,32.14-52.688,46.272-84.828,31.563
		s-46.272-52.688-31.563-84.828c8.539-18.659,25.507-32.092,45.628-36.121c5.775-1.164,9.513-6.789,8.349-12.564
		c-0.61-3.029-2.504-5.645-5.192-7.17c-89.937-50.97-204.164-19.381-255.134,70.556s-19.381,204.165,70.556,255.134
		s204.164,19.381,255.134-70.556c24.885-43.91,30.983-96.009,16.911-144.478C481.94,237.304,478.211,234.237,473.792,233.867z"/>
</g>
<path d="M256,512.011c-141.385,0-256-114.615-256-256s114.615-256,256-256s256,114.615,256,256c0,2.496-0.149,4.971-0.32,7.424
	l-0.235,3.712c-0.251,5.707-4.954,10.203-10.667,10.197l0,0c-5.705,0.006-10.404-4.477-10.667-10.176
	C484.574,149.56,384.745,58.709,267.137,64.247C149.529,69.785,58.678,169.614,64.216,287.222
	c5.173,109.864,93.077,197.759,202.941,202.922c5.891,0,10.667,4.776,10.667,10.667c0,5.891-4.776,10.667-10.667,10.667
	l-3.712,0.235C260.971,511.861,258.496,512.011,256,512.011z M256,21.344C126.397,21.43,21.403,126.564,21.489,256.166
	c0.045,67.082,28.795,130.938,78.991,175.439c-85.26-97.609-75.25-245.854,22.36-331.115c88.426-77.239,220.329-77.239,308.755,0
	C387.126,50.142,323.175,21.317,256,21.344z"/>
<path d="M304,480.011c-103.093,0.115-186.76-83.365-186.875-186.458c-0.115-103.093,83.365-186.76,186.458-186.875
	c32.294-0.036,64.045,8.307,92.151,24.213c5.123,2.908,6.92,9.418,4.012,14.542c-1.525,2.687-4.141,4.581-7.17,5.192
	c-34.665,6.908-57.166,40.609-50.258,75.273c6.908,34.665,40.609,57.166,75.274,50.258c20.142-4.014,37.134-17.45,45.683-36.124
	c1.786-4.118,6.029-6.61,10.496-6.165c4.438,0.342,8.196,3.403,9.429,7.68c28.772,98.825-28.017,202.263-126.842,231.035
	C339.347,477.534,321.717,480.036,304,480.011z M304,128.011c-91.311,0-165.333,74.022-165.333,165.333S212.689,458.677,304,458.677
	s165.333-74.022,165.333-165.333c-0.004-7.408-0.517-14.807-1.536-22.144c-31.807,34.777-85.783,37.184-120.56,5.377
	s-37.184-85.783-5.377-120.56c6.18-6.757,13.407-12.475,21.404-16.935C344.358,131.781,324.267,128.028,304,128.011z"/>
<g>
</g>
<g>
</g>
<g>
</g>
<g>
</g>
<g>
</g>
<g>
</g>
<g>
</g>
<g>
</g>
<g>
</g>
<g>
</g>
<g>
</g>
<g>
</g>
<g>
</g>
<g>
</g>
<g>
</g>
</svg>
