<?xml version="1.0" encoding="iso-8859-1"?>
<!-- Generator: Adobe Illustrator 19.0.0, SVG Export Plug-In . SVG Version: 6.00 Build 0)  -->
<svg version="1.1" id="Capa_1" xmlns="http://www.w3.org/2000/svg" xmlns:xlink="http://www.w3.org/1999/xlink" x="0px" y="0px"
	 viewBox="0 0 510.72 510.72" style="enable-background:new 0 0 510.72 510.72;" xml:space="preserve">
<g>
	<path style="fill:#FF9800;" d="M255.36,468.693c-136.405,0-248.555-93.44-255.36-212.736
		C6.805,135.467,118.955,42.027,255.36,42.027s248.555,93.44,255.36,212.736C503.915,375.253,391.765,468.693,255.36,468.693z
		 M255.36,63.36c-125.099,0-227.904,84.608-234.069,192.597C27.456,362.752,130.261,447.36,255.36,447.36
		s227.904-84.608,234.069-192.597C483.264,147.968,380.459,63.36,255.36,63.36z"/>
	<circle style="fill:#FF9800;" cx="255.36" cy="255.36" r="117.333"/>
</g>
<path d="M255.36,468.693c-136.405,0-248.555-93.44-255.36-212.736C6.805,135.467,118.955,42.027,255.36,42.027
	s248.555,93.44,255.36,212.736C503.915,375.253,391.765,468.693,255.36,468.693z M255.36,63.36
	c-125.099,0-227.904,84.608-234.069,192.597C27.456,362.752,130.261,447.36,255.36,447.36s227.904-84.608,234.069-192.597
	C483.264,147.968,380.459,63.36,255.36,63.36z"/>
<path d="M255.36,372.693c-64.801,0-117.333-52.532-117.333-117.333s52.532-117.333,117.333-117.333s117.333,52.532,117.333,117.333
	C372.623,320.132,320.132,372.623,255.36,372.693z M255.36,159.36c-53.019,0-96,42.981-96,96s42.981,96,96,96s96-42.981,96-96
	S308.379,159.36,255.36,159.36z"/>
<g>
</g>
<g>
</g>
<g>
</g>
<g>
</g>
<g>
</g>
<g>
</g>
<g>
</g>
<g>
</g>
<g>
</g>
<g>
</g>
<g>
</g>
<g>
</g>
<g>
</g>
<g>
</g>
<g>
</g>
</svg>
