<?xml version="1.0" encoding="iso-8859-1"?>
<!-- Generator: Adobe Illustrator 19.0.0, SVG Export Plug-In . SVG Version: 6.00 Build 0)  -->
<svg version="1.1" id="Capa_1" xmlns="http://www.w3.org/2000/svg" xmlns:xlink="http://www.w3.org/1999/xlink" x="0px" y="0px"
	 viewBox="0 0 512.069 512.069" style="enable-background:new 0 0 512.069 512.069;" xml:space="preserve">
<path style="fill:#FFC107;" d="M448.069,192.037c-11.093,0-21.333-3.563-21.333-29.333v-24
	C424.046,60.94,359.925-0.541,282.117,0.037H132.784C58.562,0.93-0.882,61.823,0.011,136.044c0.011,0.887,0.03,1.773,0.058,2.659
	V373.37c-2.362,74.189,55.866,136.247,130.056,138.608c0.886,0.028,1.773,0.048,2.659,0.058H355.44
	c89.301,0,156.629-62.485,156.629-145.323V256.037C512.069,208.186,495.92,192.037,448.069,192.037z M160.069,128.037h106.667
	c17.673,0,32,14.327,32,32s-14.327,32-32,32H160.069c-17.673,0-32-14.327-32-32S142.396,128.037,160.069,128.037z M352.069,384.037
	h-192c-17.673,0-32-14.327-32-32s14.327-32,32-32h192c17.673,0,32,14.327,32,32S369.742,384.037,352.069,384.037z"/>
<path d="M355.44,512.037H132.784C58.562,511.144-0.882,450.251,0.011,376.029c0.011-0.887,0.03-1.773,0.058-2.659V138.703
	C-2.292,64.514,55.935,2.457,130.125,0.095c0.886-0.028,1.773-0.048,2.659-0.058h149.333
	c77.808-0.578,141.928,60.903,144.619,138.667v24c0,25.771,10.24,29.333,21.333,29.333c47.851,0,64,16.149,64,64v110.677
	C512.069,449.551,444.741,512.037,355.44,512.037z M132.784,21.37C70.241,22.366,20.347,73.875,21.343,136.418
	c0.012,0.762,0.032,1.524,0.059,2.286V373.37c-2.258,62.51,46.586,115.016,109.096,117.274c0.762,0.028,1.524,0.047,2.286,0.06
	H355.44c78.4,0,135.296-52.139,135.296-123.989V256.037c0-36.267-6.4-42.667-42.667-42.667c-15.936,0-42.667-6.592-42.667-50.667
	v-24C402.076,73.018,347.887,21.445,282.117,21.37H132.784z"/>
<path d="M266.736,192.037H160.069c-17.673,0-32-14.327-32-32s14.327-32,32-32h106.667c17.673,0,32,14.327,32,32
	S284.409,192.037,266.736,192.037z M160.069,149.37c-5.891,0-10.667,4.776-10.667,10.667c0,5.891,4.776,10.667,10.667,10.667
	h106.667c5.891,0,10.667-4.776,10.667-10.667c0-5.891-4.776-10.667-10.667-10.667H160.069z"/>
<path d="M352.069,384.037h-192c-17.673,0-32-14.327-32-32s14.327-32,32-32h192c17.673,0,32,14.327,32,32
	S369.742,384.037,352.069,384.037z M160.069,341.37c-5.891,0-10.667,4.776-10.667,10.667c0,5.891,4.776,10.667,10.667,10.667h192
	c5.891,0,10.667-4.776,10.667-10.667c0-5.891-4.776-10.667-10.667-10.667H160.069z"/>
<g>
</g>
<g>
</g>
<g>
</g>
<g>
</g>
<g>
</g>
<g>
</g>
<g>
</g>
<g>
</g>
<g>
</g>
<g>
</g>
<g>
</g>
<g>
</g>
<g>
</g>
<g>
</g>
<g>
</g>
</svg>
