<?xml version="1.0" encoding="iso-8859-1"?>
<!-- Generator: Adobe Illustrator 19.0.0, SVG Export Plug-In . SVG Version: 6.00 Build 0)  -->
<svg version="1.1" id="Capa_1" xmlns="http://www.w3.org/2000/svg" xmlns:xlink="http://www.w3.org/1999/xlink" x="0px" y="0px"
	 viewBox="0 0 512 512" style="enable-background:new 0 0 512 512;" xml:space="preserve">
<g>
	<path style="fill:#2196F3;" d="M213.3,240.037c24.3-14.7,32-28.7,32-64c0-47.1-38.2-85.3-85.3-85.3c-74.8,0.3-149.3,0-149.3,0v320
		h192c35.3,0,64-28.7,64-64v-21.3C266.7,290.037,268,253.337,213.3,240.037z M74.7,154.737h74.7c17.7,0,32,14.3,32,32
		s-14.3,32-32,32H74.7V154.737z M170.7,346.737h-96v-64h96c17.7,0,32,14.3,32,32C202.7,332.337,188.3,346.737,170.7,346.737z"/>
	<rect x="309.3" y="90.737" style="fill:#2196F3;" width="149.3" height="64"/>
	<path style="fill:#2196F3;" d="M443.3,333.937c-20.7,28.3-68.6,42.6-96.9,21.9c-10.4-7.6-18.3-18.2-22.5-30.4H500
		c0.8-5.3,1.3-10.6,1.3-16c-1.5-63.3-54-113.5-117.4-112c-63.3-1.4-115.8,48.7-117.3,112c1.5,63.3,54,113.4,117.3,112
		c50.7,0.7,104.1-39.5,120.3-87.5H443.3z M384,240.037c27,0.1,51.1,17.2,60.1,42.7H323.9C332.9,257.237,357,240.137,384,240.037z"/>
</g>
<path d="M202.7,421.337h-192c-5.9,0-10.7-4.8-10.7-10.7v-320c0-5.8,4.8-10.6,10.7-10.6l0,0c0,0,74.5,0.3,149.3,0h0.3
	c52.9,0.2,95.7,43.1,95.7,96c2.7,22.1-4.6,44.3-20,60.4c41.3,18.8,41.3,55.8,41.3,86.4v23.8
	C277.3,387.937,243.9,421.337,202.7,421.337z M21.3,400.037h181.3c29.5,0,53.3-23.9,53.3-53.3v-23.8c0-34.3,0-61.5-45.2-72.5
	c-5.7-1.4-9.2-7.2-7.8-12.9c0.7-2.8,2.4-5.1,4.9-6.6c20.2-12.1,26.9-21.8,26.9-54.8c0-41.1-33.2-74.5-74.4-74.7H160
	c-57.8,0.2-115.5,0-138.7,0C21.3,101.437,21.3,400.037,21.3,400.037z"/>
<path d="M149.3,229.337H74.7c-5.9,0-10.7-4.8-10.7-10.7v-64c0-5.9,4.8-10.7,10.7-10.7h74.7c23.6,0,42.7,19.1,42.7,42.7
	S172.9,229.337,149.3,229.337z M85.3,208.037h64c11.8,0,21.3-9.6,21.3-21.3s-9.6-21.3-21.3-21.3h-64V208.037z"/>
<path d="M170.7,357.337h-96c-5.9,0-10.7-4.8-10.7-10.7v-64c0-5.9,4.8-10.7,10.7-10.7h96c23.6,0,42.7,19.1,42.7,42.7
	S194.2,357.337,170.7,357.337z M85.3,336.037h85.3c11.8,0,21.3-9.6,21.3-21.3c0-11.8-9.6-21.3-21.3-21.3H85.3V336.037z"/>
<path d="M384,432.037c-69.2,1.4-126.4-53.5-128-122.7c1.6-69.2,58.8-124,128-122.7c69.2-1.4,126.4,53.5,128,122.7
	C510.4,378.537,453.2,433.437,384,432.037z M384,208.037c-57.4-1.4-105.1,43.9-106.7,101.3c1.6,57.4,49.3,102.7,106.7,101.3
	c57.4,1.4,105.1-43.9,106.7-101.3C489.1,251.937,441.4,206.637,384,208.037z"/>
<path d="M458.7,165.337H309.3c-5.9,0-10.7-4.8-10.7-10.7v-64c0-5.9,4.8-10.7,10.7-10.7h149.3c5.9,0,10.7,4.8,10.7,10.7v64
	C469.3,160.637,464.6,165.337,458.7,165.337z M320,144.037h128v-42.7H320V144.037z"/>
<path d="M444.1,293.337H323.9c-5.9,0-10.7-4.8-10.7-10.7c0-1.2,0.2-2.4,0.6-3.6c13.6-38.7,55.9-59.1,94.7-45.6
	c21.3,7.5,38.1,24.2,45.6,45.6c2,5.6-0.9,11.6-6.5,13.6C446.5,293.137,445.3,293.337,444.1,293.337L444.1,293.337z M341.7,272.037
	h84.8c-17.4-23.4-50.4-28.3-73.8-10.9C348.5,264.137,344.8,267.837,341.7,272.037z"/>
<path d="M384,378.737c-31.5-0.1-59.6-20-70.1-49.8c-2-5.6,0.9-11.6,6.5-13.6c1.1-0.4,2.3-0.6,3.6-0.6h120.2
	c5.9,0,10.7,4.8,10.7,10.7c0,1.2-0.2,2.4-0.6,3.6C443.6,358.637,415.5,378.637,384,378.737z M341.6,336.037
	c17.4,23.4,50.4,28.3,73.8,10.9c4.2-3.1,7.9-6.8,10.9-10.9H341.6z"/>
<path d="M490.7,336.037h-46.6c-5.9,0-10.7-4.8-10.7-10.7s4.8-10.7,10.7-10.7h46.6c5.9,0,10.7,4.8,10.7,10.7
	S496.6,336.037,490.7,336.037z"/>
<g>
</g>
<g>
</g>
<g>
</g>
<g>
</g>
<g>
</g>
<g>
</g>
<g>
</g>
<g>
</g>
<g>
</g>
<g>
</g>
<g>
</g>
<g>
</g>
<g>
</g>
<g>
</g>
<g>
</g>
</svg>
